<svg width="37" height="37" viewBox="0 0 37 37" fill="none" xmlns="http://www.w3.org/2000/svg">
<g id="curve_1_ 1" clip-path="url(#clip0_1040_2914)">
<g id="Group">
<path id="Vector" d="M18.9119 0.101162C18.2326 0.346867 17.7701 0.997257 17.7701 1.71269C17.7701 1.94394 17.8062 2.22577 17.8496 2.3414C17.9291 2.55819 17.9219 2.56542 15.118 5.36933L12.3141 8.17323L11.9311 7.98534C10.8182 7.42167 9.4668 7.65292 8.55625 8.55624C7.65293 9.46679 7.42168 10.8182 7.98535 11.931L8.17324 12.3141L5.36934 15.118C3.01348 17.4738 2.54375 17.9146 2.4209 17.8641C2.34141 17.8351 2.03066 17.8135 1.72715 17.8135C1.24297 17.8135 1.1418 17.8424 0.823828 18.0303C0.607031 18.1676 0.390234 18.3844 0.25293 18.6012C0.0650391 18.9191 0.0361328 19.0203 0.0361328 19.5045C0.0361328 19.9742 0.0650391 20.1043 0.238477 20.4006C1.0334 21.7447 2.9918 21.499 3.46875 19.9887C3.54824 19.7357 3.53379 19.3094 3.43262 18.8613C3.39648 18.7023 3.57715 18.4928 5.02969 17.0547C5.93301 16.1586 6.64121 15.4937 6.6123 15.5732C6.57617 15.6527 6.38105 16.2236 6.17148 16.8379C5.47773 18.8469 5.23203 20.5523 5.29707 22.7926C5.39102 26.0373 6.34492 29.0508 8.12988 31.7174L8.6502 32.5051L8.1877 32.9676C7.63848 33.5023 7.48672 33.7625 7.55176 34.0299C7.60957 34.2611 10.1244 36.8121 10.4135 36.935C10.5291 36.9783 10.6953 37 10.782 36.9783C10.876 36.9494 11.577 36.3062 12.343 35.533C13.6076 34.2611 13.7305 34.1166 13.7305 33.8853C13.7305 33.6613 13.6076 33.5168 12.2996 32.2088C10.5941 30.5033 10.6592 30.5322 9.94375 31.2187L9.48848 31.6596L9.06211 31.0236C7.88418 29.2531 7.03145 27.1141 6.64121 24.9316C6.42441 23.7176 6.37383 21.5857 6.54004 20.3066C6.8291 18.023 7.6457 15.7105 8.82363 13.8461L9.19941 13.2391L9.53184 13.3908C9.79922 13.5137 10.0088 13.5426 10.623 13.5498C11.324 13.5498 11.418 13.5353 11.8588 13.3258C12.9789 12.791 13.5859 11.8299 13.5859 10.5941C13.5787 10.2762 13.5281 9.92929 13.4414 9.68358C13.3619 9.46679 13.3041 9.26444 13.2969 9.24276C13.2969 9.16327 14.1062 8.65741 14.9229 8.23104C18.4639 6.37382 22.7059 5.933 26.5576 7.01698C28.0824 7.45058 29.7373 8.20937 31.0236 9.0621L31.6596 9.48847L31.2188 9.94374C30.5322 10.6592 30.5033 10.6014 32.216 12.3068C33.5168 13.6004 33.6613 13.7305 33.8926 13.7305C34.1166 13.7305 34.2611 13.6076 35.533 12.3357C36.3063 11.5769 36.9494 10.876 36.9783 10.782C37 10.6953 36.9783 10.5291 36.935 10.4135C36.8121 10.1244 34.2611 7.60956 34.0299 7.55175C33.7625 7.48671 33.5023 7.63847 32.9676 8.18769L32.5051 8.65018L31.7029 8.11542C30.2287 7.13261 28.2342 6.23652 26.5865 5.81738C24.8305 5.36933 23.667 5.24648 21.7736 5.29706C19.7285 5.34765 17.8062 5.72343 16.1514 6.38827C15.7973 6.5328 15.501 6.6412 15.4938 6.62675C15.4793 6.6123 16.1947 5.88241 17.0836 4.99355L18.6951 3.38202L19.107 3.47597C20.2561 3.7289 21.2605 2.9123 21.2533 1.71991C21.2533 0.766006 20.4801 0.00721741 19.5117 0.00721741C19.3311 0.00721741 19.0637 0.0505791 18.9119 0.101162ZM19.9092 1.32245C20.3211 1.67656 20.0537 2.38476 19.5045 2.38476C19.1938 2.38476 18.9336 2.10292 18.9336 1.7705C18.9336 1.23573 19.5117 0.975578 19.9092 1.32245ZM11.1723 8.9248C12.4514 9.3078 12.8633 10.9699 11.9166 11.9166C11.5697 12.2635 11.1723 12.4297 10.6592 12.4297C9.83535 12.4297 9.14883 11.931 8.9248 11.1723C8.7875 10.717 8.7875 10.5941 8.93203 10.1172C9.08379 9.59686 9.52461 9.14159 10.0449 8.96093C10.5291 8.79472 10.7098 8.78749 11.1723 8.9248ZM34.7598 9.79198L35.5908 10.623L34.7381 11.4758L33.8926 12.3213L33.0471 11.4758L32.1943 10.623L33.0254 9.79198C33.4807 9.33671 33.8709 8.96093 33.8926 8.96093C33.9143 8.96093 34.3045 9.33671 34.7598 9.79198ZM2.2041 19.1142C2.56543 19.4683 2.3125 20.0898 1.80664 20.0898C1.32246 20.0898 1.0334 19.4178 1.37305 19.0781C1.58262 18.8685 1.98008 18.883 2.2041 19.1142ZM11.4902 34.7236L10.623 35.5908L9.77754 34.7381L8.9248 33.8926L9.79199 33.0254L10.6592 32.1582L11.5047 33.0037L12.3574 33.8564L11.4902 34.7236Z" fill="#3AC48A"/>
<path id="Vector_2" d="M14.8144 12.4079C14.641 12.4729 12.4947 14.6192 12.4224 14.8071C12.3646 14.9516 12.8416 16.1946 15.3926 22.5829C17.0691 26.7671 18.4711 30.243 18.5217 30.3009C18.5722 30.3659 20.0392 30.9657 21.7881 31.6378L24.9678 32.8591L25.9795 34.8391C27.0345 36.9059 27.1574 37.0721 27.5404 36.9782C27.6416 36.9493 29.665 34.9764 32.3605 32.2882C37.2963 27.338 37.1806 27.4825 36.8699 27.0995C36.7976 27.0128 35.8654 26.4997 34.7959 25.9577L32.8592 24.9677L31.6379 21.788C30.9658 20.0391 30.366 18.5721 30.301 18.5216C30.1926 18.4348 15.024 12.3501 14.959 12.3645C14.9373 12.3645 14.8722 12.3862 14.8144 12.4079ZM22.3662 16.5487C26.2613 18.1024 29.4627 19.4104 29.4844 19.4466C29.506 19.4827 30.0263 20.8124 30.6406 22.4022L31.7535 25.3001L28.5232 28.5231L25.3002 31.7534L22.4023 30.6405C20.8125 30.0262 19.4828 29.5059 19.4467 29.4843C19.4105 29.4626 18.0881 26.2178 16.5127 22.2721L13.6365 15.0889L13.7955 14.9372L13.9472 14.7782L17.6761 18.5071L21.4051 22.236L21.2244 22.554C20.8414 23.2116 20.7041 24.2739 20.9136 25.0399C21.3617 26.7309 23.0455 27.8366 24.7365 27.5475C26.1746 27.2946 27.2947 26.1745 27.5476 24.7364C27.8367 23.0454 26.731 21.3616 25.0472 20.9135C24.274 20.704 23.2117 20.8341 22.5541 21.2243L22.2361 21.405L18.5144 17.6833L14.7855 13.9544L14.9228 13.8026C15.0023 13.7159 15.1107 13.6653 15.1758 13.6798C15.2336 13.6942 18.4711 14.9878 22.3662 16.5487ZM24.9605 22.0843C25.423 22.2432 26.0228 22.8069 26.2396 23.2839C26.4636 23.7969 26.4709 24.5991 26.2541 25.0833C26.0373 25.5602 25.6326 25.9794 25.1629 26.2106C24.6136 26.478 23.8476 26.4925 23.284 26.2395C22.807 26.0227 22.2433 25.4229 22.0844 24.9604C21.9543 24.5702 21.9326 23.9415 22.041 23.544C22.2144 22.9225 22.901 22.2216 23.5152 22.0481C23.8765 21.9397 24.592 21.9614 24.9605 22.0843ZM34.2539 27.02C34.832 27.3091 35.3234 27.5692 35.3523 27.5981C35.3812 27.627 33.6541 29.3975 31.5078 31.5438C29.3687 33.6829 27.5982 35.4245 27.5838 35.41C27.5621 35.3884 27.2369 34.7452 26.8467 33.9719L26.1457 32.57L29.347 29.3686L32.5412 26.1745L32.8736 26.3335C33.0543 26.4202 33.6758 26.7309 34.2539 27.02Z" fill="#3AC48A"/>
</g>
</g>
<defs>
<clipPath id="clip0_1040_2914">
<rect width="37" height="37" fill="white"/>
</clipPath>
</defs>
</svg>
