<svg width="34" height="34" viewBox="0 0 34 34" fill="none" xmlns="http://www.w3.org/2000/svg">
<g id="puzzle 1" clip-path="url(#clip0_1040_2946)">
<g id="Group">
<path id="Vector" d="M16.7142 0.0929048C16.5216 0.238999 16.4685 0.57103 16.4751 1.56048C16.4751 2.62962 16.5482 2.92181 16.8205 3.01478C17.0994 3.11439 17.3517 2.99486 17.4447 2.72259C17.5376 2.44369 17.5576 0.723764 17.4646 0.405014C17.3916 0.14603 17.2322 0.00657678 16.9998 0.00657678C16.9068 0.00657678 16.7806 0.0464206 16.7142 0.0929048Z" fill="#3AC48A"/>
<path id="Vector_2" d="M8.42707 2.38402C8.26105 2.55004 8.22785 2.62973 8.2677 2.76918C8.3341 3.0348 9.3634 4.77465 9.51613 4.8809C9.72863 5.02699 9.94777 5.00043 10.1404 4.80785C10.3728 4.57543 10.3329 4.44926 9.70207 3.35355C9.10441 2.32426 9.07121 2.28441 8.81887 2.22465C8.67277 2.1848 8.59973 2.21801 8.42707 2.38402Z" fill="#3AC48A"/>
<path id="Vector_3" d="M25.0416 2.27773C24.8623 2.36406 23.7931 4.15039 23.7267 4.45586C23.6869 4.68164 23.9459 4.98047 24.1849 4.98047C24.4572 4.98047 24.6099 4.80781 25.1545 3.86484C25.8252 2.71602 25.8385 2.65625 25.5795 2.39063C25.3537 2.17148 25.2806 2.15156 25.0416 2.27773Z" fill="#3AC48A"/>
<path id="Vector_4" d="M15.9174 4.19024C14.6159 4.31641 13.1417 4.76133 11.953 5.39219C10.7178 6.04297 9.69518 6.85977 9.69518 7.17852C9.69518 7.36446 9.88775 7.60352 10.0936 7.66993C10.2596 7.72305 10.3924 7.65 11.1296 7.09219C12.4577 6.08282 14.3901 5.32578 15.9241 5.20625L16.4686 5.15977V6.38828V7.6168L16.1698 7.72969C15.7713 7.88243 15.2799 8.34063 15.0409 8.77227C14.7753 9.26367 14.7288 10.0207 14.9346 10.5652C15.1338 11.0832 15.519 11.5016 16.0436 11.7605L16.4686 11.973V13.1883V14.4035L14.9014 14.4234C13.1085 14.4434 13.1417 14.4367 13.0553 15.0609C13.0022 15.4594 12.7233 15.8711 12.3979 16.0238C12.1124 16.1633 11.5479 16.1699 11.3022 16.0438C10.937 15.8512 10.6249 15.3598 10.6249 14.9613C10.6182 14.7289 10.4987 14.5695 10.2663 14.4766C10.16 14.4367 9.48268 14.4102 8.63932 14.4102H7.1983L7.25143 13.8922C7.39752 12.3914 7.96197 10.8043 8.80533 9.54922C9.25025 8.88516 9.2901 8.72578 9.09752 8.48008C8.90494 8.23438 8.58619 8.23438 8.35377 8.48008C7.94205 8.91836 7.22486 10.2066 6.88619 11.123C6.38815 12.4512 6.22213 13.4473 6.22213 15.041C6.21549 16.0969 6.24205 16.4156 6.36822 17C6.83971 19.2246 7.78268 20.9445 9.42291 22.5848C10.3659 23.5277 11.1096 24.0789 12.0924 24.5703C12.9026 24.982 13.0819 25.2875 13.0819 26.2703V26.8082L12.7167 26.848C11.8667 26.9344 11.3553 27.5188 11.3553 28.382C11.362 29.1723 11.8866 29.7168 12.7698 29.8496L13.0819 29.8961V31.2109V32.5191L13.2878 32.9242C13.5003 33.3559 13.726 33.5816 14.171 33.8207C14.4366 33.9668 14.4897 33.9668 16.9999 33.9668C19.51 33.9668 19.5631 33.9668 19.8288 33.8207C20.2737 33.5816 20.4995 33.3559 20.712 32.9242L20.9178 32.5191V31.2109V29.9094L21.3229 29.8297C22.1729 29.6703 22.6444 29.159 22.6444 28.3887C22.6444 27.4855 22.1596 26.9344 21.2764 26.848L20.9178 26.8082V26.2703C20.9178 25.2875 21.0971 24.982 21.9073 24.5703C22.8768 24.0855 23.6339 23.5211 24.5436 22.618C26.4628 20.6922 27.4987 18.4609 27.7643 15.6785C27.9503 13.7262 27.4389 11.4418 26.4163 9.65547C26.1639 9.20391 25.9713 9.03125 25.7256 9.03125C25.5729 9.03125 25.3006 9.33672 25.3006 9.51602C25.3006 9.60235 25.4467 9.9543 25.626 10.2996C26.2436 11.4684 26.6288 12.7035 26.7483 13.859L26.8014 14.4102H25.5596H24.3245L24.2049 14.0914C24.0323 13.6398 23.4413 13.0754 22.9565 12.8961C21.8542 12.4844 20.6323 12.9758 20.1542 14.025L19.9815 14.4102H18.753H17.5311V13.0289C17.5311 12.2719 17.4979 11.5414 17.4647 11.4086C17.385 11.123 17.2921 11.0633 16.8671 10.9969C16.4686 10.9371 16.1034 10.6848 15.9307 10.3461C15.7315 9.9543 15.7713 9.40313 16.0303 9.06446C16.2362 8.79883 16.6546 8.57305 16.9534 8.56641C17.4647 8.56641 17.5311 8.34727 17.5311 6.54766V5.15977L18.0823 5.19961C19.9948 5.35235 22.0799 6.30196 23.6272 7.72969C24.2647 8.31407 24.4174 8.38711 24.7096 8.22774C24.9088 8.12813 24.9885 7.84922 24.8956 7.62344C24.8491 7.51719 24.5436 7.1918 24.2116 6.89961C22.3788 5.29922 20.3467 4.40938 17.9561 4.1836C17.146 4.11055 16.7674 4.11055 15.9174 4.19024ZM22.8768 13.9719C23.1424 14.1777 23.3682 14.5961 23.3749 14.8816C23.3749 14.9813 23.4346 15.134 23.5143 15.2336L23.6471 15.4063H25.1944C26.0444 15.4063 26.7549 15.4195 26.7682 15.4395C26.8346 15.4992 26.6885 16.5949 26.5225 17.2656C26.0577 19.1383 25.1612 20.6789 23.7335 22.0469C22.9963 22.7508 22.3655 23.2023 21.4823 23.6738C21.1569 23.8531 20.785 24.0855 20.6588 24.1984C20.1409 24.6766 19.9217 25.2875 19.9217 26.2438V26.8281H18.7264H17.5311V24.5438V22.266L17.8299 22.1531C18.2284 22.0004 18.7596 21.5023 18.9721 21.0906C19.2245 20.6059 19.2577 19.8355 19.0585 19.3109C18.8725 18.8129 18.4077 18.3215 17.9163 18.0957L17.5311 17.923V16.6613V15.4063H19.0917C20.878 15.4063 20.8647 15.4129 20.9444 14.8352C20.9975 14.4301 21.2432 14.0582 21.5686 13.8789C21.9405 13.6797 22.5448 13.7195 22.8768 13.9719ZM9.7815 15.7316C9.94752 16.2098 10.4588 16.741 10.9635 16.9668C11.3354 17.1328 11.4284 17.1461 11.9463 17.1195C12.4178 17.0996 12.5772 17.0598 12.876 16.9004C13.3143 16.6613 13.6928 16.2363 13.8854 15.7648L14.0381 15.4063H15.2467H16.4553L16.4819 17C16.5018 18.8262 16.4753 18.7465 17.1327 18.8992C17.3585 18.9523 17.6307 19.0586 17.737 19.1316C18.2616 19.5035 18.3546 20.4332 17.9096 20.9047C17.7104 21.1238 17.312 21.3164 17.0729 21.3164C16.96 21.3164 16.794 21.3828 16.6878 21.4758L16.5018 21.6352L16.4819 24.2316L16.462 26.8281H15.2799H14.0979L14.0647 26.0777C14.0182 24.7961 13.6928 24.3113 12.451 23.6406C9.9276 22.266 8.14791 19.9883 7.47721 17.2656C7.31119 16.5949 7.1651 15.4992 7.2315 15.4395C7.24479 15.4195 7.8026 15.4063 8.46002 15.4063H9.66197L9.7815 15.7316ZM21.4956 27.9703C21.6948 28.1563 21.7081 28.548 21.5088 28.7273C21.3827 28.8402 21.2167 28.8535 19.5764 28.8867C17.7901 28.9199 17.7835 28.9199 17.6573 29.0793C17.5909 29.1656 17.5311 29.2785 17.5311 29.3316C17.5311 29.5109 17.7237 29.7965 17.8764 29.843C17.9628 29.8629 18.4542 29.8828 18.9788 29.8828H19.9217V30.4141V30.9453H16.9999H14.078V30.4141V29.8828H15.0077C15.5588 29.8828 15.9971 29.8496 16.0967 29.8098C16.4221 29.657 16.4487 29.1191 16.1432 28.9598C16.0635 28.9133 15.4061 28.8867 14.3768 28.8867C13.0753 28.8867 12.7034 28.8668 12.5573 28.7871C12.2385 28.6277 12.1854 28.2492 12.451 27.9902L12.6104 27.8242H16.9733H21.3428L21.4956 27.9703ZM19.9217 32.1672C19.9217 32.4262 19.6893 32.798 19.4569 32.9176C19.3307 32.9773 18.6999 33.0039 16.9999 33.0039C14.8151 33.0039 14.6956 32.9973 14.4897 32.8711C14.2573 32.7316 14.078 32.393 14.078 32.1074V31.9414H16.9999H19.9217V32.1672Z" fill="#3AC48A"/>
<path id="Vector_5" d="M2.37756 8.43353C2.21819 8.59954 2.18499 8.67259 2.22483 8.81868C2.28459 9.07103 2.31116 9.09095 3.42014 9.72845C4.46272 10.3261 4.58889 10.3593 4.8678 10.1136C5.00061 9.98743 5.02053 9.63548 4.901 9.48274C4.78147 9.33001 2.84905 8.23431 2.70295 8.23431C2.63655 8.23431 2.49045 8.32728 2.37756 8.43353Z" fill="#3AC48A"/>
<path id="Vector_6" d="M30.1815 8.80551C29.637 9.12426 29.1456 9.42308 29.1057 9.48285C28.9862 9.63558 28.9995 9.92113 29.1389 10.0805C29.378 10.3727 29.5174 10.3328 30.5799 9.72855C31.6889 9.09105 31.7155 9.07113 31.7752 8.81879C31.8151 8.67269 31.7819 8.59965 31.6225 8.43363C31.5096 8.32738 31.3635 8.23441 31.2971 8.23441C31.2307 8.23441 30.7327 8.4934 30.1815 8.80551Z" fill="#3AC48A"/>
<path id="Vector_7" d="M0.325391 16.5418C0.159375 16.6016 0 16.8406 0 17.0266C0 17.073 0.0597656 17.1926 0.139453 17.2922L0.272266 17.4648H1.53398C2.70273 17.4648 2.7957 17.4582 2.92188 17.332C3.17422 17.0797 3.06797 16.668 2.71602 16.5418C2.45703 16.4555 0.571094 16.4555 0.325391 16.5418Z" fill="#3AC48A"/>
<path id="Vector_8" d="M31.2373 16.5617C30.9186 16.7012 30.8389 17.093 31.078 17.332C31.2041 17.4582 31.2971 17.4648 32.4659 17.4648H33.7276L33.8604 17.2922C33.9401 17.1926 33.9998 17.073 33.9998 17.0266C33.9998 16.834 33.8338 16.6016 33.6479 16.5352C33.3491 16.4355 31.4897 16.4555 31.2373 16.5617Z" fill="#3AC48A"/>
<path id="Vector_9" d="M3.3932 24.2716C2.86859 24.577 2.39046 24.8759 2.33734 24.929C2.05843 25.2079 2.3971 25.8321 2.77562 25.7325C2.98812 25.6794 4.62835 24.7364 4.83421 24.5505C5.13968 24.2716 4.90726 23.7005 4.4889 23.7071C4.41585 23.7138 3.9178 23.9661 3.3932 24.2716Z" fill="#3AC48A"/>
<path id="Vector_10" d="M29.1922 23.8465C28.9664 24.0258 28.9531 24.3578 29.1723 24.5504C29.4113 24.7695 31.1844 25.7656 31.3305 25.7656C31.543 25.7656 31.8285 25.3871 31.7754 25.1746C31.7488 25.0816 31.7023 24.9688 31.6691 24.9289C31.5562 24.7895 29.6238 23.707 29.4976 23.707C29.4246 23.707 29.2918 23.7668 29.1922 23.8465Z" fill="#3AC48A"/>
</g>
</g>
<defs>
<clipPath id="clip0_1040_2946">
<rect width="34" height="34" fill="white"/>
</clipPath>
</defs>
</svg>
