<svg width="24" height="24" viewBox="0 0 24 24" fill="none" xmlns="http://www.w3.org/2000/svg">
<g id="gender 1" clip-path="url(#clip0_1612_1250)">
<g id="Group">
<path id="Vector" d="M13.664 0.0655975C13.589 0.103098 13.4624 0.196848 13.3827 0.276535C13.2562 0.412472 13.2421 0.45466 13.2421 0.749973C13.2421 1.04528 13.2562 1.08747 13.3827 1.22341C13.6312 1.48591 13.7108 1.49997 15.0093 1.49997H16.1952L14.9015 2.79372L13.603 4.09216L13.3546 3.89997C12.9983 3.63747 12.4218 3.31872 11.9437 3.12185C10.4671 2.51247 8.65772 2.47029 7.13897 3.00466C5.18429 3.69841 3.62804 5.27341 2.98116 7.2281C2.73741 7.95935 2.6671 8.34372 2.63897 9.16403C2.62022 9.79685 2.6296 10.0031 2.71397 10.4906C3.17804 13.2093 5.10929 15.2906 7.8046 15.9797C7.9921 16.0265 7.99679 16.0359 8.07647 16.3547C8.26397 17.0765 8.64835 17.9015 9.07491 18.4968L9.31866 18.8343L8.73741 19.4109L8.15616 19.9922L7.27491 19.1156C6.7921 18.6375 6.35147 18.2203 6.29522 18.1922C6.23897 18.164 6.09366 18.1406 5.9671 18.1406C5.54522 18.1406 5.24991 18.4359 5.24991 18.8578C5.24991 18.9843 5.27335 19.1297 5.30147 19.1859C5.3296 19.2422 5.74679 19.6828 6.22491 20.1656L7.10147 21.0468L6.22491 21.9234C5.7421 22.4109 5.3296 22.8656 5.30147 22.9359C5.15616 23.3109 5.29679 23.7187 5.62491 23.8922C6.08897 24.1359 6.28116 24.0328 7.33585 22.9734L8.1796 22.125L9.09366 23.0343C9.85772 23.7984 10.0358 23.9531 10.1812 23.9765C10.7108 24.075 11.1655 23.6437 11.0858 23.114C11.053 22.9125 11.0062 22.8515 10.1437 21.9843L9.23429 21.0656L9.81085 20.4937L10.3874 19.9172L10.8421 20.2265C11.5968 20.7281 12.3421 21.0422 13.2562 21.2437C13.9218 21.3937 15.2905 21.3937 15.9702 21.2437C18.3702 20.7234 20.264 19.0406 21.0233 16.7672C21.2999 15.9375 21.3515 15.5906 21.3515 14.625C21.3515 13.9828 21.328 13.65 21.2671 13.3453C20.9015 11.5359 19.8937 10.0172 18.3796 8.9906C17.8968 8.66247 17.0765 8.2781 16.5468 8.13278C16.303 8.06247 16.0827 8.00154 16.0546 7.99216C16.0312 7.98747 15.9702 7.82341 15.9187 7.63591C15.7405 6.93279 15.3515 6.09841 14.9249 5.5031L14.6858 5.1656L15.989 3.86247L17.2921 2.55935L17.3062 3.8531L17.3202 5.15154L17.4608 5.30153C17.6202 5.47029 17.8452 5.5781 18.0327 5.5781C18.239 5.5781 18.5483 5.39997 18.6655 5.21247L18.7733 5.03904V2.78904V0.539036L18.6655 0.365597C18.6046 0.26716 18.478 0.154659 18.3562 0.0984097C18.164 0.00465965 18.089 -2.86102e-05 15.9796 -2.86102e-05C14.2687 0.00465965 13.7765 0.0187225 13.664 0.0655975ZM10.2749 4.19529C11.3249 4.3781 12.2624 4.85622 13.0218 5.59685C13.6312 6.18747 14.0155 6.75466 14.2874 7.46247C14.4468 7.87029 14.4421 7.87497 14.0624 7.87497C13.4858 7.87497 12.3796 8.17497 11.6437 8.53122C10.3452 9.15935 9.14522 10.364 8.53116 11.6531C8.15616 12.4312 7.87491 13.5 7.87491 14.1328C7.87491 14.264 7.86085 14.3859 7.84679 14.4047C7.8046 14.4468 7.25147 14.2265 6.89054 14.0297C5.60147 13.3265 4.65929 12.1265 4.28897 10.7109C4.13429 10.1343 4.08272 9.2531 4.1671 8.67185C4.5046 6.38435 6.21554 4.60778 8.4796 4.19997C8.95772 4.11091 9.78741 4.11091 10.2749 4.19529ZM14.6343 9.7031C14.5405 12.3 12.2671 14.5687 9.70304 14.639L9.35147 14.6484L9.36554 14.3437C9.44991 12.2953 10.7671 10.4672 12.703 9.7031C13.2187 9.49685 14.0905 9.3281 14.5077 9.34685L14.6483 9.35153L14.6343 9.7031ZM17.2874 10.0734C18.4593 10.7578 19.3593 11.9484 19.7202 13.2984C19.8327 13.7156 19.8468 13.8375 19.8468 14.6015C19.8468 15.3656 19.8327 15.4875 19.7249 15.9C19.2093 17.8125 17.8124 19.2093 15.8999 19.725C15.4874 19.8328 15.3655 19.8468 14.6015 19.8468C13.678 19.8468 13.453 19.8047 12.6749 19.5047C11.803 19.1672 10.8468 18.4172 10.3218 17.6531C10.0733 17.3015 9.68429 16.5375 9.62804 16.3031C9.59991 16.1812 9.6046 16.1812 9.87647 16.1531C10.3546 16.1015 11.1562 15.9375 11.5265 15.8156C13.153 15.2718 14.5499 14.0812 15.3843 12.5297C15.7593 11.8359 16.1249 10.5703 16.1249 9.96091C16.1249 9.85779 16.139 9.72653 16.153 9.67497C16.1812 9.57185 16.1812 9.57185 16.5608 9.72185C16.7718 9.80622 17.0999 9.96091 17.2874 10.0734Z" fill="#3AC48A"/>
</g>
</g>
<defs>
<clipPath id="clip0_1612_1250">
<rect width="24" height="24" fill="white"/>
</clipPath>
</defs>
</svg>
