<svg width="19" height="21" viewBox="0 0 19 21" fill="none" xmlns="http://www.w3.org/2000/svg">
<g id="Group">
<path id="Vector" d="M8.65692 0.0370455C8.08192 0.130795 7.68817 0.262045 7.05692 0.574545C6.57567 0.818295 6.37567 0.968295 5.87567 1.4683C5.33192 2.0058 5.23192 2.13705 4.95067 2.72455C4.53192 3.57455 4.41942 4.0683 4.41942 4.97455C4.41317 5.8808 4.53192 6.3683 4.94442 7.2058C5.56942 8.47455 6.73192 9.42455 8.11942 9.79955C8.73817 9.9683 9.89442 9.9808 10.5319 9.82455C12.3007 9.39955 13.7944 7.89955 14.2319 6.1183C14.3819 5.4933 14.3694 4.3308 14.2007 3.7183C13.7382 2.0058 12.3194 0.587046 10.6507 0.162045C10.0694 0.0120449 9.18192 -0.0442047 8.65692 0.0370455ZM10.2507 1.48705C11.4819 1.77455 12.5819 2.88704 12.8819 4.16205C12.9819 4.5933 12.9819 5.33705 12.8819 5.78705C12.5819 7.0808 11.4819 8.1808 10.1882 8.4808C8.99442 8.7558 7.71942 8.38705 6.84442 7.5058C6.14442 6.81205 5.78817 5.9433 5.78817 4.97455C5.80067 2.62455 7.94442 0.949545 10.2507 1.48705Z" fill="#171617"/>
<path id="Vector_2" d="M5.46941 11.3934C4.94441 11.4684 4.21941 11.6997 3.65691 11.9684C1.62566 12.9372 0.300658 14.8121 0.0631579 17.0684C-0.0305921 17.9309 -0.0180921 19.3746 0.0881579 19.6184C0.219408 19.9309 0.413158 20.0684 0.719408 20.0684C1.04441 20.0684 1.28191 19.8809 1.37566 19.5434C1.40691 19.4184 1.43816 18.7934 1.43816 18.1559C1.43816 16.7746 1.52566 16.3309 1.97566 15.4121C2.48816 14.3747 3.60691 13.3934 4.73191 13.0059C5.50691 12.7309 5.83191 12.7184 9.66316 12.7434C13.6257 12.7684 13.5257 12.7559 14.4132 13.1622C15.4007 13.6059 16.2944 14.4621 16.7757 15.4246C17.2257 16.3246 17.3132 16.7746 17.3132 18.1559C17.3132 19.4246 17.3569 19.6871 17.6007 19.9184C17.8257 20.1246 18.2382 20.1309 18.4632 19.9184C18.7382 19.6621 18.7694 19.4371 18.7319 18.1059C18.6882 16.7434 18.6069 16.2559 18.3007 15.4246C17.8757 14.3059 16.9507 13.1184 16.0069 12.4809C15.4757 12.1184 14.5819 11.7059 13.9694 11.5309C13.4757 11.3872 13.4257 11.3872 9.56316 11.3747C7.41316 11.3684 5.57566 11.3809 5.46941 11.3934Z" fill="#171617"/>
</g>
</svg>
