<svg width="38" height="38" viewBox="0 0 38 38" fill="none" xmlns="http://www.w3.org/2000/svg">
<g id="pin(1) 1">
<g id="Group">
<path id="Vector" d="M17.9979 0.0445328C14.4354 0.378517 11.4963 1.7293 9.09908 4.12656C5.7815 7.44414 4.31939 12.209 5.26939 16.5582C5.64049 18.2207 6.20455 19.7199 7.05064 21.2488C7.54791 22.1469 17.3374 37.0203 17.6491 37.3543C18.421 38.1781 19.5788 38.1781 20.3506 37.3543C20.5362 37.1539 29.1085 24.225 30.296 22.3398C32.1663 19.3859 33.1163 16.2836 32.9975 13.5449C32.901 11.3629 32.4706 9.6336 31.5503 7.80782C30.8229 6.36055 30.0288 5.25469 28.9006 4.12656C26.7854 2.01875 24.1358 0.660549 21.1893 0.185551C20.4842 0.0742226 18.5768 -0.0148392 17.9979 0.0445328ZM20.9295 1.82578C24.8631 2.39727 28.5295 5.14336 30.1772 8.74297C31.0085 10.5539 31.3424 12.0531 31.3424 13.9902C31.3424 14.9031 31.3128 15.2668 31.1495 16.0313C30.7784 17.8051 30.1698 19.334 29.1307 21.0633C28.2104 22.607 19.1038 36.3301 18.9999 36.3301C18.896 36.3301 9.78931 22.607 8.869 21.0633C7.89674 19.4379 7.32525 18.0723 6.93931 16.4395C6.33814 13.8938 6.6276 11.3406 7.82252 8.74297C9.50728 5.06172 13.3147 2.27852 17.3299 1.78867C18.651 1.62539 19.6381 1.63282 20.9295 1.82578Z" fill="#3AC48A"/>
<path id="Vector_2" d="M17.738 6.71685C15.2294 7.16958 13.1587 8.8395 12.1494 11.2071C11.2142 13.4114 11.4591 16.0536 12.7728 18.0649C13.8341 19.6754 15.3259 20.7368 17.2927 21.2786C17.9755 21.4641 20.024 21.4641 20.7068 21.2786C22.6736 20.7368 24.1654 19.6754 25.2267 18.0649C26.2658 16.484 26.6517 14.4504 26.2732 12.6172C25.7314 9.97505 23.8611 7.85239 21.3228 6.98403C20.2466 6.62036 18.8513 6.51646 17.738 6.71685ZM19.7197 8.31997C20.9665 8.49067 22.0353 8.99536 22.9333 9.84146C24.7962 11.6004 25.2935 14.25 24.1951 16.5286C23.4677 18.0278 22.1318 19.1411 20.5064 19.6086C19.6826 19.8461 18.3169 19.8461 17.4931 19.6086C14.6208 18.7848 12.8099 15.9645 13.3146 13.0922C13.7451 10.6208 15.7267 8.67622 18.1833 8.32739C18.8587 8.23091 19.0591 8.23091 19.7197 8.31997Z" fill="#3AC48A"/>
</g>
</g>
</svg>
