<svg width="43" height="42" viewBox="0 0 43 42" fill="none" xmlns="http://www.w3.org/2000/svg">
<g id="Group">
<path id="Vector" d="M12.4693 1.24966C12.2373 1.38716 11.9537 1.62778 11.8506 1.79107C11.7474 1.94575 10.3638 5.50356 8.78259 9.69731C5.64587 17.9817 5.70603 17.8012 6.05837 18.5747C6.37634 19.2879 6.64275 19.434 9.84822 20.6372L12.8131 21.7543L9.03181 21.7973L5.25056 21.8403L4.83806 22.0809C4.36541 22.3559 4.05603 22.7856 3.91853 23.3442C3.84978 23.6192 3.83259 26.1887 3.84978 31.9379C3.87556 39.509 3.88416 40.1622 4.02166 40.4114L4.16775 40.6864L3.86697 40.7379C3.50603 40.8067 3.33416 41.0989 3.48025 41.3825L3.58337 41.5629H21.699C41.3357 41.5629 40.0638 41.5973 39.9951 41.1161C39.9435 40.7551 39.6771 40.7036 37.6318 40.7036H35.7326L35.8701 40.42C36.0849 40.0075 36.1279 38.4606 35.9302 38.2715C35.7498 38.0911 35.5092 38.0825 35.3373 38.2629C35.2342 38.3661 35.1998 38.5723 35.1998 39.1223C35.1998 39.9215 35.0967 40.2309 34.7185 40.5231L34.4865 40.7036H23.5553H12.6154L8.65369 35.2036L4.69197 29.7122V26.6356C4.69197 23.1895 4.70056 23.1379 5.30212 22.8114C5.57712 22.6653 6.10134 22.6567 16.431 22.6567H27.2677L31.2295 28.1567L35.1998 33.6567V35.1004C35.1998 36.3981 35.217 36.57 35.3545 36.6903C35.5607 36.8793 35.7412 36.8708 35.9131 36.6817C36.042 36.5356 36.0592 36.1231 36.0592 32.5653V28.6036L38.9467 20.9637C41.774 13.4872 41.8342 13.3239 41.7998 12.8083C41.7568 12.0606 41.4131 11.5278 40.7857 11.2098C40.5279 11.0809 38.8865 10.4364 37.1334 9.77466C35.3888 9.12153 31.0748 7.48872 27.5513 6.15669C13.5435 0.854343 13.9388 1.00044 13.3974 1.00044C13.0021 1.00044 12.8045 1.052 12.4693 1.24966ZM16.3365 2.83091L18.9146 3.8106L18.9404 4.3606C18.9576 4.66138 19.1123 8.70044 19.2842 13.3325L19.6021 21.7543L17.4795 21.7801L15.3568 21.7973L12.7099 20.8004C11.2576 20.2504 9.44431 19.5715 8.68806 19.2879C7.07244 18.6864 6.75447 18.4458 6.75447 17.827C6.75447 17.5692 7.51072 15.4551 9.599 9.94653C12.1342 3.21762 12.4693 2.39263 12.7271 2.13482C13.2084 1.68794 13.406 1.72231 16.3365 2.83091ZM26.8381 6.80122C30.6537 8.24497 33.8076 9.45669 33.8506 9.49966C33.8849 9.53403 34.7099 12.4989 35.6724 16.0739L37.4256 22.5793L36.7638 24.3325L36.1021 26.0856L36.0592 24.6504C36.0248 23.3958 35.9904 23.1723 35.8271 22.8715C35.5951 22.4333 35.3373 22.1926 34.856 21.9778C34.4951 21.8145 34.2974 21.7973 31.7451 21.7973H29.0209L26.3826 20.8004C24.5865 20.1301 23.6842 19.8208 23.5467 19.8551C23.2802 19.9239 23.1771 20.302 23.3748 20.4911C23.4521 20.577 24.1998 20.895 25.042 21.2129L26.5631 21.7887L23.5123 21.7715L20.4615 21.7543L20.1951 14.5356C20.0404 10.5653 19.8943 6.61216 19.8599 5.74419C19.8256 4.88482 19.8256 4.18013 19.8513 4.18013C19.8771 4.18013 23.0224 5.35747 26.8381 6.80122ZM37.7349 10.9176C40.0209 11.777 40.442 11.9661 40.6826 12.2153C41.1467 12.7137 41.1295 12.7825 39.4795 17.1739C38.6631 19.3309 37.9756 21.1098 37.9498 21.1098C37.924 21.1098 37.2881 18.8153 36.5404 16.0137C35.7842 13.2208 35.1052 10.677 35.0193 10.3848C34.9076 9.99809 34.899 9.852 34.9677 9.87778C35.0279 9.89497 36.274 10.3676 37.7349 10.9176ZM34.5982 22.8114C35.217 23.1208 35.1998 22.9833 35.1826 27.8129L35.1568 32.1356L31.8482 27.5465C30.0263 25.0286 28.4881 22.8973 28.4279 22.8114C28.3162 22.6653 28.4365 22.6567 31.3068 22.6567C33.9795 22.6567 34.3318 22.6739 34.5982 22.8114ZM8.17244 36.0028L11.5326 40.6606L8.47322 40.6864C5.07009 40.7122 5.16462 40.7208 4.84666 40.0934C4.70916 39.827 4.69197 39.4231 4.69197 35.5129C4.69197 33.1497 4.71775 31.2504 4.75212 31.2848C4.79509 31.3192 6.33337 33.4418 8.17244 36.0028Z" fill="#3AC48A" stroke="#3AC48A" stroke-width="0.3"/>
<path id="Vector_2" d="M12.0999 8.8208C11.2921 9.48252 10.6046 10.0669 10.5788 10.1099C10.5015 10.2388 11.1288 13.9942 11.2492 14.1231C11.3867 14.2606 14.721 15.5239 14.9531 15.5239C15.1335 15.5239 17.8663 13.3669 18.0726 13.0575C18.1585 12.9372 18.1156 12.5247 17.8663 11.0122C17.7031 9.97236 17.514 9.07002 17.4624 9.00986C17.3163 8.85518 14.0335 7.61768 13.7757 7.61768C13.6296 7.61768 13.0882 8.00439 12.0999 8.8208ZM15.2882 9.02705C16.0788 9.32783 16.7406 9.58564 16.7578 9.60283C16.8265 9.68877 17.2476 12.6021 17.2046 12.6794C17.0929 12.8599 14.9273 14.5786 14.8156 14.5786C14.7124 14.5786 12.0054 13.5817 11.9538 13.5302C11.9023 13.4786 11.4726 10.6083 11.4984 10.5052C11.5156 10.4364 12.0484 9.96377 12.6843 9.43955C13.3203 8.91533 13.8445 8.47705 13.8445 8.47705C13.8445 8.47705 14.4976 8.72627 15.2882 9.02705Z" fill="#3AC48A" stroke="#3AC48A" stroke-width="0.3"/>
<path id="Vector_3" d="M13.7669 9.3021C13.6037 9.46538 13.5865 9.80053 13.7412 9.91225C13.7927 9.96381 14.1966 10.1271 14.6177 10.2818C15.0474 10.4365 15.4169 10.5912 15.4513 10.6169C15.4857 10.6427 15.5716 11.038 15.649 11.4849C15.7263 11.9318 15.8037 12.3701 15.8294 12.4474C15.924 12.7482 16.4998 12.7396 16.5943 12.4302C16.6802 12.1638 16.3021 10.1701 16.1388 10.0154C16.0099 9.88647 14.1623 9.1646 13.9732 9.1646C13.9302 9.1646 13.8357 9.22475 13.7669 9.3021Z" fill="#3AC48A" stroke="#3AC48A" stroke-width="0.3"/>
<path id="Vector_4" d="M12.1598 10.5912C12.0653 10.7029 12.0825 10.9178 12.2286 11.8459C12.3317 12.4646 12.4692 13.0232 12.5294 13.092C12.5981 13.1521 13.1137 13.3842 13.6723 13.5904C14.6176 13.9599 14.695 13.9685 14.884 13.8482C15.1075 13.7021 15.159 13.367 14.9872 13.2209C14.927 13.1693 14.5145 12.9974 14.0762 12.8342C13.6294 12.6623 13.2512 12.5076 13.234 12.4904C13.2083 12.4646 13.1309 12.0607 13.0536 11.5795C12.9762 11.0982 12.8645 10.6428 12.7958 10.574C12.6325 10.4107 12.3059 10.4193 12.1598 10.5912Z" fill="#3AC48A" stroke="#3AC48A" stroke-width="0.3"/>
<path id="Vector_5" d="M9.4701 15.1114C9.29822 15.3606 9.29822 15.4638 9.48728 15.6356C9.66775 15.7903 15.0646 17.8442 15.3138 17.8442C15.7092 17.8442 15.8381 17.3372 15.5029 17.1224C15.2709 16.9677 9.8826 14.9224 9.71931 14.9224C9.65056 14.9224 9.53885 15.0083 9.4701 15.1114Z" fill="#3AC48A" stroke="#3AC48A" stroke-width="0.3"/>
<path id="Vector_6" d="M8.72235 16.9934C8.49891 17.4145 8.62782 17.4833 11.6958 18.6434C14.4458 19.6747 14.6091 19.7263 14.8067 19.6059C15.0216 19.4598 15.0731 19.1247 14.9013 18.9786C14.7036 18.8153 9.29813 16.813 9.05751 16.813C8.90282 16.813 8.7911 16.8817 8.72235 16.9934Z" fill="#3AC48A" stroke="#3AC48A" stroke-width="0.3"/>
<path id="Vector_7" d="M22.8934 9.77458C22.7129 9.87771 22.6871 10.3074 22.8504 10.4277C22.902 10.4793 24.8785 11.2355 27.2246 12.1293C30.3699 13.3152 31.5559 13.7277 31.7192 13.6847C32.0199 13.6074 32.1059 13.2293 31.8738 13.0316C31.7106 12.9027 23.2715 9.68005 23.1082 9.68005C23.0738 9.68005 22.9707 9.72302 22.8934 9.77458Z" fill="#3AC48A" stroke="#3AC48A" stroke-width="0.3"/>
<path id="Vector_8" d="M23.0996 13.1692C22.8933 13.3153 22.8503 13.6505 23.0222 13.788C23.2027 13.9341 31.5644 17.0708 31.7792 17.0708C31.891 17.0708 32.0285 17.0278 32.0886 16.9677C32.2261 16.8302 32.2175 16.5122 32.08 16.3919C31.9941 16.3317 23.3917 13.0317 23.3058 13.0317C23.2972 13.0317 23.2027 13.0919 23.0996 13.1692Z" fill="#3AC48A" stroke="#3AC48A" stroke-width="0.3"/>
<path id="Vector_9" d="M23.1856 16.5722C23.0223 16.7355 23.0653 17.0535 23.2802 17.191C23.6927 17.4574 31.9512 20.5167 32.1145 20.4652C32.3036 20.405 32.4239 20.0183 32.3036 19.8378C32.2177 19.6917 23.77 16.4691 23.4778 16.4691C23.3747 16.4691 23.2458 16.5121 23.1856 16.5722Z" fill="#3AC48A" stroke="#3AC48A" stroke-width="0.3"/>
<path id="Vector_10" d="M17.4708 24.5216C16.113 26.8505 15.1763 28.5177 15.1763 28.6294C15.1763 28.7153 15.6919 29.6692 16.3192 30.7521C17.1099 32.1356 17.5138 32.7544 17.6513 32.806C17.763 32.8489 18.8286 32.8833 20.0317 32.8833C21.9739 32.8833 22.2231 32.8661 22.3778 32.7286C22.6271 32.5138 24.7153 28.8528 24.7153 28.638C24.7153 28.5349 24.1997 27.5638 23.5724 26.481L22.4294 24.5044L19.9716 24.4786C18.6138 24.47 17.488 24.4872 17.4708 24.5216ZM22.6786 26.6356C23.0911 27.3489 23.5208 28.0966 23.6325 28.2856L23.8388 28.6294L22.8677 30.3052L21.8966 31.981L19.963 32.0067L18.0294 32.0239L17.0755 30.3653C16.5513 29.4458 16.1216 28.6724 16.1216 28.6294C16.1216 28.5606 17.806 25.613 17.9521 25.4239C18.0122 25.3466 18.5278 25.3208 19.9802 25.3208H21.9224L22.6786 26.6356Z" fill="#3AC48A" stroke="#3AC48A" stroke-width="0.3"/>
<path id="Vector_11" d="M18.6138 26.2059C18.3732 26.3262 18.2873 26.6442 18.442 26.8333C18.5279 26.9278 18.8029 26.9536 19.6967 26.9536H20.8396L21.0029 27.1856C21.0888 27.3231 21.3638 27.7786 21.6131 28.2169C21.8709 28.6551 22.1287 29.0161 22.2232 29.0419C22.4467 29.102 22.7388 28.87 22.7388 28.6466C22.7388 28.4059 21.6818 26.5497 21.3982 26.2833C21.192 26.1028 21.106 26.0942 20.006 26.0942C19.2326 26.0942 18.7513 26.1372 18.6138 26.2059Z" fill="#3AC48A" stroke="#3AC48A" stroke-width="0.3"/>
<path id="Vector_12" d="M17.2559 28.3459C17.0669 28.5349 17.1442 28.7756 17.7286 29.781C18.5794 31.2763 18.4075 31.1646 19.92 31.1646C20.6419 31.1646 21.2778 31.1216 21.3723 31.0787C21.5614 30.9756 21.5958 30.5459 21.4239 30.4084C21.3551 30.3482 20.8309 30.2966 20.152 30.2881L19.0005 30.2623L18.4075 29.2482C17.8919 28.3631 17.7887 28.2427 17.5911 28.2427C17.4622 28.2427 17.3161 28.2857 17.2559 28.3459Z" fill="#3AC48A" stroke="#3AC48A" stroke-width="0.3"/>
<path id="Vector_13" d="M13.6125 34.0091C13.3976 34.1294 13.4062 34.5677 13.6211 34.688C13.8789 34.8169 26.1937 34.8083 26.3312 34.6708C26.3914 34.6107 26.4343 34.4646 26.4343 34.3442C26.4343 34.2239 26.3914 34.0778 26.3312 34.0177C26.1937 33.8802 13.8359 33.8716 13.6125 34.0091Z" fill="#3AC48A" stroke="#3AC48A" stroke-width="0.3"/>
<path id="Vector_14" d="M13.6467 36.1146C13.4404 36.2606 13.3974 36.57 13.5607 36.7333C13.6381 36.8106 15.1764 36.8364 19.9545 36.8364C26.2193 36.8364 26.2537 36.8364 26.374 36.656C26.5373 36.4239 26.4599 36.1575 26.2021 36.0544C26.0818 36.0114 23.4264 35.9771 19.9201 35.9771C14.5576 35.9771 13.8185 35.9942 13.6467 36.1146Z" fill="#3AC48A" stroke="#3AC48A" stroke-width="0.3"/>
<path id="Vector_15" d="M13.561 38.2286C13.3977 38.3919 13.4321 38.7958 13.6211 38.8989C13.7328 38.9505 14.9961 38.9849 17.136 38.9849C20.2641 38.9849 20.4875 38.9763 20.6164 38.8302C20.7969 38.6325 20.8055 38.4349 20.625 38.263C20.5133 38.1427 20.0664 38.1255 17.0758 38.1255C14.5406 38.1255 13.6383 38.1513 13.561 38.2286Z" fill="#3AC48A" stroke="#3AC48A" stroke-width="0.3"/>
<path id="Vector_16" d="M1.18573 40.8409C0.979481 40.987 0.936512 41.2963 1.09979 41.4596C1.15995 41.5198 1.43495 41.5627 1.73573 41.5627C2.18261 41.5627 2.29432 41.5284 2.39745 41.3823C2.56073 41.1502 2.48339 40.8838 2.22557 40.7807C1.90761 40.6604 1.40057 40.6862 1.18573 40.8409Z" fill="#3AC48A" stroke="#3AC48A" stroke-width="0.3"/>
<path id="Vector_17" d="M41.0607 40.8411C40.8545 40.9872 40.8115 41.2966 40.9748 41.4599C41.1123 41.5974 42.5217 41.5974 42.6592 41.4599C42.8224 41.2966 42.7795 40.9872 42.5732 40.8411C42.4443 40.7466 42.1865 40.7036 41.817 40.7036C41.4474 40.7036 41.1896 40.7466 41.0607 40.8411Z" fill="#3AC48A" stroke="#3AC48A" stroke-width="0.3"/>
</g>
</svg>
