<svg width="38" height="38" viewBox="0 0 38 38" fill="none" xmlns="http://www.w3.org/2000/svg">
<g id="seller 1">
<g id="Group">
<path id="Vector" d="M17.7008 1.91494C17.0031 2.09307 16.5578 2.3083 15.9863 2.71651C13.6559 4.37901 13.359 7.8376 15.3703 9.88603L15.8602 10.3907L15.5559 10.4724C14.643 10.7024 14.0492 10.9919 13.3144 11.5485C12.3125 12.313 11.6223 13.3446 11.1992 14.7325C11.1398 14.9181 11.0879 15.8087 11.0656 17.1372L11.0211 19.2524L10.2269 19.2747C6.46406 19.3786 3.20585 21.954 2.24843 25.5833C2.01835 26.4739 1.92929 28.1735 2.07773 29.079C2.49335 31.6767 4.14843 33.9849 6.48632 35.2243C8.66093 36.3747 11.3254 36.5231 13.5891 35.6028C17.9828 33.8364 20.0461 28.9528 18.2945 24.47C18.2426 24.3513 18.3391 24.3438 19.5859 24.3438H20.9219L20.9441 29.0716L20.9664 33.8067L21.1371 34.2298C21.4637 35.0388 22.1094 35.6845 22.9184 36.011L23.3414 36.1817L28.2992 36.204C33.7098 36.2263 33.7617 36.2188 34.4816 35.8032C34.9715 35.5138 35.4539 34.9868 35.7211 34.445L35.9586 33.9552L35.9809 27.6911C35.9957 21.9169 35.9883 21.4196 35.8769 21.2935C35.7582 21.1599 35.5355 21.1524 31.1566 21.1524H26.5699V18.4731C26.5699 16.8774 26.5402 15.586 26.4883 15.2669C26.132 12.9587 24.3656 11.0438 22.0574 10.4649L21.7383 10.3833L22.243 9.84892C23.6531 8.35713 23.9723 6.28643 23.0742 4.46807C22.7254 3.75557 22.05 2.98369 21.3894 2.55322C20.3949 1.88525 18.8437 1.61807 17.7008 1.91494ZM19.6602 2.93174C21.3598 3.33252 22.5176 4.80947 22.5176 6.56846C22.5176 9.56689 19.2297 11.3185 16.7211 9.6708C14.1754 7.99346 14.6727 4.05986 17.5523 3.05791C18.2945 2.79815 18.918 2.76104 19.6602 2.93174ZM22.191 11.5931C23.0371 11.8899 23.4379 12.1423 24.0836 12.7954C24.7219 13.4337 25.1078 14.0646 25.3602 14.881C25.4789 15.2817 25.4937 15.6231 25.4937 18.2208V21.1153L24.4027 21.1376L23.3043 21.1599V19.5345C23.3043 17.9981 23.2969 17.8942 23.1484 17.7087C22.9777 17.4935 22.6809 17.4489 22.4434 17.6196C22.3098 17.7161 22.3023 17.8497 22.2652 19.4231L22.2281 21.1153L21.6863 21.1524C20.9441 21.2044 20.9293 21.2341 20.9293 22.3919V23.3048H19.3113H17.6934L17.3668 22.8372C16.9809 22.288 16.2016 21.4642 15.7191 21.0931L15.3629 20.8259V19.3638C15.3629 18.0056 15.3555 17.8942 15.207 17.7087C15.0215 17.4712 14.6875 17.4489 14.4723 17.6642C14.3387 17.7978 14.3238 17.9091 14.3238 19.0001V20.1876L14.0492 20.0466C13.7078 19.8833 12.7281 19.5493 12.357 19.4751L12.0973 19.4306V17.4786C12.0973 15.779 12.1121 15.4599 12.2457 14.9552C12.6094 13.545 13.6187 12.3501 14.9621 11.7563C15.7934 11.3853 16.0754 11.363 18.9625 11.3778L21.6344 11.3927L22.191 11.5931ZM12.075 20.4919C14.2348 20.9892 16.0012 22.3399 17.0328 24.2919C18.2871 26.6669 18.1461 29.5392 16.6617 31.8103C15.9047 32.9755 14.8805 33.8513 13.5519 34.4747C12.4609 34.9942 11.7484 35.1427 10.4273 35.1353C9.47734 35.1278 9.21015 35.0981 8.60898 34.9423C6.43437 34.3634 4.7496 32.9755 3.78476 30.9864C3.25039 29.9028 3.10937 29.3239 3.06484 28.1067C3.02031 26.9563 3.10195 26.2587 3.3914 25.3903C4.28945 22.6739 6.79062 20.6552 9.62578 20.3435C10.3828 20.2544 11.318 20.3138 12.075 20.4919ZM25.6051 24.2845C25.6051 25.5462 25.5754 26.4962 25.5234 26.6743C25.4269 27.0306 24.9148 27.5872 24.5289 27.7653C23.6977 28.1438 22.6215 27.7505 22.1687 26.9044C22.0129 26.6224 22.0055 26.4962 21.9832 24.3958L21.9609 22.1915H23.7793H25.6051V24.2845ZM30.266 24.4403L30.2437 26.6966L30.0211 27.0603C29.2863 28.2478 27.5125 28.1661 26.8445 26.9118C26.6887 26.6224 26.6812 26.5036 26.659 24.3958L26.6367 22.1915H28.4625H30.2883L30.266 24.4403ZM34.9418 24.4403L34.9195 26.6966L34.6969 27.0603C34.0734 28.0548 32.7227 28.1958 31.8691 27.3423C31.3644 26.8376 31.3199 26.5927 31.3199 24.2177V22.1915H33.1383H34.9641L34.9418 24.4403ZM27.2824 28.6931C27.6758 28.886 27.7945 28.9083 28.4625 28.9083C29.123 28.9083 29.2566 28.886 29.6574 28.7005C29.9098 28.5817 30.266 28.3368 30.459 28.1364L30.8152 27.7802L31.1789 28.1364C31.9508 28.886 33.0566 29.1384 34.066 28.797C34.3258 28.7079 34.6375 28.5669 34.7488 28.4927L34.9566 28.3442V30.9864C34.9566 33.8661 34.9566 33.881 34.5187 34.4302C34.4 34.5786 34.1254 34.8013 33.9027 34.9274L33.5094 35.1427L28.6184 35.1649C22.9926 35.1872 23.2523 35.2169 22.5918 34.5489C21.9832 33.9478 21.9684 33.8438 21.9684 30.8603C21.9684 29.4798 21.9832 28.3517 22.0055 28.3517C22.0203 28.3517 22.1613 28.4333 22.3098 28.5372C23.0297 29.0271 24.1875 29.079 25.0262 28.6634C25.2859 28.5372 25.6348 28.2849 25.8129 28.1142L26.1246 27.7876L26.4883 28.1364C26.6812 28.322 27.0375 28.5743 27.2824 28.6931Z" fill="white"/>
<path id="Vector_2" d="M9.09111 21.4197C6.76806 21.9392 4.89775 23.7056 4.22236 26.0138C3.88095 27.1865 3.96259 28.8267 4.42275 30.0513C4.97939 31.5283 6.24111 32.8791 7.72548 33.5841C9.36572 34.356 11.4438 34.3783 13.0915 33.6287C14.8579 32.8271 16.1938 31.2388 16.7134 29.324C16.936 28.5076 16.936 26.9861 16.7134 26.1623C16.4833 25.3162 15.9786 24.3216 15.4517 23.6759C14.613 22.6369 13.663 21.9912 12.3196 21.5607C11.7778 21.3826 11.5329 21.3529 10.6497 21.3306C9.90009 21.3084 9.46962 21.3381 9.09111 21.4197ZM12.1192 22.6146C13.0321 22.9338 13.522 23.2455 14.2567 23.9728C15.3552 25.0638 15.8227 26.1474 15.8376 27.6838C15.845 28.5892 15.7634 29.0271 15.4591 29.7916C14.8431 31.3131 13.3661 32.5822 11.7259 33.0052C11.0802 33.1685 9.84814 33.1685 9.16533 32.9978C6.65673 32.3818 4.93486 30.0662 5.06845 27.4685C5.14267 26.0138 5.61025 24.9674 6.679 23.8912C7.21337 23.3568 7.43603 23.1935 8.02236 22.9041C9.03173 22.4068 9.3583 22.34 10.5013 22.3623C11.3548 22.3845 11.5403 22.4142 12.1192 22.6146Z" fill="white"/>
<path id="Vector_3" d="M10.3381 23.2306C10.0932 23.3271 10.0189 23.5423 10.0189 24.1435V24.7002L9.67012 24.7521C8.72754 24.8931 8.13379 25.5685 8.13379 26.4963C8.13379 27.2088 8.46035 27.7431 9.09121 28.0771C9.33613 28.2033 9.55879 28.2404 10.3678 28.2627C11.3029 28.2923 11.3623 28.3072 11.5404 28.4853C11.8225 28.7673 11.8002 29.2349 11.4959 29.4947C11.2732 29.6877 11.2658 29.6877 9.91504 29.6877C8.65332 29.6877 8.54199 29.6951 8.35645 29.8435C8.11895 30.0291 8.09668 30.363 8.31191 30.5783C8.43809 30.7045 8.55684 30.7267 9.23965 30.7267H10.0189V31.3427C10.0189 31.892 10.0412 31.981 10.1896 32.122C10.4123 32.3373 10.6498 32.3298 10.8725 32.0998C11.0357 31.9439 11.058 31.8548 11.058 31.3427V30.7638L11.4365 30.6748C12.201 30.4892 12.7057 29.9029 12.7502 29.131C12.7873 28.5521 12.676 28.1959 12.3346 27.8173C11.9041 27.3423 11.7408 27.283 10.5904 27.2384L9.55879 27.2013L9.33613 26.949C9.15059 26.7412 9.1209 26.6595 9.15801 26.4369C9.18027 26.2884 9.28418 26.088 9.38809 25.9841C9.57363 25.7986 9.60332 25.7912 10.8873 25.7541L12.1936 25.717L12.342 25.524C12.4533 25.3607 12.4682 25.2791 12.4162 25.1158C12.3197 24.8263 12.0748 24.715 11.5256 24.715H11.058V24.1287C11.058 23.6759 11.0283 23.5127 10.9318 23.3939C10.7686 23.2084 10.5533 23.149 10.3381 23.2306Z" fill="white"/>
</g>
</g>
</svg>
