<svg width="21" height="21" viewBox="0 0 21 21" fill="none" xmlns="http://www.w3.org/2000/svg">
<g id="Group">
<path id="Vector" d="M7.7694 0.0640659C3.74658 0.724014 0.659177 3.82864 0.0738317 7.7998C-0.0524192 8.66634 -0.0122485 10.21 0.159912 11.0135C1.22731 15.9602 5.96171 19.0935 10.9544 18.1409C12.2857 17.8884 13.6515 17.2571 14.8337 16.3332L15.1838 16.0635L17.5596 18.445C18.868 19.7535 20.0043 20.861 20.0903 20.9069C20.6585 21.2054 21.2151 20.6487 20.9167 20.0806C20.8708 19.9945 19.7632 18.8582 18.4548 17.5498L16.0733 15.174L16.343 14.8239C18.0588 12.6203 18.6901 9.92885 18.1277 7.23741C17.3932 3.70813 14.5984 0.924868 11.0175 0.150146C10.3116 -0.00479889 8.46952 -0.0507069 7.7694 0.0640659ZM10.7937 1.36101C11.7979 1.57334 12.6588 1.93488 13.5138 2.49726C15.2985 3.68517 16.4979 5.44695 16.957 7.55878C17.0833 8.13838 17.1292 9.52141 17.0431 10.1584C16.5611 13.7565 13.7663 16.5513 10.1682 17.0333C9.53117 17.1194 8.14815 17.0735 7.56854 16.9473C4.41801 16.2644 2.03646 13.8885 1.3593 10.7552C1.19287 9.97476 1.17566 8.41958 1.3306 7.65634C1.97907 4.44268 4.49261 1.93488 7.65462 1.33805C8.3777 1.20033 8.40639 1.19459 9.34753 1.21754C9.96157 1.23476 10.4092 1.27493 10.7937 1.36101Z" fill="white"/>
</g>
</svg>
