<svg width="19" height="19" viewBox="0 0 19 19" fill="none" xmlns="http://www.w3.org/2000/svg">
<g id="Frame">
<path id="Vector" d="M13.063 11.875C12.667 11.8749 12.2749 11.9542 11.91 12.1083C11.5452 12.2625 11.2149 12.4883 10.9389 12.7723L7.51742 10.5732C7.78656 9.88304 7.78656 9.11695 7.51742 8.42679L10.9389 6.22769C11.4528 6.75414 12.1439 7.071 12.8782 7.11685C13.6125 7.1627 14.3377 6.93427 14.9131 6.47584C15.4885 6.01741 15.8732 5.36165 15.9926 4.63569C16.112 3.90973 15.9576 3.1653 15.5593 2.54672C15.161 1.92814 14.5473 1.47948 13.837 1.28773C13.1267 1.09598 12.3705 1.1748 11.715 1.5089C11.0596 1.84301 10.5515 2.4086 10.2893 3.09602C10.0272 3.78345 10.0296 4.54372 10.2962 5.22945L6.87469 7.42855C6.46267 7.00556 5.93388 6.71505 5.3559 6.59414C4.77792 6.47324 4.17702 6.52744 3.63001 6.74982C3.083 6.9722 2.61472 7.35265 2.28506 7.84254C1.95539 8.33244 1.7793 8.90951 1.7793 9.5C1.7793 10.0905 1.95539 10.6676 2.28506 11.1574C2.61472 11.6473 3.083 12.0278 3.63001 12.2502C4.17702 12.4726 4.77792 12.5268 5.3559 12.4058C5.93388 12.2849 6.46267 11.9944 6.87469 11.5714L10.2962 13.7705C10.067 14.3617 10.033 15.0107 10.1994 15.6226C10.3657 16.2344 10.7236 16.7769 11.2206 17.1707C11.7175 17.5644 12.3275 17.7887 12.9612 17.8107C13.5949 17.8327 14.2189 17.6512 14.742 17.2929C15.2651 16.9345 15.6597 16.4181 15.868 15.8193C16.0764 15.2204 16.0875 14.5706 15.8999 13.965C15.7122 13.3593 15.3355 12.8297 14.825 12.4536C14.3146 12.0775 13.6971 11.8748 13.063 11.875ZM13.063 2.375C13.4153 2.375 13.7597 2.47947 14.0527 2.67519C14.3456 2.87092 14.5739 3.14911 14.7087 3.47459C14.8435 3.80007 14.8788 4.15822 14.8101 4.50375C14.7413 4.84928 14.5717 5.16667 14.3226 5.41578C14.0735 5.66489 13.7561 5.83454 13.4106 5.90327C13.065 5.972 12.7069 5.93673 12.3814 5.80191C12.0559 5.66709 11.7777 5.43878 11.582 5.14586C11.3863 4.85293 11.2818 4.50854 11.2818 4.15625C11.2818 3.68383 11.4695 3.23076 11.8035 2.89671C12.1376 2.56266 12.5906 2.375 13.063 2.375ZM4.75054 11.2812C4.39825 11.2812 4.05386 11.1768 3.76094 10.9811C3.46801 10.7853 3.2397 10.5071 3.10488 10.1817C2.97007 9.85617 2.93479 9.49802 3.00352 9.15249C3.07225 8.80696 3.2419 8.48957 3.49101 8.24046C3.74012 7.99135 4.05751 7.8217 4.40304 7.75297C4.74857 7.68424 5.10672 7.71952 5.4322 7.85434C5.75768 7.98915 6.03587 8.21746 6.2316 8.51039C6.42733 8.80331 6.53179 9.1477 6.53179 9.5C6.53179 9.97241 6.34413 10.4255 6.01008 10.7595C5.67603 11.0936 5.22296 11.2812 4.75054 11.2812ZM13.063 16.625C12.7107 16.625 12.3664 16.5205 12.0734 16.3248C11.7805 16.1291 11.5522 15.8509 11.4174 15.5254C11.2826 15.1999 11.2473 14.8418 11.316 14.4962C11.3848 14.1507 11.5544 13.8333 11.8035 13.5842C12.0526 13.3351 12.37 13.1655 12.7155 13.0967C13.0611 13.028 13.4192 13.0633 13.7447 13.1981C14.0702 13.3329 14.3484 13.5612 14.5441 13.8541C14.7398 14.1471 14.8443 14.4914 14.8443 14.8437C14.8443 15.3162 14.6566 15.7692 14.3226 16.1033C13.9885 16.4373 13.5355 16.625 13.063 16.625Z" fill="#A2A2A2"/>
</g>
</svg>
