<svg width="24" height="24" viewBox="0 0 24 24" fill="none" xmlns="http://www.w3.org/2000/svg">
<g id="Frame">
<path id="Vector" d="M22.4258 9.121C22.335 8.84104 22.1638 8.594 21.9336 8.41063C21.7034 8.22726 21.4243 8.11566 21.1311 8.08975L15.5633 7.60974L13.3808 2.41974C13.2672 2.14742 13.0755 1.9148 12.8299 1.75117C12.5844 1.58755 12.2959 1.50024 12.0008 1.50024C11.7057 1.50024 11.4172 1.58755 11.1717 1.75117C10.9261 1.9148 10.7344 2.14742 10.6208 2.41974L8.44486 7.60974L2.87049 8.09256C2.57615 8.11729 2.29566 8.22838 2.0642 8.41188C1.83274 8.59539 1.66061 8.84315 1.5694 9.1241C1.47819 9.40504 1.47195 9.70666 1.55148 9.99113C1.631 10.2756 1.79275 10.5303 2.01643 10.7232L6.24549 14.4188L4.97799 19.9069C4.91097 20.1941 4.93009 20.4947 5.03297 20.7711C5.13585 21.0475 5.31792 21.2874 5.55642 21.4609C5.79492 21.6344 6.07926 21.7337 6.3739 21.7464C6.66854 21.7592 6.9604 21.6848 7.21299 21.5326L11.9942 18.6263L16.7858 21.5326C17.0384 21.6848 17.3303 21.7592 17.6249 21.7464C17.9195 21.7337 18.2039 21.6344 18.4424 21.4609C18.6809 21.2874 18.8629 21.0475 18.9658 20.7711C19.0687 20.4947 19.0878 20.1941 19.0208 19.9069L17.7542 14.4132L21.9824 10.7232C22.206 10.5296 22.3674 10.2742 22.4463 9.98914C22.5252 9.70406 22.5181 9.40202 22.4258 9.121ZM20.9989 9.58974L16.7708 13.2797C16.565 13.4587 16.4119 13.6905 16.328 13.95C16.2441 14.2095 16.2325 14.487 16.2946 14.7526L17.5649 20.2501L12.7771 17.3438C12.5435 17.2016 12.2752 17.1263 12.0017 17.1263C11.7282 17.1263 11.46 17.2016 11.2264 17.3438L6.44518 20.2501L7.70705 14.7563C7.76907 14.4907 7.7575 14.2132 7.67358 13.9537C7.58966 13.6942 7.43658 13.4625 7.2308 13.2835L3.0008 9.59537C3.00046 9.59257 3.00046 9.58974 3.0008 9.58693L8.5733 9.10506C8.84537 9.08108 9.10572 8.98327 9.32628 8.82219C9.54684 8.6611 9.71923 8.44286 9.82487 8.191L12.0008 3.00756L14.1758 8.191C14.2814 8.44286 14.4538 8.6611 14.6744 8.82219C14.8949 8.98327 15.1553 9.08108 15.4274 9.10506L21.0008 9.58693C21.0008 9.58693 21.0008 9.59256 21.0008 9.59349L20.9989 9.58974Z" fill="#3AC48A"/>
</g>
</svg>
