<svg width="42" height="42" viewBox="0 0 42 42" fill="none" xmlns="http://www.w3.org/2000/svg">
<g id="technical-support 1">
<g id="Group">
<path id="Vector" d="M19.6551 3.04295C15.7237 3.4157 12.5799 4.66054 9.68935 6.9955C4.09812 11.4966 1.74206 18.8391 3.65504 25.8017C4.19658 27.7991 5.139 29.7613 6.36274 31.4844L6.84802 32.1596L6.6722 32.5112C6.12362 33.6224 6.35571 34.9798 7.24187 35.873C8.86649 37.4906 11.6023 36.731 12.172 34.5016C12.7417 32.258 10.5685 30.2677 8.36715 31.0132C7.81154 31.2031 7.92407 31.2664 7.3544 30.4576C5.91967 28.4039 4.97021 25.9776 4.55526 23.3191C4.37944 22.2008 4.38647 19.7393 4.5623 18.607C5.70164 11.2786 11.2647 5.72956 18.6353 4.56208C19.7114 4.39329 22.2714 4.39329 23.3123 4.56208C24.7329 4.8012 24.6134 4.8012 24.8947 4.51988C25.2463 4.16823 25.1971 3.66186 24.7892 3.45087C24.1984 3.14141 21.125 2.89526 19.6551 3.04295ZM10.1324 32.5042C10.5614 32.7644 10.8639 33.2989 10.8639 33.7983C10.8639 34.7899 9.87221 35.5354 8.89462 35.2752C8.46561 35.1627 7.9522 34.6492 7.83967 34.2202C7.56539 33.2004 8.36715 32.1947 9.401 32.2651C9.68232 32.2862 9.89331 32.3565 10.1324 32.5042Z" fill="#3AC48A"/>
<path id="Vector_2" d="M27.1169 4.35935C26.723 4.57737 26.6527 5.05562 26.9621 5.40024C27.1309 5.59013 27.2153 5.63232 27.4615 5.63232C27.7076 5.63232 27.792 5.59013 27.9679 5.3932C28.1507 5.18925 28.1788 5.11892 28.1437 4.86573C28.0734 4.35935 27.574 4.10616 27.1169 4.35935Z" fill="#3AC48A"/>
<path id="Vector_3" d="M31.8924 5.35071C30.535 5.73753 29.6207 7.01753 29.7262 8.38897C29.881 10.3441 31.7728 11.6101 33.6155 10.9841C34.1781 10.7872 34.0515 10.7028 34.7337 11.7156C36.1403 13.8044 37.0265 16.1042 37.4274 18.6782C37.5962 19.8106 37.5962 22.2088 37.4274 23.32C36.5764 28.8198 33.2779 33.3913 28.3759 35.8458C25.2392 37.4212 21.6734 37.9416 18.1359 37.3438C17.5451 37.2454 17.4677 37.2454 17.2708 37.3438C17.0035 37.4845 16.9121 37.6533 16.9121 38.0049C16.9121 38.23 16.9543 38.3214 17.1161 38.4621C17.2286 38.5535 17.4326 38.652 17.5591 38.6801C19.8027 39.095 22.1095 39.095 24.3319 38.6871C28.5166 37.9135 32.3706 35.5856 35.0713 32.2168C40.0788 25.9504 40.3039 17.0818 35.6129 10.5059L35.1276 9.8237L35.2682 9.59161C35.3386 9.46502 35.4581 9.15556 35.5214 8.90238C35.8871 7.48171 35.0854 5.96962 33.6999 5.44214C33.2146 5.25225 32.3917 5.21709 31.8924 5.35071ZM33.1232 6.72918C33.6788 6.88391 34.2133 7.60127 34.2133 8.19908C34.2133 9.0571 33.4186 9.8026 32.5676 9.73227C31.7869 9.66897 31.1961 9.0782 31.1328 8.29754C31.1047 7.98809 31.1399 7.84743 31.2876 7.53798C31.6322 6.83467 32.3495 6.51819 33.1232 6.72918Z" fill="#3AC48A"/>
<path id="Vector_4" d="M18.4103 8.34105C18.136 8.50281 18.1149 8.59424 18.0868 9.5226L18.0727 10.247L17.4186 10.465C17.0599 10.5846 16.4621 10.8307 16.0964 11.0066L15.4353 11.3371L14.9289 10.8237C14.3804 10.2681 14.1342 10.1274 13.8388 10.2048C13.5645 10.2681 10.3294 13.4962 10.2309 13.7987C10.1184 14.1292 10.2661 14.4035 10.8428 14.9732L11.328 15.4514L10.9975 16.1336C10.8146 16.5064 10.5685 17.0971 10.4489 17.4488L10.2379 18.0818L9.39397 18.1169C8.12803 18.1662 8.23352 17.927 8.20539 20.8739C8.19133 22.5547 8.21242 23.3354 8.26869 23.4761C8.40232 23.8066 8.59924 23.8769 9.45727 23.898L10.245 23.9191L10.47 24.5943C10.5966 24.9671 10.8428 25.5578 11.0186 25.9095L11.3351 26.5425L10.8217 27.0559C10.259 27.6115 10.1184 27.8576 10.1957 28.153C10.259 28.4273 13.4872 31.6625 13.7896 31.7609C14.1201 31.8735 14.3944 31.7258 14.9711 31.142L15.4564 30.6497L16.0261 30.9381C16.3426 31.0928 16.9263 31.339 17.3342 31.4867L18.0727 31.7469L18.0868 32.4713C18.1149 33.4067 18.136 33.4981 18.4103 33.6598C18.6213 33.7935 18.776 33.8005 20.9914 33.8005C24.0296 33.8005 23.8608 33.8779 23.896 32.4713L23.9101 31.7469L24.6556 31.4867C25.0635 31.339 25.6543 31.0928 25.9637 30.9381L26.5334 30.6497L27.0116 31.142C27.5883 31.7258 27.8626 31.8735 28.1932 31.7609C28.4956 31.6625 31.7237 28.4273 31.787 28.153C31.8644 27.8576 31.7237 27.6115 31.1611 27.0559L30.6477 26.5425L30.9642 25.9095C31.14 25.5578 31.3862 24.9671 31.5127 24.5943L31.7378 23.9191L32.5255 23.898C33.3835 23.8769 33.5805 23.8066 33.7141 23.4761C33.7703 23.3354 33.7914 22.5547 33.7774 20.8739C33.7492 17.927 33.8547 18.1662 32.5888 18.1169L31.7448 18.0818L31.5338 17.4488C31.4143 17.0971 31.1681 16.5064 30.9853 16.1336L30.6547 15.4514L31.14 14.9732C31.7167 14.4035 31.8644 14.1292 31.7519 13.7987C31.6534 13.4962 28.4182 10.2681 28.1439 10.2048C27.8486 10.1274 27.6024 10.2681 27.0538 10.8237L26.5475 11.3371L25.8864 11.0066C25.5206 10.8307 24.9228 10.5846 24.5641 10.465L23.9101 10.247L23.896 9.5226C23.8679 8.59424 23.8468 8.50281 23.5725 8.34105C23.3615 8.20743 23.2068 8.2004 20.9914 8.2004C18.776 8.2004 18.6213 8.20743 18.4103 8.34105ZM22.4824 10.3455C22.5035 11.0277 22.5175 11.091 22.6863 11.2597C22.8059 11.3863 23.0521 11.4918 23.4107 11.5833C24.2899 11.8083 25.5558 12.3499 26.1606 12.7648C26.2802 12.8492 26.4842 12.9125 26.6459 12.9125C26.885 12.9125 26.9694 12.8562 27.4195 12.4202C27.7009 12.1459 27.9611 11.9279 27.9963 11.9279C28.0314 11.9279 28.5167 12.385 29.0723 12.9406L30.0921 13.9604L29.5857 14.4879C28.9316 15.1771 28.9246 15.3108 29.431 16.1969C29.8248 16.8861 30.1132 17.5824 30.3804 18.5178C30.6407 19.418 30.7251 19.4813 31.6464 19.5095L32.3848 19.5376V21.0075V22.4774H31.7167C30.6758 22.4774 30.6688 22.4844 30.2749 23.8137C30.064 24.531 29.7686 25.2203 29.3888 25.8673C28.9387 26.655 28.9527 26.7956 29.5716 27.4286C29.8459 27.7099 30.064 27.9702 30.064 28.0053C30.064 28.0405 29.6068 28.5258 29.0512 29.0814L28.0314 30.1012L27.511 29.6018C26.8921 29.0181 26.7162 28.9548 26.2661 29.1869C26.0903 29.2783 25.6683 29.4963 25.3167 29.6792C24.9721 29.862 24.3672 30.1012 23.9804 30.2207C22.7285 30.6075 22.6723 30.6286 22.5668 30.8888C22.5105 31.0295 22.4683 31.3741 22.4683 31.7609V32.3939H20.9914H19.5145V31.7609C19.5145 31.3741 19.4723 31.0295 19.416 30.8888C19.3105 30.6286 19.2894 30.6216 17.9813 30.2137C17.5804 30.0871 16.9826 29.8409 16.645 29.6651C16.3074 29.4963 15.8925 29.2783 15.7166 29.1869C15.2665 28.9548 15.0907 29.0181 14.4718 29.6018L13.9514 30.1012L12.9316 29.0814C12.376 28.5258 11.9188 28.0405 11.9188 28.0053C11.9188 27.9702 12.1368 27.7099 12.4111 27.4286C13.03 26.7956 13.0441 26.655 12.594 25.8673C12.2142 25.2203 11.9188 24.531 11.7078 23.8137C11.314 22.4844 11.3069 22.4774 10.2661 22.4774H9.59793V21.0075V19.5376L10.3364 19.5095C11.2577 19.4813 11.3421 19.418 11.6023 18.5178C11.8696 17.5824 12.1579 16.8861 12.5518 16.1969C13.0582 15.3178 13.0441 15.1912 12.3971 14.4949L11.8977 13.9604L12.9105 12.9406C13.4661 12.385 13.9514 11.9279 13.9865 11.9279C14.0217 11.9279 14.2819 12.1459 14.5632 12.4202C15.0133 12.8562 15.0977 12.9125 15.3369 12.9125C15.4986 12.9125 15.7026 12.8492 15.8221 12.7648C16.427 12.3569 17.8617 11.7591 18.8534 11.5059C19.0081 11.4707 19.212 11.3582 19.3105 11.2527C19.4652 11.091 19.4793 10.9995 19.5004 10.3384L19.5285 9.60699H20.9914H22.4542L22.4824 10.3455Z" fill="#3AC48A"/>
<path id="Vector_5" d="M20.2243 15.2325C18.9654 15.4084 17.8401 15.978 16.9047 16.9134C16.2084 17.6097 15.7865 18.2778 15.4981 19.1359C14.1478 23.1587 17.4322 27.2449 21.6379 26.7667C24.8028 26.408 27.1166 23.5174 26.7579 20.3737C26.4837 17.9754 24.7535 15.964 22.4256 15.3732C21.8137 15.2114 20.8221 15.1552 20.2243 15.2325ZM22.0458 16.7235C22.6999 16.8712 23.5298 17.3495 24.0573 17.8699C24.9505 18.749 25.3654 19.7477 25.3654 20.9996C25.3654 22.2304 24.9505 23.2431 24.0924 24.1012C23.2344 24.9592 22.2217 25.3741 20.9909 25.3741C19.739 25.3741 18.7403 24.9592 17.8612 24.066C17.3197 23.5174 16.8625 22.7016 16.6937 21.9842C16.5812 21.4849 16.5812 20.5143 16.6937 20.015C16.8625 19.2976 17.3197 18.4818 17.8612 17.9332C18.9795 16.8009 20.4915 16.3649 22.0458 16.7235Z" fill="#3AC48A"/>
<path id="Vector_6" d="M14.2539 36.4355C13.9867 36.555 13.7897 36.9348 13.8601 37.2091C13.9937 37.7366 14.6337 37.9124 15.0205 37.5326C15.3862 37.1599 15.2526 36.5832 14.7533 36.3933C14.5423 36.3159 14.5352 36.3159 14.2539 36.4355Z" fill="#3AC48A"/>
</g>
</g>
</svg>
