<svg width="17" height="17" viewBox="0 0 17 17" fill="none" xmlns="http://www.w3.org/2000/svg">
<g id="Frame">
<path id="Vector" d="M15.4065 9.07505C15.2936 10.3872 14.8084 11.6399 14.0078 12.6856C13.2072 13.7313 12.1245 14.5267 10.8873 14.978C9.65002 15.4294 8.30959 15.518 7.02369 15.2334C5.73779 14.9488 4.55992 14.3029 3.62864 13.3716C2.69737 12.4403 2.05145 11.2625 1.76687 9.97655C1.48228 8.69065 1.57088 7.35022 2.02223 6.11296C2.47358 4.8757 3.2689 3.79308 4.31464 2.99248C5.36038 2.19187 6.61302 1.70659 7.92519 1.59372C7.99495 1.58797 8.06517 1.59601 8.13183 1.61739C8.19848 1.63877 8.26028 1.67307 8.31368 1.71833C8.36708 1.76359 8.41104 1.81893 8.44306 1.88118C8.47507 1.94343 8.49451 2.01138 8.50027 2.08115C8.50602 2.15091 8.49798 2.22113 8.4766 2.28778C8.45522 2.35444 8.42092 2.41623 8.37566 2.46963C8.3304 2.52303 8.27506 2.567 8.21281 2.59901C8.15056 2.63103 8.08261 2.65047 8.01285 2.65622C6.90226 2.75165 5.84203 3.16228 4.9569 3.83982C4.07178 4.51736 3.39858 5.43362 3.01652 6.48078C2.63446 7.52793 2.55944 8.66243 2.80028 9.75078C3.04111 10.8391 3.58779 11.8361 4.37599 12.6243C5.16419 13.4124 6.16111 13.9591 7.24946 14.2C8.33781 14.4408 9.47231 14.3658 10.5195 13.9837C11.5666 13.6017 12.4829 12.9285 13.1604 12.0433C13.838 11.1582 14.2486 10.098 14.344 8.9874C14.3556 8.8465 14.4228 8.71599 14.5306 8.62458C14.6385 8.53317 14.7782 8.48835 14.9191 8.49997C15.06 8.5116 15.1905 8.57872 15.2819 8.68656C15.3733 8.79441 15.4181 8.93416 15.4065 9.07505ZM7.96902 4.78122V8.49997C7.96902 8.64087 8.02499 8.776 8.12462 8.87562C8.22425 8.97525 8.35937 9.03122 8.50027 9.03122H12.219C12.3599 9.03122 12.495 8.97525 12.5947 8.87562C12.6943 8.776 12.7503 8.64087 12.7503 8.49997C12.7503 8.35908 12.6943 8.22395 12.5947 8.12432C12.495 8.02469 12.3599 7.96872 12.219 7.96872H9.03152V4.78122C9.03152 4.64033 8.97555 4.5052 8.87592 4.40557C8.77629 4.30594 8.64116 4.24997 8.50027 4.24997C8.35937 4.24997 8.22425 4.30594 8.12462 4.40557C8.02499 4.5052 7.96902 4.64033 7.96902 4.78122ZM10.6253 3.18747C10.7829 3.18747 10.9369 3.14074 11.068 3.05318C11.199 2.96561 11.3012 2.84116 11.3615 2.69555C11.4218 2.54994 11.4376 2.38971 11.4068 2.23514C11.3761 2.08056 11.3002 1.93857 11.1887 1.82712C11.0773 1.71568 10.9353 1.63978 10.7807 1.60904C10.6262 1.57829 10.4659 1.59407 10.3203 1.65438C10.1747 1.7147 10.0503 1.81683 9.96269 1.94788C9.87513 2.07892 9.82839 2.23299 9.82839 2.3906C9.82839 2.60194 9.91235 2.80463 10.0618 2.95407C10.2112 3.10352 10.4139 3.18747 10.6253 3.18747ZM13.0159 4.78122C13.1735 4.78122 13.3276 4.73449 13.4586 4.64693C13.5897 4.55936 13.6918 4.43491 13.7521 4.2893C13.8124 4.14369 13.8282 3.98346 13.7975 3.82889C13.7667 3.67431 13.6908 3.53232 13.5794 3.42087C13.4679 3.30943 13.3259 3.23353 13.1714 3.20279C13.0168 3.17204 12.8566 3.18782 12.7109 3.24813C12.5653 3.30845 12.4409 3.41058 12.3533 3.54163C12.2658 3.67267 12.219 3.82674 12.219 3.98435C12.219 4.19569 12.303 4.39838 12.4524 4.54782C12.6019 4.69727 12.8045 4.78122 13.0159 4.78122ZM14.6096 7.17185C14.7672 7.17185 14.9213 7.12511 15.0524 7.03755C15.1834 6.94999 15.2855 6.82553 15.3459 6.67992C15.4062 6.53431 15.422 6.37409 15.3912 6.21951C15.3605 6.06493 15.2846 5.92294 15.1731 5.8115C15.0617 5.70005 14.9197 5.62416 14.7651 5.59341C14.6105 5.56266 14.4503 5.57844 14.3047 5.63876C14.1591 5.69907 14.0346 5.80121 13.9471 5.93225C13.8595 6.0633 13.8128 6.21737 13.8128 6.37497C13.8128 6.58632 13.8967 6.78901 14.0462 6.93845C14.1956 7.08789 14.3983 7.17185 14.6096 7.17185Z" fill="#A2A2A2"/>
</g>
</svg>
