<svg width="24" height="24" viewBox="0 0 24 24" fill="none" xmlns="http://www.w3.org/2000/svg">
<g id="Group 79" clip-path="url(#clip0_1040_2570)">
<g id="Group 79_2">
<g id="twitter (5)">
<g id="Group 48">
<path id="Path 508" d="M21.2246 6.41452C20.5598 6.72766 19.8508 6.93697 19.1225 7.03516C19.9008 6.52762 20.4705 5.75698 20.7275 4.86405C20.0198 5.31768 19.2361 5.63984 18.414 5.81502C18.0848 5.42889 17.6765 5.11803 17.2167 4.90348C16.7569 4.68894 16.2564 4.57573 15.749 4.57153C14.7452 4.61092 13.7979 5.04663 13.1147 5.78319C12.4315 6.51976 12.0681 7.49711 12.1042 8.5011C12.1013 8.80204 12.1296 9.10248 12.1888 9.39756C10.7107 9.3055 9.271 8.88964 7.97151 8.17945C6.67201 7.46925 5.54453 6.48208 4.66886 5.28782C4.34027 5.89838 4.1683 6.58092 4.16835 7.27429C4.1622 7.90777 4.30577 8.53374 4.58738 9.10122C4.86899 9.6687 5.28068 10.1616 5.78889 10.5398C5.20705 10.5216 4.63956 10.3547 4.14055 10.0549V10.0983C4.11896 10.9776 4.39631 11.8382 4.92725 12.5395C5.45819 13.2407 6.21132 13.7411 7.06353 13.9589C6.75245 14.0472 6.43036 14.0906 6.107 14.0879C5.87496 14.0924 5.64317 14.07 5.41629 14.0212C5.62413 14.7781 6.06554 15.4502 6.67764 15.9417C7.28974 16.4332 8.04132 16.719 8.82532 16.7584C7.56325 17.8345 5.96038 18.428 4.30182 18.4334C4.0099 18.4357 3.71818 18.4179 3.42871 18.3801C5.0689 19.5287 7.02311 20.1443 9.02553 20.143C15.739 20.143 19.4094 14.1535 19.4094 8.96268C19.4094 8.78917 19.4039 8.62122 19.3961 8.45438C20.1239 7.8906 20.7435 7.19946 21.2246 6.41452Z" fill="#090729"/>
</g>
</g>
</g>
</g>
<defs>
<clipPath id="clip0_1040_2570">
<rect width="24" height="24" fill="white"/>
</clipPath>
</defs>
</svg>
