<svg width="234" height="234" viewBox="0 0 234 234" fill="none" xmlns="http://www.w3.org/2000/svg">
<g id="Group">
<path id="Vector" d="M105.187 0.618637C92.475 2.19363 77.9062 7.48114 66.9937 14.4561C41.9625 30.3749 25.65 58.3874 24.3562 87.5249L24.0187 95.4561L19.8562 95.8499C17.55 96.0749 14.2875 96.7499 12.6 97.3687C8.325 98.9999 3.9375 103.162 1.9125 107.55L0.28125 111.094V136.406V161.719L1.6875 165.375C5.45625 174.937 12.4875 181.631 22.05 184.556C25.425 185.625 26.9437 185.681 38.925 185.512C52.0312 185.344 52.0312 185.344 55.0125 183.769C58.95 181.687 62.2125 178.312 64.0687 174.431L65.5312 171.281V140.906V110.531L64.0687 107.381C60.9187 100.744 54.675 96.6374 46.6875 95.9061L42.1875 95.5124V90.6187C42.1875 77.9624 46.8 63.1686 54.3375 51.7499C65.1937 35.2124 82.125 23.6812 101.812 19.4061C108.169 17.9999 121.725 17.7186 128.25 18.7874C149.85 22.3311 167.962 33.9749 179.775 51.9186C187.144 63.0562 191.812 78.0749 191.812 90.5061V95.3999L186.806 96.0186C178.537 97.0874 173.025 100.8 169.931 107.381L168.469 110.531V140.906V171.281L169.931 174.375C172.631 180.169 178.762 184.781 184.556 185.456C186.075 185.625 187.312 185.906 187.312 186.019C187.312 186.637 184.669 191.362 182.644 194.287C176.287 203.737 165.431 211.275 153.675 214.425C150.187 215.381 147.094 215.662 138.037 215.831C127.8 216.112 126.506 216.225 124.537 217.35C118.462 220.725 118.744 229.725 125.044 232.931C127.237 234.056 127.969 234.112 139.162 233.831C146.981 233.606 152.381 233.212 154.969 232.65C178.031 227.362 195.975 212.4 204.75 191.137L206.887 185.962L210.769 184.725C216.394 182.981 220.331 180.787 223.987 177.3C227.869 173.587 230.287 169.987 232.256 164.925L233.719 161.156L233.887 137.362C234.056 116.719 233.944 113.175 233.156 110.419C232.031 106.537 230.344 103.837 227.362 101.137C223.819 97.9312 220.894 96.6936 215.156 96.0186L209.981 95.3999L209.644 87.7499C207.619 43.2561 172.969 6.01863 128.531 0.618637C122.794 -0.056366 110.644 -0.112625 105.187 0.618637ZM46.8562 114.244C47.7562 114.75 47.8125 116.494 47.7 141.075L47.5312 167.344H36.7312H25.9875L23.5687 165.656C22.05 164.587 20.5312 162.844 19.575 160.931L18 157.95V136.35C18 116.662 18.0562 114.75 18.9562 114.244C20.1937 113.569 45.5062 113.569 46.8562 114.244ZM214.987 114.244C215.944 114.75 216 116.269 216 136.012C216 157.05 216 157.219 214.65 160.031C213.131 163.35 210.094 166.219 207.169 167.062C205.875 167.456 201.375 167.625 195.75 167.512L186.469 167.344L186.3 141.187C186.187 117.787 186.244 114.975 187.087 114.356C188.212 113.569 213.525 113.456 214.987 114.244Z" fill="black" fill-opacity="0.06"/>
</g>
</svg>
