<svg width="22" height="22" viewBox="0 0 22 22" fill="none" xmlns="http://www.w3.org/2000/svg">
<g id="age 1" clip-path="url(#clip0_1612_1259)">
<g id="Group">
<path id="Vector" d="M10.1834 0.0300655C9.18652 0.124596 8.42598 0.270691 7.64824 0.524206C5.94238 1.0785 4.55879 1.92069 3.26973 3.19257C1.49941 4.94139 0.429492 7.09842 0.0814453 9.62499C0.00410156 10.1621 0.00410156 11.8379 0.0814453 12.375C0.532617 15.6492 2.27715 18.4293 5.00566 20.2211C8.61504 22.593 13.4104 22.5844 17.024 20.2039C19.8385 18.3433 21.6432 15.3398 21.9525 11.9883C22.0514 10.9141 21.9955 10.6133 21.6561 10.4414C21.4412 10.334 21.2693 10.334 21.0545 10.4414C20.8225 10.5617 20.7107 10.7851 20.7107 11.1375C20.7107 12.4137 20.3369 13.9863 19.7482 15.1937C18.7686 17.209 17.2818 18.7086 15.2924 19.6969C11.6615 21.5015 7.30449 20.8484 4.32676 18.0469C3.48887 17.2562 2.83574 16.3711 2.30293 15.2926C0.485352 11.6402 1.15566 7.266 3.98301 4.29686C6.87051 1.26327 11.451 0.429674 15.1979 2.25585C15.735 2.51366 16.6287 3.04218 16.6287 3.09803C16.6287 3.11092 16.4311 3.1453 16.1904 3.17538C15.9455 3.20546 15.6834 3.26131 15.6061 3.29569C15.1377 3.51913 15.1506 4.22382 15.6275 4.43436L15.8252 4.5203L17.0971 4.36131C18.5193 4.18514 18.6096 4.15936 18.7729 3.86717L18.876 3.68241L18.76 2.38905C18.6311 0.915222 18.6139 0.855064 18.2916 0.696081C18.0381 0.567175 17.8061 0.597252 17.5912 0.782019C17.3893 0.958191 17.3506 1.14296 17.4021 1.6371C17.4236 1.85624 17.4365 2.041 17.4322 2.0496C17.4236 2.05389 17.3033 1.98085 17.1658 1.88631C15.3182 0.644518 13.1139 -0.0172005 10.9139 0.00858116C10.5959 0.00858116 10.265 0.021471 10.1834 0.0300655Z" fill="#3AC48A"/>
<path id="Vector_2" d="M5.34961 7.99223C5.17773 8.0309 5.07031 8.09106 4.9543 8.21567C4.83398 8.34457 2.96484 13.2301 2.96484 13.4149C2.96484 13.6211 3.12812 13.8661 3.33008 13.9649C3.55352 14.0723 3.66523 14.0723 3.89727 13.9606C4.05195 13.8875 4.10352 13.8274 4.20664 13.6082C4.27109 13.4622 4.36563 13.2387 4.40859 13.1141L4.48594 12.8907H5.5H6.51406L6.59141 13.1141C6.63438 13.2387 6.72891 13.4622 6.79336 13.6082C6.89648 13.8274 6.94805 13.8875 7.10273 13.9606C7.33477 14.0723 7.44648 14.0723 7.66992 13.9649C7.87188 13.8661 8.03516 13.6211 8.03516 13.4149C8.03516 13.3075 6.3293 8.69262 6.1832 8.41332C6.01992 8.09106 5.67188 7.91918 5.34961 7.99223ZM5.775 10.9442C5.89961 11.2793 5.99414 11.5672 5.98125 11.5801C5.96836 11.593 5.74922 11.6016 5.49141 11.6016C5.13047 11.6016 5.02734 11.5887 5.02734 11.5457C5.02734 11.4899 5.43984 10.377 5.49141 10.2911C5.50859 10.2653 5.52148 10.2653 5.53008 10.2911C5.53867 10.3168 5.64609 10.609 5.775 10.9442Z" fill="#3AC48A"/>
<path id="Vector_3" d="M11.2661 7.99646C11.1415 8.01794 10.888 8.09099 10.7032 8.16404C9.47431 8.63669 8.70517 9.84412 8.77822 11.1719C8.86416 12.7832 10.1704 14.0121 11.7946 14.0121C12.581 14.0121 13.1052 13.8015 13.6466 13.2601C14.0419 12.8648 14.2481 12.4996 14.3985 11.9195C14.5145 11.4554 14.5274 10.8539 14.4243 10.6777C14.2438 10.3855 14.2095 10.3769 13.1911 10.364C12.2845 10.3511 12.263 10.3511 12.1212 10.45C11.8849 10.609 11.7989 10.7551 11.7989 10.9957C11.7989 11.159 11.8247 11.2406 11.9149 11.3609C12.0911 11.5886 12.177 11.6187 12.6884 11.6445L13.1481 11.666L13.0235 11.9281C12.8688 12.259 12.6798 12.4738 12.4392 12.5898C11.8677 12.8648 11.1157 12.7359 10.6173 12.2676C10.2048 11.8808 10.0286 11.4254 10.0673 10.8582C10.1231 10.059 10.7075 9.42302 11.5239 9.26833C11.8763 9.20388 12.2673 9.27693 12.654 9.47459C13.1052 9.71091 13.4446 9.67654 13.6595 9.37576C13.8958 9.0449 13.7712 8.6324 13.363 8.38748C12.7528 8.02224 11.9751 7.88044 11.2661 7.99646Z" fill="#3AC48A"/>
<path id="Vector_4" d="M16.1556 8.03945C15.958 8.1168 15.8162 8.29297 15.7689 8.525C15.7345 8.67539 15.726 9.50039 15.7345 11.1504L15.7474 13.5566L15.8463 13.7113C16.0181 13.9949 16.0869 14.0078 17.4146 14.0078C18.5662 14.0078 18.5963 14.0078 18.7381 13.909C19.1291 13.6469 19.1205 13.1312 18.7166 12.8305C18.6092 12.7488 18.5275 12.7402 17.8056 12.7273L17.0107 12.7102L17.0236 12.1902L17.0365 11.666L17.7541 11.6445C18.5275 11.623 18.5877 11.6016 18.7896 11.3352C18.9658 11.1031 18.867 10.6734 18.592 10.4672C18.4802 10.3855 18.4029 10.377 17.7412 10.3641L17.015 10.3512V9.81406V9.28125H17.7455C18.6177 9.28125 18.7638 9.24258 18.9271 8.95898C19.0603 8.73555 19.0603 8.53789 18.9357 8.31875C18.7552 8.00508 18.6951 7.99219 17.4017 7.99648C16.7572 7.99648 16.2158 8.01797 16.1556 8.03945Z" fill="#3AC48A"/>
</g>
</g>
<defs>
<clipPath id="clip0_1612_1259">
<rect width="22" height="22" fill="white"/>
</clipPath>
</defs>
</svg>
