<svg width="36" height="36" viewBox="0 0 36 36" fill="none" xmlns="http://www.w3.org/2000/svg">
<g id="booking 1">
<g id="Group">
<path id="Vector" d="M29.959 3.12582L29.9567 3.12523C29.6667 3.05374 29.4131 3.02123 27.8815 3.0046L29.959 3.12582ZM29.959 3.12582C31.8831 3.61974 33.4333 5.16491 33.9698 7.10524L33.9704 7.10731M29.959 3.12582L33.9704 7.10731M33.9704 7.10731C34.0736 7.49353 34.1178 8.03237 34.1106 8.55432C34.1035 9.07486 34.0448 9.61003 33.9254 9.98809C33.3023 12.018 31.7148 13.5002 29.7089 13.9135C29.451 13.9681 29.118 13.9961 28.3294 14.0119C27.5363 14.0277 26.2643 14.0312 24.1171 14.0312H19.1249H18.8749M33.9704 7.10731L18.8749 14.0312M18.8749 14.0312V13.7812M18.8749 14.0312V13.7812M18.8749 13.7812V12.1008C18.8749 11.6431 18.8662 11.1838 18.8531 10.8141C18.8398 10.4379 18.8225 10.1751 18.8085 10.0917C18.6477 9.23317 18.0346 8.44762 17.1892 8.0444L17.1892 8.04442M18.8749 13.7812L17.1892 8.04442M17.1892 8.04442L17.1864 8.04304M17.1892 8.04442L17.1864 8.04304M17.1864 8.04304C16.9608 7.93197 16.8303 7.87745 16.6943 7.84472C16.5563 7.81153 16.4007 7.79784 16.1202 7.78733L16.1186 7.78726M17.1864 8.04304L16.1186 7.78726M16.1186 7.78726C14.6451 7.72206 13.5087 8.55338 13.1448 9.9396C13.0762 10.2285 13.0468 10.6962 13.0468 12.0375V13.7812V14.0312M16.1186 7.78726L13.0468 14.0312M13.0468 14.0312H12.7968M13.0468 14.0312H12.7968M12.7968 14.0312H9.84368C7.42502 14.0312 6.7662 14.0115 6.29159 13.9136L6.29093 13.9135M12.7968 14.0312L6.29093 13.9135M6.29093 13.9135C5.16451 13.6779 4.19787 13.1387 3.38267 12.2721L3.38172 12.2711M6.29093 13.9135L3.38172 12.2711M3.38172 12.2711C2.79444 11.6397 2.43241 11.0327 2.1333 10.1719L2.13287 10.1706L3.38172 12.2711ZM2.40325 6.11655L2.40268 6.11777C2.20534 6.54474 2.07558 6.88933 1.99809 7.26357C1.92087 7.63646 1.89795 8.02723 1.90149 8.54383C1.90149 8.54412 1.90149 8.5444 1.90149 8.54469L2.15149 8.54297L2.40325 6.11655ZM2.40325 6.11655C3.06786 4.69871 4.46379 3.53871 5.99695 3.1333L5.9986 3.13288M2.40325 6.11655L5.9986 3.13288M5.9986 3.13288C6.27973 3.06059 6.54617 3.02824 8.08214 3.01076M5.9986 3.13288L8.08214 3.01076M8.08214 3.01076C9.62818 2.99316 12.4847 2.99141 17.9716 2.99141L8.08214 3.01076ZM2.35605 13.5338L2.35639 13.5342C3.25859 14.4364 4.37268 15.0766 5.74044 15.4527L5.7424 15.4532C6.22131 15.5892 6.3723 15.5983 9.51546 15.6266L12.7984 15.6477L13.0468 15.6493V15.8977V18.8859V21.8672V22.3822L12.6422 22.0636L12.3133 21.8047C10.861 20.7006 8.75314 21.0365 7.80379 22.5089L7.80349 22.5094C7.21105 23.4238 7.21689 24.5676 7.82299 25.4835C7.84615 25.5181 7.91008 25.5922 8.03635 25.7173C8.15833 25.8381 8.32633 25.9948 8.5447 26.1908C8.98113 26.5828 9.61145 27.1256 10.4616 27.8422C10.4617 27.8423 10.4618 27.8424 10.4618 27.8424L12.9224 29.9094L13.0097 29.9826L13.0116 30.0965L13.0468 32.1635C13.0644 33.1491 13.0749 33.6573 13.0979 33.9445C13.1093 34.088 13.1228 34.1591 13.1355 34.2002C13.1449 34.2306 13.1544 34.2476 13.1776 34.2793C13.247 34.3647 13.3904 34.4946 13.4916 34.5532L13.4916 34.5531L13.4959 34.5557C13.5187 34.5696 13.5292 34.5748 13.5438 34.58C13.5611 34.586 13.5927 34.5946 13.6557 34.6031C13.7855 34.6207 14.012 34.6338 14.4472 34.6426C15.3123 34.6601 16.9539 34.6602 20.1796 34.6602C23.4053 34.6602 25.047 34.6601 25.9121 34.6426C26.3472 34.6338 26.5737 34.6207 26.7036 34.6031C26.7665 34.5946 26.7981 34.586 26.8154 34.58C26.8301 34.5749 26.8405 34.5696 26.8633 34.5557L26.8633 34.5557L26.8676 34.5532C26.9691 34.4944 27.1129 34.3641 27.1821 34.2787C27.1971 34.2586 27.1984 34.2557 27.2001 34.2518L27.2002 34.2517C27.2027 34.246 27.2103 34.2271 27.2187 34.1763C27.2365 34.0691 27.2509 33.8709 27.2615 33.4675C27.2825 32.668 27.2878 31.1223 27.2984 28.0349L27.2984 28.0328C27.2984 28.0328 27.2984 28.0328 27.2984 28.0327C27.3054 25.818 27.3054 24.239 27.2966 23.1762C27.2922 22.6446 27.2857 22.2437 27.2767 21.9575C27.2676 21.6644 27.2563 21.5106 27.2465 21.4569C27.1037 20.7321 26.6407 20.0168 26.0426 19.6052L26.0423 19.6049C25.773 19.419 25.5836 19.3166 25.0957 19.2121C24.5879 19.1034 23.7787 18.9976 22.2723 18.8106L22.272 18.8106C20.7015 18.6143 19.3365 18.4375 19.2455 18.4224L19.2455 18.4227L19.2335 18.4201C19.2318 18.4197 19.2299 18.4193 19.2278 18.4189C19.1904 18.411 19.0898 18.3899 19.0111 18.3062C18.9315 18.2217 18.9088 18.113 18.8975 18.0304C18.8749 17.8656 18.8749 17.5721 18.8749 17.0607V17.0156V15.8977V15.6486L19.1239 15.6477L24.4533 15.6266L24.4536 15.6266L29.7434 15.5986L30.3081 15.4458C30.3083 15.4458 30.3086 15.4457 30.3088 15.4456C33.7235 14.4979 35.9258 11.5065 35.7293 8.10078C35.6204 6.29914 34.9155 4.73266 33.6159 3.43983C32.5319 2.36261 31.3741 1.7476 29.9626 1.47607C29.7432 1.43552 29.2564 1.40846 27.5437 1.39433C25.8408 1.38028 22.947 1.37851 17.9368 1.38203C13.3593 1.38555 10.4616 1.39258 8.66274 1.40751C7.76308 1.41498 7.13979 1.42441 6.7192 1.43631C6.29043 1.44845 6.09238 1.46295 6.02452 1.47581C3.33492 2.01273 1.15364 4.08572 0.481324 6.73409C-0.136924 9.17311 0.569648 11.7542 2.35605 13.5338ZM17.2655 14.8761V14.8762L17.2658 14.9091C17.2832 17.1541 17.292 18.2884 17.3146 18.8871C17.3261 19.1911 17.3407 19.3401 17.3574 19.4219C17.365 19.4594 17.3717 19.4749 17.3747 19.4812C17.3778 19.4876 17.3816 19.494 17.398 19.5159C17.4741 19.6162 17.5117 19.6596 17.5753 19.6988C17.6457 19.7422 17.7646 19.7895 18.0152 19.844C18.5188 19.9534 19.4472 20.0713 21.3145 20.3043L21.3148 20.3043L21.4696 20.3238C23.3066 20.5555 24.2489 20.6743 24.753 20.8032C25.0143 20.87 25.2015 20.9492 25.3357 21.0809C25.455 21.1982 25.5123 21.3418 25.5588 21.4583C25.5633 21.4699 25.5678 21.4811 25.5723 21.4921L25.5727 21.4931C25.6408 21.6635 25.668 21.8868 25.6836 22.3965C25.6996 22.9171 25.7031 23.7741 25.7031 25.2422V28.6172V28.8672H25.4531H19.8702H14.2804H14.1893L14.1196 28.8086L11.7432 26.8119C11.7431 26.8118 11.7431 26.8118 11.743 26.8117C11.743 26.8117 11.743 26.8117 11.743 26.8117C11.0889 26.2631 10.4803 25.7495 10.0262 25.3632C9.79923 25.1701 9.61049 25.0084 9.47386 24.89C9.40562 24.8309 9.34979 24.7821 9.30847 24.7452C9.27258 24.7132 9.23546 24.6797 9.21572 24.658L9.21386 24.6559C8.90566 24.3092 8.91334 23.8569 9.09979 23.4983C9.28515 23.1417 9.65461 22.8528 10.1211 22.7804C10.2649 22.7574 10.4053 22.7461 10.553 22.7652C10.7025 22.7845 10.8461 22.8331 11.0007 22.9138C11.298 23.0687 11.6623 23.3574 12.2196 23.8275C12.8729 24.3779 13.2056 24.6525 13.4256 24.7935C13.5307 24.8608 13.5975 24.8891 13.6511 24.9033C13.7055 24.9177 13.7616 24.9219 13.8585 24.9219C14.1608 24.9219 14.43 24.7547 14.5551 24.4994L14.5551 24.4994L14.5574 24.4949C14.5661 24.478 14.5848 24.4406 14.601 24.2738C14.6174 24.1053 14.6294 23.829 14.6378 23.3482C14.6544 22.3894 14.6562 20.6485 14.6562 17.4023C14.6562 14.1587 14.6579 12.4121 14.6747 11.4478C14.683 10.9671 14.6952 10.6729 14.7137 10.4825C14.7323 10.2911 14.7592 10.181 14.8098 10.0822C15.1345 9.4348 16.0057 9.17323 16.632 9.55975C16.6469 9.56856 16.6656 9.57926 16.6857 9.59081C16.7257 9.61365 16.7714 9.63982 16.8044 9.66133C16.868 9.70274 16.9348 9.75598 16.9929 9.83647C17.1037 9.99004 17.1515 10.2013 17.1817 10.5055C17.2354 11.046 17.2432 12.0486 17.2585 13.9932C17.2606 14.2682 17.2629 14.562 17.2655 14.8761ZM25.7031 32.8359V33.0859H25.4531H20.1796H14.9062H14.6562V32.8359V31.7812V30.7266V30.4766H14.9062H20.1796H25.4531H25.7031V30.7266V31.7812V32.8359Z" fill="#EEEEEE" stroke="#3AC48A" stroke-width="0.5"/>
<path id="Vector_2" d="M26.3183 7.48303L26.319 7.48235C26.814 6.98735 27.2806 6.5278 27.6327 6.18708C27.8089 6.0166 27.9556 5.87661 28.0626 5.77705C28.1163 5.72712 28.1588 5.68849 28.1894 5.66165C28.2015 5.65106 28.2108 5.6431 28.2177 5.63742C28.2701 5.6166 28.3877 5.59624 28.5441 5.60077C28.7084 5.60554 28.8518 5.63596 28.9252 5.67186C29.1259 5.77861 29.2864 5.99573 29.3279 6.19947C29.353 6.33775 29.3587 6.39336 29.3455 6.45369C29.3318 6.51573 29.2904 6.60983 29.1522 6.78708C28.8716 7.14689 28.2825 7.74028 27.0761 8.95014L27.0754 8.95088C26.4576 9.57568 25.8735 10.1545 25.4311 10.5838C25.2098 10.7985 25.0248 10.975 24.8891 11.1008C24.8211 11.1639 24.7668 11.213 24.7271 11.2475C24.7071 11.2648 24.6924 11.277 24.6824 11.285C24.6817 11.2855 24.681 11.2861 24.6804 11.2865C24.6039 11.3221 24.4759 11.3481 24.3282 11.3481C24.1753 11.3481 24.0436 11.3203 23.9681 11.2828C23.9668 11.2822 23.9656 11.2815 23.9644 11.2809L26.3183 7.48303ZM26.3183 7.48303L24.5043 9.28303L24.3275 9.45843M26.3183 7.48303L24.3275 9.45843M24.3275 9.45843L24.1514 9.28234M24.3275 9.45843L24.1514 9.28234M24.1514 9.28234L23.4005 8.5315C23.1914 8.32939 22.9867 8.13686 22.8245 7.99022C22.7431 7.91655 22.6738 7.85578 22.6208 7.81161C22.5843 7.78121 22.5629 7.76506 22.5534 7.75784C22.5477 7.75354 22.5462 7.75241 22.5482 7.75332M24.1514 9.28234L22.5482 7.75332M22.5482 7.75332L22.5448 7.75151C22.4844 7.71953 22.3556 7.69524 22.1905 7.70619C22.0301 7.71683 21.885 7.75758 21.7995 7.80794C21.4692 8.01123 21.3383 8.37849 21.4643 8.73872L22.5482 7.75332Z" fill="#EEEEEE" stroke="#3AC48A" stroke-width="0.5"/>
</g>
</g>
</svg>
