<svg width="25" height="25" viewBox="0 0 25 25" fill="none" xmlns="http://www.w3.org/2000/svg">
<g id="calendar 1">
<g id="Group">
<path id="Vector" d="M4.61946 2.9102C4.55599 2.96879 4.54134 3.10551 4.54134 3.56938V4.15043H3.12532H1.70931L1.63606 4.26274C1.57259 4.36528 1.56282 5.25883 1.57259 12.3487C1.58724 20.1758 1.58724 20.3223 1.68001 20.3907C1.76302 20.4493 2.80794 20.459 8.76009 20.459L15.7474 20.4639L15.9183 20.6836C16.1673 21.0059 16.807 21.504 17.2611 21.7286C17.8079 21.9971 18.2913 22.1192 18.9066 22.1534C22.4271 22.3389 24.6341 18.4668 22.681 15.5323C22.4173 15.1319 21.8021 14.5362 21.4212 14.3018L21.1478 14.1358L21.1429 9.25297C21.1429 4.91215 21.1331 4.35551 21.0648 4.25786C20.9915 4.15043 20.9818 4.15043 19.5755 4.15043H18.1644V3.58403C18.1644 3.27641 18.14 2.97856 18.1156 2.92485C18.0667 2.83696 18.0033 2.83208 17.1439 2.83208C16.4456 2.83208 16.2113 2.84672 16.1722 2.89555C16.138 2.92973 16.1087 3.21782 16.1038 3.54497L16.0892 4.12602L11.3675 4.14067L6.64095 4.15043V3.59868C6.64095 2.79301 6.69954 2.83208 5.59114 2.83208C4.83919 2.83208 4.68294 2.84672 4.61946 2.9102ZM6.10384 3.7354V4.15043H5.56673H5.02962V3.7354V3.32036H5.56673H6.10384V3.7354ZM17.6761 3.7354V4.15043H17.139H16.6019V3.7354V3.32036H17.139H17.6761V3.7354ZM20.6058 5.63969V6.64067H11.3529H2.09993V5.63969V4.63872H11.3529H20.6058V5.63969ZM20.6058 10.4981C20.6058 12.3487 20.596 13.8672 20.5911 13.8672C20.5814 13.8672 20.4007 13.8233 20.1859 13.7647C19.6341 13.6182 18.7357 13.6133 18.1546 13.7598C16.8997 14.0674 15.9036 14.8731 15.3128 16.0498C15.054 16.5674 14.9368 17.0313 14.9075 17.6612C14.8685 18.4668 14.9759 19.0088 15.3568 19.8829C15.3909 19.9659 15.0589 19.9707 8.74544 19.9707H2.09993V13.5498V7.12895H11.3529H20.6058V10.4981ZM20.0492 14.2579C21.7679 14.6973 22.8958 16.1524 22.9007 17.92C22.9007 18.9356 22.5101 19.8731 21.7972 20.5665C21.2747 21.0743 20.8011 21.3526 20.1322 21.543C19.6341 21.6846 18.6917 21.6944 18.2181 21.5625C16.4505 21.0791 15.2933 19.4873 15.3958 17.6905C15.4886 16.0645 16.6312 14.668 18.2132 14.2627C18.7259 14.126 19.5316 14.126 20.0492 14.2579Z" fill="#3AC48A" stroke="#3AC48A" stroke-width="0.5"/>
<path id="Vector_2" d="M3.36981 9.17479C3.34052 9.23338 3.32099 9.65331 3.32099 10.2002C3.32099 11.4258 3.22821 11.3281 4.43427 11.3281C5.18622 11.3281 5.37177 11.3135 5.45966 11.25C5.5622 11.1767 5.56708 11.1523 5.56708 10.1855C5.56708 9.48241 5.55243 9.18456 5.50849 9.14061C5.46454 9.09667 5.16181 9.08202 4.43427 9.08202C3.48212 9.08202 3.41864 9.0869 3.36981 9.17479ZM5.0788 10.1806V10.791H4.44403H3.80927V10.1806V9.5703H4.44403H5.0788V10.1806Z" fill="#3AC48A" stroke="#3AC48A" stroke-width="0.5"/>
<path id="Vector_3" d="M6.8457 9.14061C6.80176 9.18456 6.78711 9.48241 6.78711 10.1855C6.78711 11.1523 6.79199 11.1767 6.89453 11.25C6.98242 11.3135 7.16797 11.3281 7.91992 11.3281C9.12598 11.3281 9.0332 11.4258 9.0332 10.2002C9.0332 9.65331 9.01367 9.23338 8.98437 9.17479C8.93555 9.0869 8.87207 9.08202 7.91992 9.08202C7.19238 9.08202 6.88965 9.09667 6.8457 9.14061ZM8.54492 10.1806V10.791H7.91016H7.27539V10.1806V9.5703H7.91016H8.54492V10.1806Z" fill="#3AC48A" stroke="#3AC48A" stroke-width="0.5"/>
<path id="Vector_4" d="M10.313 9.14062C10.2397 9.21387 10.23 11.1182 10.3032 11.2305C10.3423 11.2939 10.5132 11.3037 11.3481 11.3037C12.105 11.3037 12.3638 11.2891 12.4126 11.2402C12.4614 11.1963 12.481 10.9277 12.4907 10.249C12.5054 9.46289 12.4956 9.30176 12.4272 9.19922L12.354 9.08203H11.3628C10.6548 9.08203 10.3569 9.09668 10.313 9.14062ZM11.9634 10.1807V10.791H11.353H10.7427V10.1807V9.57031H11.353H11.9634V10.1807Z" fill="#3AC48A" stroke="#3AC48A" stroke-width="0.5"/>
<path id="Vector_5" d="M13.7214 9.17479C13.6921 9.23338 13.6725 9.65331 13.6725 10.2002C13.6725 11.4258 13.5798 11.3281 14.7858 11.3281C15.5378 11.3281 15.7233 11.3135 15.8112 11.25C15.9138 11.1767 15.9186 11.1523 15.9186 10.1855C15.9186 9.48241 15.904 9.18456 15.86 9.14061C15.8161 9.09667 15.5134 9.08202 14.7858 9.08202C13.8337 9.08202 13.7702 9.0869 13.7214 9.17479ZM15.4304 10.1806V10.791H14.7956H14.1608V10.1806V9.5703H14.7956H15.4304V10.1806Z" fill="#3AC48A" stroke="#3AC48A" stroke-width="0.5"/>
<path id="Vector_6" d="M17.1973 9.14061C17.1533 9.18456 17.1387 9.48241 17.1387 10.1855C17.1387 11.1523 17.1436 11.1767 17.2461 11.25C17.334 11.3135 17.5195 11.3281 18.2715 11.3281C19.4775 11.3281 19.3848 11.4258 19.3848 10.2002C19.3848 9.65331 19.3652 9.23338 19.3359 9.17479C19.2871 9.0869 19.2236 9.08202 18.2715 9.08202C17.5439 9.08202 17.2412 9.09667 17.1973 9.14061ZM18.8965 10.1806V10.791H18.2617H17.627V10.1806V9.5703H18.2617H18.8965V10.1806Z" fill="#3AC48A" stroke="#3AC48A" stroke-width="0.5"/>
<path id="Vector_7" d="M3.41797 12.5C3.3252 12.5928 3.32031 12.6611 3.32031 13.54C3.32031 14.3945 3.33008 14.4971 3.4082 14.5654C3.48633 14.6387 3.63281 14.6484 4.47266 14.6484C5.16602 14.6484 5.46387 14.6338 5.50781 14.5898C5.55176 14.5459 5.56641 14.248 5.56641 13.5449C5.56641 12.71 5.55664 12.5439 5.48828 12.4805C5.4248 12.417 5.26367 12.4023 4.46289 12.4023C3.5791 12.4023 3.51074 12.4072 3.41797 12.5ZM5.07812 13.5254V14.165L4.45801 14.1504L3.83301 14.1357L3.81836 13.5791C3.81348 13.2715 3.81836 12.9883 3.82812 12.9541C3.84766 12.9053 4.00879 12.8906 4.46777 12.8906H5.07812V13.5254Z" fill="#3AC48A" stroke="#3AC48A" stroke-width="0.5"/>
<path id="Vector_8" d="M6.87012 12.4902C6.79688 12.5684 6.78711 12.7148 6.78711 13.5205C6.78711 14.0723 6.80664 14.4971 6.83594 14.5557C6.88477 14.6436 6.94824 14.6484 7.88574 14.6484C8.72559 14.6484 8.8916 14.6387 8.95508 14.5703C9.02344 14.5068 9.0332 14.3408 9.0332 13.5303C9.0332 12.6562 9.02344 12.5586 8.94531 12.4854C8.86719 12.4121 8.7207 12.4023 7.90039 12.4023C7.04102 12.4023 6.94336 12.4121 6.87012 12.4902ZM8.53516 13.5352L8.5498 14.1602H7.91016H7.27539V13.5254V12.8857L7.90039 12.9004L8.52051 12.915L8.53516 13.5352Z" fill="#3AC48A" stroke="#3AC48A" stroke-width="0.5"/>
<path id="Vector_9" d="M10.3418 12.4561C10.2637 12.5 10.2539 12.6025 10.2539 13.5156C10.2539 14.2432 10.2686 14.5459 10.3125 14.5898C10.3564 14.6338 10.6543 14.6484 11.3623 14.6484H12.3535L12.4268 14.5312C12.4951 14.4287 12.5049 14.2676 12.4902 13.4766C12.4756 12.6172 12.4658 12.5342 12.3828 12.4707C12.3047 12.417 12.085 12.4023 11.3574 12.4023C10.8154 12.4023 10.3906 12.4268 10.3418 12.4561ZM11.9629 13.5254V14.1602H11.3525H10.7422V13.5254V12.8906H11.3525H11.9629V13.5254Z" fill="#3AC48A" stroke="#3AC48A" stroke-width="0.5"/>
<path id="Vector_10" d="M13.7695 12.5C13.6768 12.5928 13.6719 12.6611 13.6719 13.54C13.6719 14.3945 13.6816 14.4971 13.7598 14.5654C13.8379 14.6387 13.9844 14.6484 14.8242 14.6484C15.5176 14.6484 15.8154 14.6338 15.8594 14.5898C15.9033 14.5459 15.918 14.248 15.918 13.5449C15.918 12.71 15.9082 12.5439 15.8398 12.4805C15.7764 12.417 15.6152 12.4023 14.8145 12.4023C13.9307 12.4023 13.8623 12.4072 13.7695 12.5ZM15.4297 13.5254V14.1602H14.7949H14.1602V13.5596C14.1602 13.2275 14.1748 12.9395 14.1943 12.9248C14.209 12.9053 14.4971 12.8906 14.8291 12.8906H15.4297V13.5254Z" fill="#3AC48A" stroke="#3AC48A" stroke-width="0.5"/>
<path id="Vector_11" d="M3.40332 15.8594C3.33008 15.9375 3.32031 16.084 3.32031 16.8848C3.32031 17.7588 3.3252 17.8271 3.41797 17.9199C3.51074 18.0127 3.5791 18.0176 4.45801 18.0176C5.3125 18.0176 5.41504 18.0078 5.4834 17.9297C5.55664 17.8516 5.56641 17.7051 5.56641 16.8652C5.56641 16.1719 5.55176 15.874 5.50781 15.8301C5.46387 15.7861 5.16602 15.7715 4.46777 15.7715C3.57422 15.7715 3.47656 15.7812 3.40332 15.8594ZM5.07812 16.8945V17.5342L4.45801 17.5195L3.83301 17.5049L3.81836 16.8799L3.80371 16.2598H4.44336H5.07812V16.8945Z" fill="#3AC48A" stroke="#3AC48A" stroke-width="0.5"/>
<path id="Vector_12" d="M6.8457 15.8302C6.80176 15.8741 6.78711 16.172 6.78711 16.8702C6.78711 17.7638 6.79688 17.8614 6.875 17.9347C7.00684 18.0518 8.75977 18.0567 8.92578 17.9395C9.02832 17.8663 9.0332 17.8419 9.0332 16.8946C9.0332 16.0792 9.02344 15.9132 8.95508 15.8497C8.8916 15.7813 8.72559 15.7716 7.89062 15.7716C7.1875 15.7716 6.88965 15.7862 6.8457 15.8302ZM8.53516 16.88L8.52051 17.505H7.91016H7.2998L7.28516 16.88L7.27051 16.2598H7.91016H8.5498L8.53516 16.88Z" fill="#3AC48A" stroke="#3AC48A" stroke-width="0.5"/>
<path id="Vector_13" d="M10.3125 15.8301C10.2686 15.874 10.2539 16.1768 10.2539 16.9043C10.2539 17.8564 10.2588 17.9199 10.3467 17.9688C10.4053 17.998 10.8203 18.0176 11.3623 18.0176C12.085 18.0176 12.3047 18.0029 12.3828 17.9492C12.4658 17.8857 12.4756 17.8027 12.4902 16.9434C12.5049 16.1523 12.4951 15.9912 12.4268 15.8887L12.3535 15.7715H11.3623C10.6543 15.7715 10.3564 15.7861 10.3125 15.8301ZM11.9629 16.8945V17.5293H11.3525H10.7422V16.8945V16.2598H11.3525H11.9629V16.8945Z" fill="#3AC48A" stroke="#3AC48A" stroke-width="0.5"/>
<path id="Vector_14" d="M18.9845 15.1904C18.9113 15.2295 18.8966 15.3076 18.8966 15.5957V15.9521L18.6037 16.0303C17.9005 16.2256 17.5685 16.9385 17.9201 17.5C18.0714 17.749 18.3449 17.8906 19.0529 18.0811C19.3947 18.1738 19.7463 18.291 19.8341 18.3447C20.215 18.5645 20.1857 19.0088 19.7804 19.2236C19.4679 19.3896 18.9601 19.3799 18.6134 19.209C18.4035 19.1064 18.3449 19.043 18.2375 18.8184C18.0959 18.5156 17.9347 18.4326 17.7736 18.5791C17.4806 18.8477 17.9152 19.5508 18.4963 19.7461C18.6183 19.79 18.7599 19.8242 18.8088 19.8242C18.8869 19.8242 18.8966 19.8682 18.8966 20.1904C18.8966 20.5225 18.9064 20.5615 19.0187 20.6348C19.131 20.708 19.1505 20.708 19.2629 20.6348C19.3654 20.5664 19.38 20.5176 19.3947 20.2051L19.4093 19.8486L19.6144 19.8145C20.049 19.7412 20.4445 19.4287 20.5812 19.0479C20.7082 18.6865 20.6496 18.3691 20.4005 18.0859C20.1906 17.8516 19.9953 17.7588 19.2873 17.5781C18.423 17.3535 18.3107 17.2803 18.3107 16.9531C18.3107 16.6699 18.6574 16.4551 19.1164 16.4551C19.5412 16.4551 19.8146 16.6211 19.9757 16.9678C20.0734 17.1729 20.3175 17.1973 20.4396 17.0166C20.5177 16.8945 20.5177 16.8799 20.4054 16.6406C20.2687 16.3428 20.0148 16.1426 19.6437 16.0352L19.3849 15.9619V15.6299C19.3849 15.3711 19.3654 15.2783 19.297 15.2197C19.1945 15.127 19.1066 15.1172 18.9845 15.1904Z" fill="#3AC48A" stroke="#3AC48A" stroke-width="0.5"/>
</g>
</g>
</svg>
