<svg width="42" height="42" viewBox="0 0 42 42" fill="none" xmlns="http://www.w3.org/2000/svg">
<g id="email 1">
<g id="Group">
<path id="Vector" d="M20.3364 1.84987C20.1526 1.91604 19.91 2.04103 19.785 2.1219C19.6674 2.21012 18.4543 3.3644 17.1015 4.68778L14.6385 7.09927H11.9036C8.72745 7.09927 8.65392 7.11398 7.97753 7.76831C7.28643 8.44471 7.28643 8.4153 7.26438 11.5841L7.24232 14.3411L6.00717 15.591C5.28666 16.3188 4.69114 16.9805 4.58821 17.1717L4.41911 17.5025L4.39706 21.1197L4.375 24.737L4.5441 24.884C4.81613 25.1413 5.20579 25.0752 5.37489 24.737C5.47046 24.5679 5.48517 23.9797 5.48517 21.1785C5.48517 19.3405 5.50722 17.8333 5.54398 17.8333C5.62486 17.8407 17.3662 29.5085 17.3221 29.5452C17.3 29.5673 14.6385 31.0377 11.4036 32.8096L5.52193 36.0445L5.48517 31.3465L5.44841 26.6412L5.27196 26.5015C5.05139 26.3177 4.7132 26.325 4.52939 26.5088C4.38235 26.6559 4.38235 26.722 4.39706 32.192L4.41911 37.7208L4.58821 38.0369C4.84553 38.5222 5.2352 38.9118 5.69103 39.1324L6.1101 39.3382L16.6824 39.3603L27.2547 39.375L27.4312 39.1985C27.6665 38.9633 27.6665 38.6839 27.4312 38.456L27.2547 38.2722H16.8662C6.89677 38.2722 6.463 38.2648 6.17627 38.1325C5.87483 37.9928 5.59545 37.684 5.54398 37.4414C5.50722 37.2355 20.5129 29.0012 20.9981 28.9497C21.2848 28.9203 21.4172 28.9644 21.9539 29.2512C22.9611 29.7805 36.5405 37.2502 36.5993 37.3017C36.7169 37.4193 36.3199 37.9413 35.9964 38.1104C35.6729 38.2722 35.6435 38.2722 32.4968 38.2722C29.4016 38.2722 29.3207 38.2722 29.1295 38.4266C28.8649 38.6398 28.8649 39.0147 29.1369 39.228C29.328 39.3824 29.3722 39.3824 32.6806 39.3603L36.0332 39.3382L36.4522 39.1324C36.9081 38.9118 37.2977 38.5222 37.555 38.0369L37.7241 37.7208V27.6116V17.5025L37.5256 17.1349C37.4006 16.8996 36.8786 16.3188 36.114 15.5542L34.8936 14.3411V13.6279C34.8936 13.003 34.8715 12.8854 34.7465 12.7604C34.5039 12.5178 34.1951 12.5398 33.9599 12.8045L33.7908 12.9883V15.9806V18.9729L28.7913 23.9723L23.7919 28.9718L23.3287 28.7292C21.6524 27.8322 21.748 27.869 21.0716 27.869C20.3952 27.869 20.5202 27.8175 18.8145 28.7292L18.3513 28.9718L13.3519 23.9723L8.35249 18.9729V14.0544V9.1358L8.53629 8.81231C8.65392 8.62116 8.83773 8.43736 9.01418 8.34913C9.30091 8.20209 9.44795 8.20209 21.079 8.20209H32.857L33.1585 8.37854C33.3276 8.47412 33.5334 8.68733 33.629 8.84907C33.7687 9.1064 33.7908 9.24609 33.7908 10.0254C33.7908 10.79 33.8128 10.9297 33.9378 11.0841C34.1216 11.3267 34.2981 11.3708 34.5848 11.2459C34.8862 11.1209 34.9156 10.9812 34.8789 9.80485C34.8568 8.94465 34.8348 8.7829 34.673 8.45941C34.4157 7.93006 33.901 7.44482 33.4011 7.25367C32.9967 7.10662 32.857 7.09927 30.2397 7.09927H27.5047L24.9682 4.61426C23.0567 2.73948 22.3435 2.09249 22.0642 1.96015C21.5863 1.73224 20.7996 1.68077 20.3364 1.84987ZM21.5716 2.94534C21.748 3.01886 22.542 3.76142 23.8287 5.02598C24.9168 6.10674 25.8211 7.01105 25.8358 7.04045C25.8505 7.07722 23.711 7.09927 21.079 7.09927C18.4469 7.09927 16.2928 7.09192 16.2928 7.07722C16.2928 6.97429 20.2555 3.12914 20.4908 2.9968C20.8511 2.80564 21.1893 2.79094 21.5716 2.94534ZM7.24967 16.8923V17.8701L6.75708 17.3775L6.25714 16.8776L6.73503 16.3997C6.99235 16.135 7.22026 15.9218 7.22762 15.9218C7.24232 15.9218 7.24967 16.3629 7.24967 16.8923ZM35.3862 17.3702L34.8936 17.8701V16.8776V15.885L35.3862 16.385L35.8861 16.8776L35.3862 17.3702ZM36.6581 26.9573V36.0813L36.4228 35.9342C36.2905 35.8533 33.6364 34.3903 30.5191 32.6846C27.4091 30.9789 24.8433 29.5599 24.8212 29.5452C24.7771 29.5085 36.5184 17.8407 36.6066 17.8333C36.636 17.8333 36.6581 21.9358 36.6581 26.9573Z" fill="#3AC48A"/>
<path id="Vector_2" d="M19.7486 11.517C18.3591 11.8772 17.2342 12.6786 16.4769 13.8549C14.2492 17.2957 16.3225 21.832 20.3809 22.3907C21.2117 22.501 21.5131 22.354 21.5131 21.854C21.5131 21.5526 21.2411 21.3908 20.5867 21.3026C19.8148 21.1997 19.2781 20.9938 18.6017 20.538C16.7416 19.2955 16.1314 16.8178 17.1901 14.796C17.5356 14.1417 18.4032 13.2888 19.0649 12.9506C20.8514 12.0537 22.9468 12.3992 24.2848 13.8108C25.0715 14.6416 25.4832 15.5753 25.4832 16.5164C25.4832 16.9943 25.2627 17.9133 25.0495 18.3324C24.6745 19.0749 23.7481 19.3396 23.4614 18.7882C23.3732 18.6118 23.3511 18.178 23.3511 16.1782C23.3511 13.8844 23.3438 13.7814 23.2041 13.6417C22.9835 13.4212 22.5939 13.4432 22.4027 13.6858C22.3145 13.7961 22.2483 13.9652 22.2483 14.0608C22.2483 14.1637 22.2263 14.2299 22.1968 14.2152C21.6307 13.9211 21.5278 13.8991 20.8514 13.8991C20.2412 13.8991 20.1089 13.9285 19.7854 14.0976C18.6899 14.671 18.0503 16.0532 18.2782 17.3766C18.6311 19.494 20.6014 20.6042 22.0866 19.5234L22.4027 19.2955L22.7483 19.6558C23.1747 20.0895 23.5055 20.2145 24.1157 20.1704C25.0201 20.0969 25.8141 19.4572 26.1743 18.5088C26.8948 16.6267 26.6449 14.9431 25.4171 13.3991C24.6819 12.4727 23.6526 11.8184 22.4395 11.5096C21.6675 11.3111 20.5132 11.3185 19.7486 11.517ZM21.4396 15.0754C22.3365 15.5386 22.5277 17.3104 21.7851 18.2883C21.4543 18.722 20.9764 18.9205 20.5573 18.7956C19.6383 18.5235 19.1163 17.2663 19.4472 16.1267C19.5648 15.7224 19.9324 15.2592 20.2779 15.0901C20.5867 14.9357 21.1602 14.9283 21.4396 15.0754Z" fill="#3AC48A"/>
</g>
</g>
</svg>
