<svg width="20" height="20" viewBox="0 0 20 20" fill="none" xmlns="http://www.w3.org/2000/svg">
<g id="episode 1">
<g id="Group">
<path id="Vector" d="M13.7656 1.15234C12.1211 1.40625 10.7227 2.60547 10.2188 4.19531L10.1094 4.53125L6.14063 4.53906L2.16797 4.55078L1.93359 4.66016C1.62891 4.80078 1.36328 5.06641 1.22266 5.36719L1.11328 5.60547V10.4688V15.332L1.22266 15.5664C1.36328 15.8711 1.62891 16.1367 1.92969 16.2773C2.16016 16.3828 2.19531 16.3867 2.87891 16.3984L3.58594 16.4141L3.60156 17.1211C3.61328 17.8047 3.61719 17.8398 3.72266 18.0664C3.86328 18.3711 4.12891 18.6367 4.42969 18.7773L4.66797 18.8867H9.53125H14.3945L14.6328 18.7773C14.9336 18.6367 15.1992 18.3711 15.3398 18.0664L15.4492 17.832V14.5039V11.1719L15.3203 11.0469C15.2109 10.9375 15.168 10.918 15 10.918C14.832 10.918 14.7891 10.9375 14.6797 11.0469L14.5508 11.1719L14.5313 14.4336L14.5117 17.6953L14.3828 17.8203L14.2578 17.9492L12.1289 17.9609L10 17.9688V17.1758V16.3789L10.2578 16.332C11.457 16.1133 12.5625 15.1875 13.0234 14.0195C13.2188 13.5195 13.2578 13.2734 13.2578 12.5312L13.2617 11.8359L13.1328 11.7109C13.0234 11.6016 12.9805 11.582 12.8125 11.582C12.6445 11.582 12.6016 11.6016 12.4922 11.7109L12.3633 11.8359L12.3398 12.5117C12.3164 13.082 12.2969 13.2305 12.2109 13.4961C12.0703 13.9414 11.8633 14.2695 11.5039 14.6289C11.1484 14.9844 10.8203 15.1914 10.3711 15.3398C10.0938 15.4297 9.99609 15.4414 9.53125 15.4414C9.06641 15.4414 8.96875 15.4297 8.69141 15.3398C8.24609 15.1914 7.91797 14.9883 7.55859 14.6289C7.19922 14.2695 6.99609 13.9414 6.85156 13.4961C6.76563 13.2305 6.74609 13.082 6.72266 12.5117L6.69922 11.8359L6.57031 11.7109C6.46094 11.6016 6.41797 11.582 6.25 11.582C6.08203 11.582 6.03906 11.6016 5.92969 11.7109L5.80078 11.8359L5.80469 12.5312C5.80469 13.2891 5.84375 13.5234 6.05859 14.0586C6.24219 14.5156 6.50391 14.9062 6.89063 15.2969C7.43359 15.8359 8.05078 16.1758 8.75781 16.3203L9.0625 16.3867V17.1797V17.9688L6.93359 17.9609L4.80469 17.9492L4.67969 17.8203L4.55078 17.6953V12.9688V8.24219L4.67969 8.11719L4.80469 7.98828L7.76563 7.98047L10.7227 7.96875L10.8789 8.1875C11.0859 8.48047 11.6797 9.04688 11.9922 9.25C12.4609 9.55859 12.9883 9.77734 13.5664 9.91016C13.9531 9.99609 14.9531 9.99609 15.3398 9.91016C15.9961 9.76172 16.5859 9.49609 17.0664 9.14062C18.4336 8.125 19.0977 6.52734 18.8477 4.87109C18.707 3.93359 18.2773 3.08594 17.5977 2.40234C17.0977 1.90234 16.5273 1.55078 15.8672 1.32812C15.207 1.10547 14.457 1.04297 13.7656 1.15234ZM15.332 2.14453C16.5586 2.46875 17.5195 3.42969 17.8555 4.66797C17.9766 5.11328 17.9805 5.98047 17.8594 6.41797C17.2148 8.76953 14.5195 9.80078 12.5078 8.46094C11.5938 7.85156 11.0156 6.83594 10.9492 5.72266C10.8516 3.98438 12.0898 2.41797 13.8203 2.08984C14.2305 2.01172 14.9258 2.03906 15.332 2.14453ZM10.0273 5.92578C10.0547 6.17969 10.1094 6.51953 10.1523 6.67969C10.1953 6.83984 10.2344 6.98438 10.2344 7C10.2344 7.01562 8.98047 7.03516 7.45313 7.03906L4.66797 7.05078L4.43359 7.16016C4.12891 7.30078 3.86328 7.56641 3.72266 7.86719L3.61328 8.10547L3.60156 11.7891L3.59375 15.4727L2.94922 15.4609L2.30469 15.4492L2.17969 15.3203L2.05078 15.1953V10.4727V5.75L2.14844 5.64453C2.20313 5.58594 2.28125 5.52344 2.32422 5.50781C2.36719 5.48828 4.10938 5.47266 6.19141 5.47266L9.98438 5.46875L10.0273 5.92578Z" fill="#A2A2A2"/>
<path id="Vector_2" d="M15.1367 2.92578C15.0938 2.94531 15.0156 3.00781 14.9609 3.06641L14.8633 3.17188V5.55078V7.92969L14.9922 8.05469C15.1016 8.16406 15.1445 8.18359 15.3125 8.18359C15.4805 8.18359 15.5234 8.16406 15.6328 8.05469L15.7617 7.92969V5.54688V3.16406L15.6406 3.04297C15.5117 2.91406 15.2812 2.86328 15.1367 2.92578Z" fill="#A2A2A2"/>
<path id="Vector_3" d="M13.418 3.47656C13.375 3.49219 13.2969 3.55469 13.2422 3.61328L13.1445 3.71875V5.55078V7.38281L13.2734 7.50781C13.3828 7.61719 13.4258 7.63672 13.5937 7.63672C13.7617 7.63672 13.8047 7.61719 13.9141 7.50781L14.043 7.38281L14.0547 5.60156C14.0625 4.03516 14.0586 3.80859 14.0039 3.69141C13.9062 3.48828 13.6289 3.38672 13.418 3.47656Z" fill="#A2A2A2"/>
<path id="Vector_4" d="M11.6984 4.49221C11.6554 4.50784 11.5773 4.57034 11.5226 4.62893C11.4249 4.7305 11.4249 4.74221 11.4132 5.50003C11.4015 6.35159 11.4132 6.40237 11.6398 6.55471C11.8234 6.67971 12.0343 6.65237 12.2023 6.48831L12.3234 6.36721L12.3351 5.59378C12.3468 4.92581 12.339 4.80862 12.2804 4.69925C12.1788 4.50003 11.9054 4.40628 11.6984 4.49221Z" fill="#A2A2A2"/>
<path id="Vector_5" d="M16.8555 4.48828C16.8125 4.50781 16.7344 4.57031 16.6797 4.62891L16.582 4.73437V5.55078V6.36719L16.7109 6.49219C16.8203 6.60156 16.8633 6.62109 17.0312 6.62109C17.1992 6.62109 17.2422 6.60156 17.3516 6.49219L17.4805 6.36719V5.54687V4.72656L17.3594 4.60547C17.2305 4.47656 17 4.42578 16.8555 4.48828Z" fill="#A2A2A2"/>
<path id="Vector_6" d="M9.06641 8.96876C8.40625 9.14454 7.89063 9.67188 7.71484 10.3399C7.62891 10.668 7.62891 12.7774 7.71484 13.1055C7.97656 14.1055 9 14.7266 9.98047 14.4727C10.6758 14.2891 11.2344 13.7031 11.3672 13.0117C11.4336 12.668 11.418 10.6055 11.3477 10.3399C11.0859 9.32813 10.0469 8.70313 9.06641 8.96876ZM9.82031 9.89063C10.0352 9.95313 10.3594 10.2774 10.4219 10.4922C10.4531 10.6016 10.4688 10.9961 10.4688 11.7188C10.4688 12.4414 10.4531 12.8359 10.4219 12.9453C10.3203 13.2813 9.89063 13.5938 9.53125 13.5938C9.17188 13.5938 8.74219 13.2813 8.64063 12.9453C8.57422 12.7227 8.57422 10.7149 8.64063 10.4922C8.69922 10.293 9.02734 9.95704 9.21875 9.89454C9.40625 9.83595 9.62891 9.83595 9.82031 9.89063Z" fill="#A2A2A2"/>
</g>
</g>
</svg>
