<svg width="20" height="20" viewBox="0 0 20 20" fill="none" xmlns="http://www.w3.org/2000/svg">
<g id="show 1">
<g id="Group">
<path id="Vector" d="M9.17969 16.2266C6.86719 16.0078 4.89453 15.1992 3.03125 13.6992C2.50391 13.2773 1.50391 12.2695 1.07813 11.7383C0.617188 11.1562 0.046875 10.3008 0.015625 10.1367C0.00390625 10.0625 0.00390625 9.9375 0.015625 9.86328C0.046875 9.69922 0.617188 8.84375 1.07813 8.26172C1.50391 7.73047 2.50391 6.72266 3.03125 6.30078C4.72656 4.9375 6.51563 4.14453 8.57422 3.83984C9.23047 3.74609 10.7695 3.74609 11.4258 3.83984C12.7852 4.03906 14.0039 4.44141 15.1367 5.06641C16.8789 6.02344 18.4609 7.49219 19.6094 9.21094C20.1172 9.97266 20.1172 10.0273 19.6094 10.7891C19.1094 11.5391 18.6602 12.0859 17.9688 12.7773C16.0938 14.6641 13.9844 15.7656 11.5625 16.1367C11.0508 16.2148 9.625 16.2656 9.17969 16.2266ZM10.9844 14.9414C12.7891 14.75 14.5547 14 16.0898 12.7773C16.8984 12.1289 17.8906 11.0781 18.4336 10.2969L18.6367 10L18.4766 9.76562C17.8047 8.77344 16.6367 7.58984 15.6055 6.85156C13.6875 5.47656 11.3828 4.82812 9.15625 5.03906C6.90234 5.25391 4.84766 6.25 3.03125 8.00781C2.53516 8.48828 1.89453 9.23047 1.56641 9.70703L1.36328 10L1.55859 10.2852C1.94141 10.8359 2.28906 11.2383 2.94531 11.8984C3.89063 12.8398 4.75 13.4688 5.84375 14.0156C7.4375 14.8125 9.20703 15.1328 10.9844 14.9414Z" fill="white"/>
<path id="Vector_2" d="M9.34766 13.6914C8.5625 13.5508 7.92188 13.2071 7.34375 12.6211C6.83984 12.1133 6.51562 11.5352 6.33984 10.836C6.24609 10.4649 6.24609 9.53518 6.33984 9.16408C6.51562 8.46487 6.83984 7.88674 7.34375 7.37893C8.03516 6.6758 8.84766 6.31252 9.82422 6.26174C10.9062 6.20705 11.8516 6.57815 12.6367 7.3633C13.1719 7.89846 13.4805 8.44143 13.6602 9.16408C13.7539 9.53518 13.7539 10.4649 13.6602 10.836C13.5625 11.2227 13.3789 11.6563 13.1719 11.9922C12.9297 12.3906 12.3672 12.9414 11.957 13.1953C11.1914 13.6641 10.2188 13.8516 9.34766 13.6914ZM10.5273 12.4414C11.3711 12.2656 12.125 11.5703 12.3945 10.7227C12.5156 10.336 12.5156 9.66408 12.3945 9.27737C12.1484 8.50002 11.5 7.85158 10.7227 7.60549C10.5 7.53518 10.3594 7.51955 9.98047 7.51955C9.57422 7.52346 9.47266 7.53908 9.22656 7.62502C8.81641 7.77346 8.53906 7.94924 8.22266 8.26174C7.25781 9.22268 7.26562 10.7813 8.24219 11.7578C8.84766 12.3672 9.6875 12.6172 10.5273 12.4414Z" fill="white"/>
</g>
</g>
</svg>
