<svg width="27" height="27" viewBox="0 0 27 27" fill="none" xmlns="http://www.w3.org/2000/svg">
<g id="full-time-job 1" clip-path="url(#clip0_1608_403)">
<g id="Group">
<path id="Vector" d="M16.5793 0.0527477C14.6386 0.258411 12.7771 1.12853 11.348 2.49962C9.02242 4.73556 8.08374 7.83634 8.78511 10.9635C9.00132 11.9338 9.47066 13.0887 9.70796 13.2416C10.0191 13.442 10.3671 13.3893 10.5886 13.1045C10.7574 12.8936 10.7363 12.6668 10.499 12.1131C10.0349 11.0268 9.85562 10.1514 9.85035 9.01759C9.85035 8.08419 9.95581 7.41974 10.23 6.58654C10.6572 5.29982 11.3005 4.29259 12.2814 3.36447C13.8529 1.8879 16.0414 1.12325 18.1666 1.31837C19.3003 1.42384 20.4078 1.76661 21.3728 2.32032C22.9337 3.21154 24.2099 4.7672 24.8058 6.50743C25.0748 7.27736 25.1591 7.77306 25.1908 8.72755C25.2382 10.1567 25.0378 11.0901 24.4156 12.3662C23.5771 14.0959 22.1375 15.4354 20.3919 16.1104C19.4005 16.4953 19.2687 16.5955 19.2845 16.9858C19.2951 17.2494 19.3742 17.3865 19.5798 17.5078C19.8066 17.6502 19.9543 17.6397 20.4974 17.4498C25.138 15.8309 27.6113 10.7315 26.0187 6.06447C25.5599 4.72501 24.7847 3.52267 23.7248 2.5049C21.8369 0.68556 19.1843 -0.221472 16.5793 0.0527477Z" fill="#3AC48A" stroke="#FDFDFD" stroke-width="0.25"/>
<path id="Vector_2" d="M17.1809 2.6209C16.8961 2.8002 16.9014 2.72637 16.9014 6.08555C16.9014 8.99648 16.9066 9.2127 16.9963 9.33926C17.1809 9.61348 17.2758 9.62402 19.3008 9.62402C21.0041 9.62402 21.1887 9.61348 21.3205 9.5291C21.7371 9.25488 21.7371 8.72754 21.3205 8.45332C21.194 8.36895 21.0041 8.3584 19.6594 8.34258L18.1406 8.32676V5.60566V2.88984L17.9613 2.71055C17.8137 2.56289 17.7451 2.53125 17.5553 2.53125C17.4287 2.53125 17.26 2.57344 17.1809 2.6209Z" fill="#3AC48A" stroke="#FDFDFD" stroke-width="0.25"/>
<path id="Vector_3" d="M2.58398 6.79219C2.04609 6.99785 1.71387 7.25625 1.4502 7.67285C1.20762 8.05781 1.10742 8.39531 1.10742 8.85938C1.10742 9.74531 1.57148 10.4625 2.40469 10.8475C2.68418 10.9793 2.77383 10.9951 3.26953 10.9951C3.78105 10.9951 3.84961 10.9846 4.17129 10.8316C5.53711 10.183 5.85879 8.42168 4.80938 7.34063C4.64062 7.1666 4.40332 6.99785 4.18184 6.89238C3.86543 6.74473 3.76523 6.72363 3.32227 6.71309C2.95312 6.70254 2.75801 6.72363 2.58398 6.79219ZM3.7125 8.08418C3.95508 8.22129 4.16602 8.57461 4.16602 8.84355C4.16602 9.38672 3.62812 9.84023 3.10078 9.73477C2.41523 9.59766 2.13047 8.74336 2.5998 8.23184C2.86348 7.94707 3.35918 7.87852 3.7125 8.08418Z" fill="#3AC48A" stroke="#FDFDFD" stroke-width="0.25"/>
<path id="Vector_4" d="M15.5831 10.7049C15.4091 10.7787 15.1876 11.0477 14.2648 12.3397C13.7796 13.02 13.3314 13.6317 13.2734 13.695L13.1679 13.8162H11.2484C9.14427 13.8162 9.15482 13.8162 8.98607 14.1379C8.8015 14.4965 8.98607 14.9131 9.3763 15.0344C9.50814 15.0713 10.2359 15.0819 11.5753 15.0713C13.5318 15.0555 13.5845 15.0502 13.8007 14.9395C14.0697 14.7918 14.1488 14.6916 15.3353 13.0463C16.3478 11.633 16.4533 11.4643 16.4533 11.2744C16.4533 10.8789 15.9523 10.5467 15.5831 10.7049Z" fill="#3AC48A" stroke="#FDFDFD" stroke-width="0.25"/>
<path id="Vector_5" d="M2.13574 11.554C1.5082 11.6331 0.870117 12.1447 0.622266 12.7511C0.500977 13.0517 0.500977 13.057 0.500977 15.5566C0.500977 17.5499 0.516797 18.1142 0.574805 18.3251C0.85957 19.3376 1.6875 20.0864 2.68945 20.2499C2.8793 20.2763 3.49102 20.3027 4.05 20.3027H5.0625V22.9816C5.0625 25.9927 5.05723 25.9558 5.44219 26.3935C5.84824 26.8523 6.43887 27.0632 7.02422 26.9525C7.44082 26.8786 7.69922 26.7363 7.98398 26.4198C8.39531 25.9558 8.38477 26.0823 8.38477 22.122C8.38477 18.2566 8.39004 18.3251 8.03672 17.7978C7.81523 17.4656 7.55684 17.2599 7.15078 17.0911C6.84492 16.9646 6.76582 16.9593 5.60566 16.9382L4.37695 16.9171V15.2718C4.37695 14.37 4.35059 13.4577 4.32422 13.2468C4.17656 12.1183 3.25898 11.4064 2.13574 11.554ZM2.74219 12.8935C3.03223 13.0411 3.03223 13.0306 3.05859 15.5038C3.07969 17.5288 3.09551 17.8136 3.17461 17.9191C3.38027 18.2197 3.38027 18.2197 5.12051 18.246C6.64453 18.2724 6.74473 18.2777 6.85547 18.3779C7.11914 18.6152 7.11914 18.5941 7.11914 22.1431C7.11914 25.2228 7.11387 25.4654 7.02949 25.5655C6.88184 25.7343 6.59707 25.7396 6.43359 25.5761C6.32812 25.4706 6.32812 25.4021 6.32812 22.5175C6.32812 19.3007 6.32812 19.3165 6.03281 19.1161C5.89043 19.0212 5.75332 19.0107 4.27148 18.9843C2.73164 18.9579 2.65254 18.9527 2.4416 18.8419C2.19902 18.7101 1.99863 18.4781 1.87207 18.1775C1.75605 17.8927 1.75078 13.3628 1.87207 13.1308C2.025 12.8407 2.42578 12.73 2.74219 12.8935Z" fill="#3AC48A" stroke="#FDFDFD" stroke-width="0.25"/>
<path id="Vector_6" d="M7.16669 15.4248C6.73427 15.6568 6.76063 16.3212 7.2036 16.5322C7.34599 16.6007 7.74149 16.6113 9.80341 16.6113H12.2345V21.5736C12.2345 26.1562 12.2397 26.5464 12.3241 26.6888C12.5034 26.9894 12.9306 27.0738 13.2311 26.8628C13.5054 26.6677 13.5001 26.7996 13.5001 21.5156V16.6113H15.8995C17.8085 16.6113 18.3358 16.5955 18.4729 16.5375C18.9106 16.3582 18.9792 15.7675 18.5942 15.4775L18.4202 15.3457H12.862C8.16864 15.3509 7.2827 15.3615 7.16669 15.4248Z" fill="#3AC48A" stroke="#FDFDFD" stroke-width="0.25"/>
</g>
</g>
<defs>
<clipPath id="clip0_1608_403">
<rect width="27" height="27" fill="white"/>
</clipPath>
</defs>
</svg>
