<svg width="24" height="24" viewBox="0 0 24 24" fill="none" xmlns="http://www.w3.org/2000/svg">
<g id="Group 37" clip-path="url(#clip0_1040_2583)">
<g id="Group 37_2">
<g id="instagram (4)">
<g id="Group 201">
<g id="Group 200">
<path id="Path 521" d="M16.298 4H9.03967C7.7039 4.00029 6.42287 4.53075 5.47793 5.47487C4.533 6.41899 4.00144 7.69957 4 9.03533V16.2937C4.00029 17.6294 4.53075 18.9105 5.47487 19.8554C6.41899 20.8003 7.69957 21.3319 9.03533 21.3333H16.2937C17.6294 21.333 18.9105 20.8026 19.8554 19.8585C20.8003 18.9143 21.3319 17.6338 21.3333 16.298V9.03967C21.333 7.7039 20.8026 6.42287 19.8585 5.47793C18.9143 4.533 17.6338 4.00144 16.298 4V4ZM19.9813 16.298C19.9813 17.2749 19.5933 18.2118 18.9025 18.9025C18.2118 19.5933 17.2749 19.9813 16.298 19.9813H9.03967C8.06279 19.9813 7.12592 19.5933 6.43516 18.9025C5.7444 18.2118 5.35633 17.2749 5.35633 16.298V9.03967C5.35633 8.06279 5.7444 7.12592 6.43516 6.43516C7.12592 5.7444 8.06279 5.35633 9.03967 5.35633H16.298C17.2749 5.35633 18.2118 5.7444 18.9025 6.43516C19.5933 7.12592 19.9813 8.06279 19.9813 9.03967V16.298Z" fill="#090729" stroke="#090729" stroke-width="0.25"/>
</g>
</g>
<g id="Group 203">
<g id="Group 202">
<path id="Path 522" d="M12.6652 7.87231C11.7164 7.87231 10.789 8.15366 10.0001 8.68076C9.21123 9.20786 8.59639 9.95704 8.23331 10.8336C7.87024 11.7101 7.77525 12.6746 7.96034 13.6052C8.14543 14.5357 8.6023 15.3904 9.27317 16.0613C9.94404 16.7322 10.7988 17.1891 11.7293 17.3741C12.6598 17.5592 13.6244 17.4642 14.5009 17.1012C15.3774 16.7381 16.1266 16.1232 16.6537 15.3344C17.1808 14.5455 17.4622 13.6181 17.4622 12.6693C17.4607 11.3975 16.9549 10.1782 16.0556 9.27891C15.1563 8.37961 13.937 7.87375 12.6652 7.87231ZM12.6652 16.0764C11.9913 16.0764 11.3326 15.8766 10.7723 15.5022C10.212 15.1278 9.77531 14.5957 9.51743 13.9731C9.25956 13.3506 9.19209 12.6655 9.32355 12.0046C9.45501 11.3437 9.7795 10.7366 10.256 10.2601C10.7325 9.78365 11.3396 9.45916 12.0005 9.3277C12.6614 9.19623 13.3464 9.26371 13.969 9.52158C14.5916 9.77946 15.1237 10.2162 15.498 10.7764C15.8724 11.3367 16.0722 11.9955 16.0722 12.6693C16.0714 13.5727 15.7121 14.4388 15.0734 15.0775C14.4346 15.7163 13.5685 16.0755 12.6652 16.0764Z" fill="#090729" stroke="#090729" stroke-width="0.25"/>
</g>
</g>
<g id="Group 205">
<g id="Group 204">
<path id="Ellipse 4" d="M17.4508 8.51417C17.799 8.51417 18.0813 8.23189 18.0813 7.88367C18.0813 7.53546 17.799 7.25317 17.4508 7.25317C17.1026 7.25317 16.8203 7.53546 16.8203 7.88367C16.8203 8.23189 17.1026 8.51417 17.4508 8.51417Z" fill="#090729" stroke="#090729" stroke-width="0.25"/>
</g>
</g>
</g>
</g>
</g>
<defs>
<clipPath id="clip0_1040_2583">
<rect width="24" height="24" fill="white"/>
</clipPath>
</defs>
</svg>
