<svg width="24" height="24" viewBox="0 0 24 24" fill="none" xmlns="http://www.w3.org/2000/svg">
<g id="Group 210" clip-path="url(#clip0_1040_2576)">
<g id="Group 210_2">
<g id="linkedin (6)">
<path id="Path 509" d="M20.0146 20.0005V13.9342C20.0146 10.965 19.3754 8.67818 15.9047 8.67818C15.2521 8.65316 14.6051 8.80594 14.0327 9.12019C13.4603 9.43444 12.984 9.89835 12.6549 10.4623H12.6061V8.95117H9.32275V20.0005H12.7502V14.53C12.7502 13.0892 13.0232 11.6962 14.8084 11.6962C16.5665 11.6962 16.5925 13.3406 16.5925 14.621V20.0005H20.0146Z" fill="#090729"/>
<path id="Path 510" d="M2.96289 8.9519H6.38926V20.0012H2.96289V8.9519Z" fill="#090729"/>
<path id="Path 511" d="M4.67269 2.66677C4.27705 2.66484 3.88976 2.78051 3.55998 2.99909C3.2302 3.21767 2.97279 3.52931 2.82045 3.89445C2.6681 4.25959 2.62768 4.66176 2.70431 5.04991C2.78095 5.43806 2.97118 5.79469 3.25087 6.07453C3.53055 6.35437 3.88708 6.54479 4.27519 6.62164C4.6633 6.69848 5.06549 6.65828 5.43071 6.50613C5.79593 6.35399 6.10771 6.09676 6.32647 5.76709C6.54523 5.43743 6.66111 5.0502 6.6594 4.65456C6.6594 4.12755 6.45012 3.62212 6.07757 3.24936C5.70502 2.87661 5.1997 2.66706 4.67269 2.66677Z" fill="#090729"/>
</g>
</g>
</g>
<defs>
<clipPath id="clip0_1040_2576">
<rect width="24" height="24" fill="white"/>
</clipPath>
</defs>
</svg>
