<svg width="29" height="29" viewBox="0 0 29 29" fill="none" xmlns="http://www.w3.org/2000/svg">
<g id="location-pin_1_ 1" clip-path="url(#clip0_1608_417)">
<g id="Group">
<path id="Vector" d="M15.621 0.0794086C15.4681 0.19269 15.4058 0.424915 15.4058 0.883705V1.30285H14.4939C13.1232 1.30285 11.9167 1.51241 10.7046 1.96554C4.86495 4.1462 1.863 10.7335 3.97003 16.7431C4.71769 18.8898 6.60949 21.3536 10.5913 25.3921C11.8657 26.6892 14.0747 28.8019 14.2956 28.9378C14.5958 29.1191 14.6581 29.0624 18.1698 25.647C20.2655 23.6023 20.5034 23.3474 20.5034 23.1038C20.5034 22.8829 20.3222 22.713 20.0843 22.713C19.9144 22.713 19.8181 22.798 19.0591 23.5909C18.3568 24.3329 15.6607 26.9441 14.7714 27.754L14.4995 27.9976L13.8368 27.3802C12.8003 26.4173 10.2005 23.8005 9.24894 22.7696C7.06261 20.3794 5.78253 18.6972 5.15949 17.3775C4.2589 15.4857 3.94171 13.1974 4.27589 11.1017C4.92159 7.11417 7.64601 3.863 11.3843 2.62257C12.3245 2.31105 13.0382 2.19777 14.2616 2.16945L15.4058 2.13546V2.62257V3.10402L14.8337 3.12667C14.0747 3.14933 14.0464 3.18331 14.0464 3.99327V4.58234L13.7802 4.61632C12.5907 4.76359 11.1917 5.19406 10.8066 5.53956C10.665 5.65851 10.6763 5.9757 10.8179 6.1173C10.9708 6.27023 11.1464 6.2589 11.5372 6.08331C12.2339 5.77179 12.9306 5.57921 13.7802 5.46593L14.0464 5.43195V8.49054V11.5548H13.48H12.9136V9.71398C12.9136 8.46222 12.8909 7.83351 12.8513 7.73722C12.7776 7.58429 12.5114 7.45968 12.3585 7.51632C12.3075 7.53331 12.2169 7.58995 12.1659 7.63527C12.0696 7.71456 12.064 7.88449 12.064 9.64034V11.5548H11.6109H11.1577V10.5636C11.1577 9.64601 11.1464 9.56105 11.0444 9.4591C10.9708 9.38546 10.8575 9.34581 10.7103 9.34581C10.3364 9.34581 10.3081 9.43644 10.3081 10.5749V11.5548H9.49249C8.77316 11.5548 8.65988 11.5661 8.54659 11.6624L8.41066 11.77L8.38234 14.3132L8.35402 16.8507L8.11613 16.3976C7.82159 15.8255 7.56105 15.0835 7.40812 14.3868C7.23253 13.6052 7.2382 12.2062 7.40812 11.4019C7.73097 9.89523 8.33702 8.73409 9.36222 7.66359C9.82667 7.17648 9.86066 7.11984 9.84367 6.92726C9.82101 6.66671 9.60011 6.4798 9.37921 6.53644C9.29425 6.5591 9.0337 6.77433 8.79015 7.01788C6.92101 8.91534 6.07706 11.6794 6.54152 14.3585C6.68312 15.1628 6.90402 15.8142 7.30617 16.6241C8.4673 18.9634 10.4667 20.5097 13.0269 21.0534C13.7009 21.195 15.2982 21.195 15.9722 21.0534C17.9999 20.623 19.6878 19.5525 20.9282 17.9099C21.387 17.3038 22.0384 16.0124 22.231 15.3214C22.9786 12.6989 22.5198 10.0538 20.9509 7.89015L20.6167 7.43136V5.80577V4.18019L20.8546 4.37277C22.5425 5.69816 23.8962 7.78253 24.4683 9.92355C24.7571 11.028 24.8308 11.5888 24.8308 12.8009C24.8308 15.7066 23.9755 17.8306 21.6532 20.7193C20.9509 21.5915 20.8773 21.7275 21.0132 21.9767C21.0812 22.1069 21.3474 22.1976 21.5003 22.1466C21.7495 22.0503 23.1542 20.2491 23.8566 19.1276C24.7911 17.6267 25.3689 16.0634 25.6068 14.3868C25.72 13.6052 25.703 11.8493 25.5784 11.0734C25.3292 9.50441 24.8761 8.21867 24.1228 6.89894C23.1202 5.14874 21.3417 3.42687 19.6708 2.58292L19.2573 2.37902V1.42179C19.2573 0.436243 19.212 0.15304 19.0308 0.0567513C18.8609 -0.0338726 15.74 -0.0112171 15.621 0.0794086ZM18.4077 1.98253V3.11535H17.3316H16.2554V1.98253V0.84972H17.3316H18.4077V1.98253ZM19.7671 10.9827V18.0005L19.3253 18.414C18.2038 19.4732 16.7935 20.1189 15.2245 20.3058L14.896 20.3398V12.1552V3.96495H17.3316H19.7671V10.9827ZM20.9226 9.4591C21.1831 9.96886 21.4437 10.7165 21.5909 11.4019C21.7665 12.2288 21.7665 13.6109 21.5853 14.4095C21.387 15.2818 20.9905 16.3069 20.679 16.7657C20.6394 16.8224 20.6167 15.6159 20.6167 12.8859C20.6167 10.1558 20.6394 8.94933 20.679 9.00597C20.7073 9.05128 20.8206 9.25519 20.9226 9.4591ZM14.0351 16.3523L14.0181 20.3058L13.7066 20.2831C13.1685 20.2491 12.1489 19.9603 11.5372 19.6657C10.7669 19.3032 10.2288 18.9407 9.68507 18.4253L9.23195 18.0005V15.2025V12.4044H11.6392H14.0464L14.0351 16.3523Z" fill="#3AC48A" stroke="#3AC48A" stroke-width="0.25"/>
<path id="Vector_2" d="M16.1989 6.40039C16.0573 6.54199 16.0517 6.80254 16.1933 6.97246C16.3009 7.1084 16.3179 7.1084 17.3317 7.1084C18.3456 7.1084 18.3626 7.1084 18.4702 6.97246C18.6005 6.81387 18.6061 6.58164 18.4872 6.41172C18.4022 6.29277 18.3739 6.28711 17.3544 6.28711C16.3858 6.28711 16.3065 6.29277 16.1989 6.40039Z" fill="#3AC48A" stroke="#3AC48A" stroke-width="0.25"/>
<path id="Vector_3" d="M16.204 9.71953C16.0454 9.91777 16.0567 10.1104 16.2266 10.2803C16.3626 10.4219 16.3796 10.4219 17.3311 10.4219C18.2827 10.4219 18.2997 10.4219 18.4356 10.2803C18.6056 10.1104 18.6169 9.91777 18.4583 9.71953L18.345 9.57227H17.3311H16.3173L16.204 9.71953Z" fill="#3AC48A" stroke="#3AC48A" stroke-width="0.25"/>
<path id="Vector_4" d="M16.2266 12.999C16.0567 13.1689 16.0454 13.3615 16.204 13.5598L16.3173 13.707H17.3255C18.3054 13.707 18.3337 13.7014 18.4526 13.5768C18.6169 13.4012 18.6112 13.1689 18.4356 12.999C18.2997 12.8574 18.2827 12.8574 17.3311 12.8574C16.3796 12.8574 16.3626 12.8574 16.2266 12.999Z" fill="#3AC48A" stroke="#3AC48A" stroke-width="0.25"/>
<path id="Vector_5" d="M16.1989 16.3125C16.0573 16.4541 16.0517 16.7146 16.1933 16.8846C16.3009 17.0205 16.3179 17.0205 17.3317 17.0205C18.3456 17.0205 18.3626 17.0205 18.4702 16.8846C18.6118 16.7146 18.6061 16.4541 18.4645 16.3125C18.3569 16.2049 18.2776 16.1992 17.3317 16.1992C16.3858 16.1992 16.3065 16.2049 16.1989 16.3125Z" fill="#3AC48A" stroke="#3AC48A" stroke-width="0.25"/>
<path id="Vector_6" d="M10.3992 13.8262C10.2576 13.9394 10.252 13.9621 10.252 14.5625C10.252 15.1062 10.2633 15.1912 10.3652 15.2932C10.5521 15.4801 10.79 15.4631 10.977 15.2592C11.0846 15.1346 11.1016 15.0553 11.1016 14.6078C11.1016 14.0414 11.0166 13.7978 10.807 13.7412C10.6031 13.6902 10.5635 13.6959 10.3992 13.8262Z" fill="#3AC48A" stroke="#3AC48A" stroke-width="0.25"/>
<path id="Vector_7" d="M12.2684 13.8262C12.1268 13.9394 12.1211 13.9621 12.1211 14.5625C12.1211 15.1062 12.1324 15.1912 12.2344 15.2932C12.4213 15.4801 12.6592 15.4631 12.8461 15.2592C12.9537 15.1346 12.9707 15.0553 12.9707 14.6078C12.9707 14.0414 12.8857 13.7978 12.6762 13.7412C12.4723 13.6902 12.4326 13.6959 12.2684 13.8262Z" fill="#3AC48A" stroke="#3AC48A" stroke-width="0.25"/>
<path id="Vector_8" d="M10.4955 16.8223C10.2973 16.9016 10.252 17.0602 10.252 17.6606C10.252 18.2836 10.3143 18.4252 10.6031 18.4989C10.7277 18.5272 10.79 18.4989 10.9316 18.3629C11.0959 18.1987 11.1016 18.1703 11.1016 17.6776C11.1016 17.1112 11.0449 16.9242 10.8354 16.828C10.6768 16.7543 10.6654 16.7543 10.4955 16.8223Z" fill="#3AC48A" stroke="#3AC48A" stroke-width="0.25"/>
<path id="Vector_9" d="M12.3646 16.8223C12.1664 16.9016 12.1211 17.0602 12.1211 17.6606C12.1211 18.2836 12.1834 18.4252 12.4723 18.4989C12.5969 18.5272 12.6592 18.4989 12.8008 18.3629C12.965 18.1987 12.9707 18.1703 12.9707 17.6776C12.9707 17.1112 12.9141 16.9242 12.7045 16.828C12.5459 16.7543 12.5346 16.7543 12.3646 16.8223Z" fill="#3AC48A" stroke="#3AC48A" stroke-width="0.25"/>
</g>
</g>
<defs>
<clipPath id="clip0_1608_417">
<rect width="29" height="29" fill="white"/>
</clipPath>
</defs>
</svg>
