<svg width="42" height="42" viewBox="0 0 42 42" fill="none" xmlns="http://www.w3.org/2000/svg">
<g id="phone 1">
<g id="Group">
<path id="Vector" d="M23.1322 3.11661C23.0407 3.17992 22.9282 3.3417 22.8719 3.46832C22.7875 3.67231 22.7875 3.74265 22.8719 3.94664C23.0196 4.29835 23.2236 4.41089 23.7301 4.41089C23.9692 4.41089 24.4898 4.44606 24.8907 4.48124C31.5731 5.16355 36.8628 10.4532 37.5451 17.1357C37.5803 17.5366 37.6155 18.0571 37.6155 18.2963C37.6155 18.8028 37.728 19.0067 38.0797 19.1545C38.2837 19.2389 38.3541 19.2389 38.558 19.1545C39.0434 18.9505 39.1067 18.6199 38.952 17.0653C38.4807 12.2891 35.9062 8.08272 31.8334 5.43788C30.9823 4.88218 29.3715 4.11546 28.3515 3.78486C26.4593 3.16585 23.5894 2.80008 23.1322 3.11661Z" fill="#3AC48A"/>
<path id="Vector_2" d="M23.1472 7.35657C22.7603 7.59573 22.704 8.13033 23.0416 8.42576C23.2245 8.58755 23.323 8.61569 24.0124 8.65789C29.1262 8.98146 33.0442 12.8995 33.3678 18.0133C33.41 18.7097 33.4381 18.8011 33.5999 18.9911C33.9305 19.3568 34.5354 19.2302 34.7324 18.7589C34.9223 18.2947 34.648 16.3181 34.1978 14.9253C33.1638 11.7459 30.4697 9.00256 27.3043 7.90524C26.411 7.59573 25.5247 7.39174 24.6595 7.3003C23.6888 7.19479 23.4074 7.20182 23.1472 7.35657Z" fill="#3AC48A"/>
<path id="Vector_3" d="M7.67903 8.19483C7.48207 8.26517 7.19367 8.41992 7.03892 8.54654C6.43398 9.02486 4.8302 10.7623 4.42222 11.3813C3.00836 13.5197 2.64258 16.0801 3.40227 18.4928C3.74694 19.5831 5.15377 22.1857 6.51136 24.2468C8.05887 26.5962 9.57825 28.4391 11.7237 30.5845C13.8339 32.6877 15.4025 33.982 17.6746 35.5014C19.3276 36.5987 21.5011 37.8438 22.6055 38.308C24.772 39.2295 27.0933 39.2295 29.2668 38.315C29.928 38.0337 30.5822 37.6327 31.2505 37.0981C32.0242 36.4721 33.5506 34.8965 33.7124 34.5518C33.9023 34.1508 33.9305 33.4263 33.7827 32.955C33.6702 32.6104 33.4521 32.3712 30.5892 29.5013C27.1636 26.0616 27.1425 26.0475 26.2984 26.0475C25.5106 26.0475 25.3136 26.1811 23.7239 27.7568C22.9502 28.5235 22.2045 29.2129 22.0709 29.2832C21.9161 29.3606 21.677 29.4098 21.4238 29.4098C21.0439 29.4028 20.9736 29.3746 20.2983 28.9245C19.8973 28.6642 19.2432 28.1929 18.8352 27.8764C18.174 27.3699 18.0614 27.3066 17.7941 27.3066C17.5409 27.3066 17.4565 27.3418 17.3158 27.5036C17.1189 27.7357 17.0907 28.1437 17.2525 28.3688C17.4565 28.6642 19.5949 30.2117 20.2842 30.5634C20.7203 30.7885 21.4097 30.887 21.895 30.7955C22.7321 30.6408 22.9713 30.472 24.5258 28.9245C25.4051 28.0593 26.0452 27.4754 26.1577 27.4473C26.2773 27.4192 26.425 27.4403 26.5446 27.5036C26.6572 27.5669 28.0358 28.9034 29.6185 30.486C32.4392 33.3208 32.4814 33.363 32.4814 33.6444C32.4814 33.9187 32.4392 33.9679 31.3349 35.0512C30.1391 36.2329 29.717 36.5495 28.8448 36.9575C27.8952 37.3936 27.1003 37.5624 25.9748 37.5624C24.4273 37.5694 23.6887 37.3443 21.7895 36.3244C16.6194 33.5318 12.5748 30.071 9.07882 25.4426C7.32029 23.1143 5.26632 19.6394 4.77393 18.1622C4.26747 16.6288 4.31671 14.9265 4.92868 13.4142C5.33666 12.4153 5.6743 11.944 6.8701 10.7201C7.51021 10.0729 8.10108 9.52428 8.19252 9.50318C8.28397 9.47504 8.44575 9.49615 8.55126 9.53835C8.66381 9.58759 10.0566 10.9311 11.6463 12.5279C14.467 15.3486 14.5444 15.433 14.5444 15.7003C14.5444 15.9605 14.481 16.0379 13.1094 17.4166C11.8432 18.6898 11.6393 18.9289 11.4423 19.351C11.2664 19.7308 11.2031 19.963 11.182 20.378C11.1328 21.1869 11.2735 21.5527 12.0261 22.6711C12.8843 23.9513 13.039 24.1061 13.4119 24.1061C13.651 24.1061 13.7565 24.0639 13.9183 23.9021C14.27 23.5504 14.2138 23.3534 13.4822 22.3124C12.7295 21.2502 12.5818 20.9477 12.5748 20.5327C12.5748 19.9911 12.7295 19.7801 14.256 18.2396C15.8668 16.6077 15.9512 16.474 15.9512 15.6651C15.9512 14.8702 15.8597 14.7577 12.5256 11.4376C10.4575 9.36953 9.41646 8.38475 9.1984 8.27924C8.76932 8.06118 8.14328 8.02601 7.67903 8.19483Z" fill="#3AC48A"/>
<path id="Vector_4" d="M23.2172 11.5429C22.7741 11.7398 22.6827 12.3237 23.0414 12.6473C23.2102 12.802 23.3368 12.8372 23.8292 12.8794C25.8269 13.0552 27.4026 14.033 28.3944 15.7141C28.7813 16.3754 29.0204 17.1421 29.1189 18.0354C29.1892 18.6826 29.2244 18.8162 29.3862 18.9921C29.5269 19.1468 29.6254 19.196 29.8293 19.196C30.4413 19.196 30.6312 18.8232 30.5187 17.8244C30.2444 15.3624 28.8094 13.3014 26.6077 12.2041C25.4822 11.6414 23.7518 11.3037 23.2172 11.5429Z" fill="#3AC48A"/>
<path id="Vector_5" d="M23.0767 15.8387C22.9008 15.9583 22.7812 16.31 22.8305 16.5562C22.8868 16.8376 23.1752 17.0556 23.5691 17.1049C24.3288 17.2033 24.8211 17.6957 24.9196 18.4554C24.997 19.0322 25.3417 19.2995 25.8481 19.1659C26.1717 19.0814 26.3124 18.8353 26.2983 18.3851C26.2772 17.3651 25.6652 16.4436 24.6875 15.9653C24.2021 15.7262 23.3229 15.6558 23.0767 15.8387Z" fill="#3AC48A"/>
<path id="Vector_6" d="M15.03 25.3564C14.6502 25.6941 14.7557 26.2709 15.227 26.4678C15.4169 26.5522 15.5224 26.5593 15.7123 26.496C16.2047 26.3342 16.3313 25.7363 15.9585 25.3635C15.6771 25.0891 15.3325 25.0821 15.03 25.3564Z" fill="#3AC48A"/>
</g>
</g>
</svg>
