<svg width="17" height="15" viewBox="0 0 17 15" fill="none" xmlns="http://www.w3.org/2000/svg">
<path d="M10.2768 1.12933L16.183 7.03558C16.2441 7.09653 16.2925 7.16891 16.3255 7.24857C16.3585 7.32824 16.3755 7.41364 16.3755 7.49988C16.3755 7.58612 16.3585 7.67152 16.3255 7.75118C16.2925 7.83085 16.2441 7.90323 16.183 7.96418L10.2768 13.8704C10.1537 13.9936 9.98664 14.0627 9.8125 14.0627C9.63836 14.0627 9.47134 13.9936 9.3482 13.8704C9.22506 13.7473 9.15588 13.5803 9.15588 13.4061C9.15588 13.232 9.22506 13.065 9.3482 12.9418L14.1347 8.15613L1.28125 8.15613C1.1072 8.15613 0.940282 8.08699 0.817211 7.96392C0.69414 7.84085 0.625 7.67393 0.625 7.49988C0.625 7.32583 0.69414 7.15891 0.817211 7.03584C0.940282 6.91277 1.1072 6.84363 1.28125 6.84363L14.1347 6.84363L9.3482 2.05793C9.22506 1.93479 9.15588 1.76777 9.15588 1.59363C9.15588 1.41948 9.22506 1.25247 9.3482 1.12933C9.47134 1.00619 9.63835 0.937013 9.8125 0.937013C9.98664 0.937013 10.1537 1.00619 10.2768 1.12933Z" fill="#767676"/>
</svg>
