<svg width="24" height="24" viewBox="0 0 24 24" fill="none" xmlns="http://www.w3.org/2000/svg">
<g id="time-management 1" clip-path="url(#clip0_1614_1285)">
<g id="Group">
<path id="Vector" d="M11.3668 0.684376C7.24652 0.923439 3.63245 3.30469 1.8512 6.95625C1.4387 7.8 1.22308 8.36719 1.03558 9.12188C0.473079 11.3391 0.576204 13.5609 1.34027 15.7266C1.71058 16.7766 2.46527 18.1219 3.18714 19.0172C3.3512 19.2188 3.99339 19.8938 4.61214 20.5219C5.64808 21.5625 5.75589 21.6563 5.9012 21.6563C6.04652 21.6563 6.15433 21.5672 7.05902 20.6625L8.05745 19.6734L8.46995 19.8609C8.69495 19.9641 8.99496 20.0859 9.13089 20.1328L9.37464 20.2125V21.6141V23.0203L9.49183 23.1328L9.60433 23.25H11.9996H14.395L14.5075 23.1328L14.6246 23.0203V21.6141V20.2125L14.8731 20.1328C15.0043 20.0859 15.3043 19.9641 15.5293 19.8609L15.9418 19.6734L16.9403 20.6625C17.845 21.5672 17.9481 21.6563 18.0934 21.6563C18.2434 21.6563 18.384 21.5297 19.9356 19.9828C20.859 19.0594 21.6231 18.2578 21.6371 18.2016C21.6512 18.1453 21.6512 18.0516 21.6325 17.9906C21.6137 17.9297 21.1637 17.4469 20.634 16.9125L19.6731 15.9422L19.8606 15.5297C19.9637 15.3047 20.0856 15.0047 20.1325 14.8688L20.2121 14.625H21.6137H23.02L23.1325 14.5078L23.2496 14.3953V12V9.60469L23.1325 9.49219L23.02 9.375H21.6137H20.2121L20.1325 9.12656C20.0856 8.99531 19.9637 8.69531 19.8606 8.47031L19.6731 8.05781L20.6621 7.05938C21.5668 6.15469 21.6559 6.04688 21.6559 5.90156C21.6559 5.75625 21.5621 5.64844 20.5215 4.6125C19.8934 3.99375 19.2043 3.34219 18.984 3.16875C17.334 1.84688 15.2762 0.984377 13.2184 0.754688C12.7356 0.698439 11.7559 0.660938 11.3668 0.684376ZM13.5465 1.61719C15.6184 1.95938 17.4512 2.80781 18.9371 4.12031L19.1481 4.30781L18.8856 4.575L18.6231 4.8375L18.2528 4.52813C16.9168 3.40313 15.234 2.64844 13.4293 2.3625C12.7168 2.25 11.3106 2.25 10.6168 2.3625C8.91058 2.63438 7.41527 3.2625 6.08402 4.27031C5.58245 4.64531 4.64495 5.58281 4.26995 6.08438C3.26214 7.41563 2.63402 8.91094 2.36214 10.6172C2.24964 11.3109 2.24964 12.7172 2.36214 13.4297C2.64808 15.2297 3.40277 16.9219 4.52777 18.2531L4.83714 18.6234L4.57464 18.8859L4.30745 19.1484L4.11995 18.9375C2.80277 17.4422 1.95902 15.6281 1.61214 13.5234C1.48089 12.7547 1.49027 11.1563 1.63089 10.3594C2.03402 8.01094 3.05589 6.05625 4.71995 4.44844C6.46839 2.76094 8.59652 1.79531 11.1325 1.52813C11.5309 1.48594 13.12 1.54219 13.5465 1.61719ZM12.9278 3.05156C14.6996 3.24375 16.3871 3.95156 17.7278 5.06719L18.0934 5.36719L16.5934 6.86719C15.1731 8.29219 15.0934 8.38125 15.0934 8.54063C15.0934 8.68125 15.1403 8.76563 15.3278 8.98125C15.7965 9.51563 16.12 10.1109 16.3215 10.8094C16.4153 11.1328 16.4293 11.2875 16.4293 11.9766C16.4293 12.6656 16.4153 12.8203 16.3215 13.1438C15.8668 14.7094 14.709 15.8672 13.1434 16.3219C12.82 16.4156 12.6653 16.4297 11.9762 16.4297C11.2871 16.4297 11.1325 16.4156 10.809 16.3219C10.1106 16.1203 9.51527 15.7969 8.98089 15.3281C8.76527 15.1406 8.68089 15.0938 8.54027 15.0938C8.38089 15.0938 8.29183 15.1734 6.86683 16.5938L5.36683 18.0938L5.06683 17.7281C2.16527 14.2406 2.34808 9.1125 5.4887 5.79375C7.37308 3.80156 10.2137 2.75156 12.9278 3.05156ZM20.2262 5.39063L20.7418 5.90625L19.7903 6.85781C18.9793 7.67344 18.8434 7.82813 18.8434 7.95C18.8434 8.02969 18.9465 8.30156 19.0731 8.55938C19.1996 8.8125 19.3731 9.22969 19.4528 9.48281C19.6825 10.1672 19.57 10.125 21.1684 10.125H22.4996V12V13.875H21.1684C19.57 13.875 19.6825 13.8328 19.4528 14.5172C19.3731 14.7703 19.1996 15.1875 19.0731 15.4406C18.9465 15.6984 18.8434 15.9703 18.8434 16.05C18.8434 16.1719 18.9793 16.3266 19.7903 17.1422L20.7418 18.0938L19.4153 19.4156L18.0934 20.7422L17.1418 19.7906C16.3262 18.9797 16.1715 18.8438 16.0496 18.8438C15.97 18.8438 15.6981 18.9469 15.4403 19.0734C15.1871 19.2 14.77 19.3734 14.5168 19.4531C13.8325 19.6828 13.8746 19.5703 13.8746 21.1688V22.5H11.9996H10.1246V21.1688C10.1246 19.5703 10.1668 19.6781 9.48246 19.4531C9.22933 19.3688 8.81683 19.2 8.5637 19.0734C8.30589 18.9469 8.03402 18.8438 7.95433 18.8438C7.82777 18.8438 7.68714 18.9656 6.85745 19.7906L5.90589 20.7422L5.3762 20.2125L4.8512 19.6875L6.70745 17.8313L8.5637 15.975L8.87777 16.2141C9.28558 16.5234 10.134 16.9359 10.6075 17.0578C11.4325 17.2688 12.2996 17.2969 13.059 17.1375C14.1606 16.9031 15.2434 16.275 15.9465 15.4547C17.1137 14.1 17.5121 12.3656 17.0575 10.6078C16.9356 10.1344 16.5231 9.28594 16.2137 8.87813L15.9746 8.56406L17.8215 6.71719C18.834 5.70469 19.6731 4.875 19.6871 4.875C19.7012 4.875 19.945 5.10469 20.2262 5.39063Z" fill="#3AC48A" stroke="#3AC48A" stroke-width="0.25"/>
<path id="Vector_2" d="M11.7422 3.49219C11.6297 3.6 11.625 3.6375 11.625 4.125C11.625 4.6125 11.6297 4.65 11.7422 4.75781C11.8125 4.83281 11.9109 4.875 12 4.875C12.0891 4.875 12.1875 4.83281 12.2578 4.75781C12.3703 4.65 12.375 4.6125 12.375 4.125C12.375 3.6375 12.3703 3.6 12.2578 3.49219C12.1875 3.41719 12.0891 3.375 12 3.375C11.9109 3.375 11.8125 3.41719 11.7422 3.49219Z" fill="#3AC48A" stroke="#3AC48A" stroke-width="0.25"/>
<path id="Vector_3" d="M7.59828 4.62187C7.46234 4.79531 7.47172 4.88906 7.66859 5.24531C7.95453 5.77031 8.03891 5.85938 8.24984 5.85938C8.39047 5.85938 8.45141 5.83125 8.52641 5.7375C8.66234 5.56406 8.65297 5.47031 8.45609 5.11406C8.16078 4.58437 8.08109 4.5 7.87484 4.5C7.73422 4.5 7.67328 4.52812 7.59828 4.62187Z" fill="#3AC48A" stroke="#3AC48A" stroke-width="0.25"/>
<path id="Vector_4" d="M15.8297 4.65C15.6469 4.89844 15.375 5.41406 15.375 5.51719C15.375 5.56875 15.4172 5.66719 15.4734 5.7375C15.5484 5.83125 15.6094 5.85938 15.75 5.85938C15.9609 5.85938 16.0453 5.77031 16.3313 5.24531C16.5281 4.88906 16.5375 4.79531 16.4016 4.62187C16.3266 4.52812 16.2656 4.5 16.125 4.5C15.975 4.5 15.9234 4.52812 15.8297 4.65Z" fill="#3AC48A" stroke="#3AC48A" stroke-width="0.25"/>
<path id="Vector_5" d="M11.742 6.11719L11.6248 6.22969V8.38594V10.5422L11.3811 10.6547C11.067 10.8 10.7998 11.0672 10.6545 11.3766L10.542 11.625H9.13574H7.72949L7.61699 11.7422C7.4623 11.8922 7.4623 12.1078 7.61699 12.2578L7.72949 12.375H9.13574H10.542L10.6545 12.6234C10.7998 12.9469 11.0576 13.2 11.3857 13.3547C11.6014 13.4578 11.7139 13.4766 12.0232 13.4719C12.6232 13.4672 13.0311 13.2234 13.3123 12.6938C13.4576 12.4313 13.4717 12.3609 13.4764 12.0234C13.4764 11.7141 13.4529 11.6016 13.3545 11.3859C13.1998 11.0578 12.9467 10.8 12.6232 10.6547L12.3748 10.5422V8.38594V6.22969L12.2576 6.11719C12.1873 6.04219 12.0889 6.00001 11.9998 6.00001C11.9107 6.00001 11.8123 6.04219 11.742 6.11719ZM12.2951 11.3156C12.7779 11.5172 12.8951 12.1453 12.5201 12.5203C12.2154 12.825 11.7842 12.825 11.4795 12.5203C10.8982 11.9438 11.5404 10.9969 12.2951 11.3156Z" fill="#3AC48A" stroke="#3AC48A" stroke-width="0.25"/>
<path id="Vector_6" d="M4.62188 7.59847C4.52813 7.67347 4.5 7.73441 4.5 7.87503C4.5 8.08597 4.58906 8.17035 5.11406 8.45628C5.47031 8.65316 5.56406 8.66253 5.7375 8.5266C5.83125 8.4516 5.85938 8.39066 5.85938 8.25003C5.85938 8.0391 5.77031 7.95472 5.24531 7.66878C4.88906 7.47191 4.79531 7.46253 4.62188 7.59847Z" fill="#3AC48A" stroke="#3AC48A" stroke-width="0.25"/>
<path id="Vector_7" d="M14.1323 9.3515C13.9495 9.52963 13.9776 9.69838 14.2495 10.0171C14.5448 10.3593 14.8354 10.9124 14.9292 11.3015C15.0183 11.6859 15.0183 12.3609 14.9292 12.7453C14.6854 13.7718 13.7714 14.6859 12.7448 14.9296C12.3604 15.0187 11.6854 15.0187 11.3011 14.9296C10.912 14.8359 10.3589 14.5453 10.0167 14.2499C9.69794 13.9781 9.52919 13.9499 9.35107 14.1328C9.15419 14.3249 9.21044 14.5312 9.53857 14.8218C10.5745 15.7265 11.9808 15.9843 13.2979 15.5062C14.8823 14.9343 15.9276 13.2421 15.7167 11.5921C15.6183 10.8187 15.2714 10.0359 14.8026 9.52494C14.512 9.2015 14.3245 9.15463 14.1323 9.3515Z" fill="#3AC48A" stroke="#3AC48A" stroke-width="0.25"/>
<path id="Vector_8" d="M3.49219 11.7422C3.41719 11.8125 3.375 11.9109 3.375 12C3.375 12.0891 3.41719 12.1875 3.49219 12.2578C3.6 12.3703 3.6375 12.375 4.125 12.375C4.6125 12.375 4.65 12.3703 4.75781 12.2578C4.83281 12.1875 4.875 12.0891 4.875 12C4.875 11.9109 4.83281 11.8125 4.75781 11.7422C4.65 11.6297 4.6125 11.625 4.125 11.625C3.6375 11.625 3.6 11.6297 3.49219 11.7422Z" fill="#3AC48A" stroke="#3AC48A" stroke-width="0.25"/>
<path id="Vector_9" d="M5.03906 15.5907C4.54219 15.8719 4.5 15.9141 4.5 16.1297C4.5 16.2657 4.52813 16.3266 4.62188 16.4016C4.79531 16.5375 4.88906 16.5282 5.24531 16.3313C5.77031 16.0453 5.85938 15.961 5.85938 15.75C5.85938 15.6094 5.83125 15.5485 5.7375 15.4735C5.55938 15.3328 5.46094 15.3516 5.03906 15.5907Z" fill="#3AC48A" stroke="#3AC48A" stroke-width="0.25"/>
<path id="Vector_10" d="M21 12V12.375H21.375H21.75V12V11.625H21.375H21V12Z" fill="#3AC48A" stroke="#3AC48A" stroke-width="0.25"/>
<path id="Vector_11" d="M18.3609 18.3656L18.0938 18.6375L18.3422 18.8812C18.4781 19.0172 18.6094 19.125 18.6375 19.125C18.6984 19.125 19.125 18.6891 19.125 18.6281C19.125 18.6047 19.0125 18.4734 18.8766 18.3375L18.6281 18.0938L18.3609 18.3656Z" fill="#3AC48A" stroke="#3AC48A" stroke-width="0.25"/>
<path id="Vector_12" d="M11.625 21.375V21.75H12H12.375V21.375V21H12H11.625V21.375Z" fill="#3AC48A" stroke="#3AC48A" stroke-width="0.25"/>
</g>
</g>
<defs>
<clipPath id="clip0_1614_1285">
<rect width="24" height="24" fill="white"/>
</clipPath>
</defs>
</svg>
