<svg width="127" height="126" viewBox="0 0 127 126" fill="none" xmlns="http://www.w3.org/2000/svg">
<path fill-rule="evenodd" clip-rule="evenodd" d="M63.8503 126C98.6436 126 126.849 97.7945 126.849 63.0012C126.849 28.208 98.6436 0.00246811 63.8503 0.00246811C29.0571 0.00246811 0.851562 28.208 0.851562 63.0012C0.851562 97.7945 29.0571 126 63.8503 126ZM63.4244 100.46C83.8772 100.46 100.457 83.6892 100.457 63.0013C100.457 42.3134 83.8772 25.5426 63.4244 25.5426C42.9716 25.5426 26.3913 42.3134 26.3913 63.0013C26.3913 83.6892 42.9716 100.46 63.4244 100.46Z" fill="#3AC48A"/>
<path d="M63.8503 125.998C50.2424 125.998 37.0003 121.591 26.1052 113.438C15.2101 105.285 7.24778 93.8236 3.40953 80.7682L27.8448 73.5843C30.1313 81.3616 34.8746 88.1895 41.365 93.0464C47.8553 97.9033 55.7439 100.528 63.8503 100.528L63.8503 125.998Z" fill="#36A275"/>
<path d="M65.5064 109.786V118.513H60.2393V117.575H64.4496V114.627H60.5121V113.689H64.4496V110.723H60.1712V109.786H65.5064Z" fill="white"/>
<path d="M58.104 107.133L56.6226 116.01L55.6643 115.85L55.8354 114.824L55.7177 114.805C55.6262 114.905 55.5014 115.031 55.3436 115.183C55.1824 115.338 54.9685 115.463 54.7018 115.56C54.4318 115.659 54.0866 115.673 53.6663 115.603C53.1227 115.512 52.6662 115.296 52.2969 114.955C51.9275 114.614 51.6681 114.175 51.5188 113.638C51.3694 113.1 51.3513 112.492 51.4645 111.814C51.5786 111.13 51.7938 110.557 52.1101 110.094C52.4259 109.634 52.8127 109.301 53.2704 109.095C53.7277 108.892 54.2253 108.836 54.7633 108.925C55.1781 108.995 55.4987 109.119 55.7251 109.298C55.9511 109.479 56.1167 109.67 56.2217 109.869C56.3263 110.07 56.4052 110.236 56.4584 110.366L56.5425 110.38L57.112 106.967L58.104 107.133ZM56.1861 112.619C56.2675 112.132 56.2678 111.689 56.1871 111.293C56.1059 110.899 55.9456 110.574 55.706 110.318C55.466 110.065 55.147 109.905 54.7491 109.839C54.3344 109.77 53.9701 109.821 53.6562 109.994C53.3391 110.168 53.0793 110.43 52.877 110.779C52.6715 111.131 52.5303 111.537 52.4537 111.996C52.3779 112.45 52.3797 112.871 52.459 113.259C52.5351 113.649 52.6954 113.974 52.9401 114.233C53.1815 114.495 53.5124 114.661 53.9327 114.732C54.3362 114.799 54.6924 114.753 55.0011 114.594C55.3094 114.439 55.564 114.19 55.7649 113.849C55.9653 113.511 56.1057 113.101 56.1861 112.619Z" fill="white"/>
<path d="M48.2272 107.408L46.1019 113.599L45.1507 113.273L47.276 107.082L48.2272 107.408ZM45.264 114.465C45.4494 114.529 45.5876 114.647 45.6786 114.819C45.7669 114.991 45.7807 115.165 45.7198 115.342C45.6589 115.52 45.5409 115.649 45.3659 115.73C45.1882 115.81 45.0067 115.818 44.8213 115.755C44.6359 115.691 44.499 115.574 44.4107 115.402C44.3197 115.23 44.3047 115.055 44.3655 114.877C44.4264 114.7 44.5457 114.571 44.7234 114.491C44.8984 114.41 45.0786 114.401 45.264 114.465Z" fill="white"/>
<path d="M36.1099 107.449L37.0261 107.654C37.0045 107.813 37.0085 107.982 37.0384 108.159C37.0643 108.338 37.1375 108.513 37.2578 108.685C37.378 108.857 37.5669 109.012 37.8242 109.152C38.1765 109.342 38.514 109.42 38.8368 109.385C39.1557 109.35 39.382 109.21 39.5159 108.962C39.6349 108.742 39.6489 108.526 39.558 108.312C39.467 108.098 39.2746 107.856 38.9808 107.587L38.2399 106.915C37.7928 106.512 37.5127 106.113 37.3996 105.719C37.2852 105.328 37.3368 104.931 37.5545 104.529C37.733 104.199 37.9875 103.955 38.318 103.798C38.646 103.64 39.0192 103.577 39.4377 103.609C39.8561 103.642 40.2889 103.779 40.7361 104.021C41.3233 104.339 41.7403 104.73 41.9871 105.193C42.234 105.656 42.2761 106.16 42.1136 106.705L41.1605 106.461C41.2482 106.107 41.2228 105.793 41.0843 105.518C40.9432 105.241 40.6916 105.005 40.3293 104.809C39.917 104.586 39.5424 104.496 39.2054 104.54C38.8645 104.585 38.6272 104.731 38.4933 104.978C38.3851 105.178 38.3645 105.384 38.4314 105.594C38.497 105.807 38.6564 106.026 38.9097 106.25L39.7475 106.994C40.207 107.405 40.4895 107.808 40.5949 108.204C40.6964 108.601 40.6397 108.999 40.4247 109.396C40.2489 109.721 40.0022 109.959 39.6846 110.11C39.3645 110.26 39.0073 110.32 38.6129 110.291C38.216 110.26 37.8152 110.135 37.4105 109.916C36.8408 109.608 36.4612 109.241 36.2716 108.815C36.0795 108.388 36.0256 107.933 36.1099 107.449Z" fill="white"/>
<path d="M34.2595 99.791C34.7258 100.154 35.0486 100.583 35.2278 101.079C35.4048 101.573 35.4366 102.097 35.3233 102.649C35.2078 103.2 34.9423 103.742 34.527 104.276C34.1083 104.814 33.6452 105.208 33.1378 105.457C32.6282 105.705 32.1121 105.804 31.5896 105.754C31.0649 105.702 30.5694 105.494 30.1031 105.131C29.6368 104.768 29.3151 104.34 29.1381 103.845C28.9589 103.35 28.928 102.825 29.0453 102.272C29.1603 101.717 29.4272 101.171 29.846 100.633C30.2613 100.099 30.7229 99.7095 31.2308 99.464C31.7364 99.2168 32.2516 99.1192 32.7763 99.1712C33.2988 99.2214 33.7932 99.428 34.2595 99.791ZM33.7046 100.504C33.3504 100.228 32.9883 100.092 32.6183 100.096C32.2483 100.099 31.8932 100.206 31.553 100.417C31.2128 100.627 30.9084 100.905 30.6396 101.25C30.3709 101.596 30.1754 101.96 30.0532 102.344C29.931 102.727 29.9127 103.1 29.9983 103.462C30.0839 103.824 30.3038 104.143 30.658 104.418C31.0122 104.694 31.3752 104.829 31.7469 104.823C32.1187 104.817 32.4755 104.708 32.8175 104.495C33.1594 104.283 33.4647 104.004 33.7334 103.658C34.0021 103.313 34.1967 102.95 34.3172 102.568C34.4377 102.187 34.4543 101.816 34.3669 101.457C34.2796 101.097 34.0588 100.78 33.7046 100.504Z" fill="white"/>
<path d="M28.6276 94.6155C28.997 95.0168 29.2218 95.4644 29.3019 95.9583C29.3799 96.4541 29.3128 96.96 29.1004 97.476C28.886 97.9939 28.5238 98.4875 28.0138 98.957C27.508 99.4226 26.9892 99.74 26.4574 99.909C25.9257 100.078 25.4161 100.101 24.9286 99.9784C24.4411 99.8557 24.0107 99.5916 23.6374 99.1862C23.3488 98.8726 23.173 98.5769 23.1101 98.2988C23.0432 98.0206 23.0314 97.7728 23.0745 97.5554C23.1137 97.3379 23.1501 97.1635 23.1836 97.0322L23.1259 96.9695L20.7557 99.1514L20.0746 98.4115L26.4954 92.5007L27.1535 93.2155L26.4136 93.8966L26.4944 93.9844C26.6322 93.958 26.8142 93.9333 27.0403 93.9105C27.2643 93.8896 27.5142 93.9241 27.79 94.0139C28.0636 94.1056 28.3429 94.3062 28.6276 94.6155ZM27.8706 95.127C27.5974 94.8302 27.2892 94.6506 26.9459 94.5882C26.6006 94.5276 26.2409 94.5711 25.8669 94.7185C25.4908 94.8678 25.1209 95.1098 24.7572 95.4446C24.3977 95.7756 24.1312 96.1174 23.9578 96.4701C23.7823 96.8247 23.7136 97.1737 23.7517 97.5171C23.7877 97.8624 23.9442 98.1855 24.2212 98.4865C24.5099 98.8 24.8308 98.9872 25.1842 99.0481C25.5335 99.1088 25.8932 99.0653 26.2632 98.9178C26.6292 98.7701 26.9815 98.5404 27.3201 98.2287C27.6629 97.9131 27.9262 97.5742 28.1101 97.2118C28.2899 96.8493 28.3672 96.4886 28.3418 96.1297C28.3124 95.7706 28.1554 95.4364 27.8706 95.127Z" fill="white"/>
<path d="M23.7399 88.3224C24.0848 88.8504 24.2659 89.3819 24.283 89.9171C24.2961 90.4515 24.1598 90.9596 23.874 91.4416C23.5843 91.9227 23.1588 92.3466 22.5975 92.7133C22.0363 93.08 21.4748 93.3009 20.913 93.3761C20.3474 93.4504 19.824 93.3817 19.343 93.17C18.858 92.9575 18.4539 92.6039 18.1307 92.1092C17.9442 91.8238 17.8077 91.5109 17.721 91.1705C17.6343 90.8301 17.6234 90.4758 17.6883 90.1076C17.7508 89.741 17.9126 89.3757 18.1736 89.0117C18.4347 88.6478 18.8209 88.2987 19.3322 87.9647L19.689 87.7316L22.4486 91.9555L21.7208 92.431L19.5206 89.0633C19.2114 89.2653 18.9759 89.5073 18.8141 89.7895C18.6508 90.0693 18.5728 90.368 18.5801 90.6856C18.5858 91.0008 18.6881 91.3107 18.887 91.6151C19.1061 91.9504 19.3789 92.1862 19.7054 92.3224C20.028 92.4578 20.364 92.5046 20.7135 92.463C21.0629 92.4213 21.3887 92.3018 21.6907 92.1045L22.1759 91.7875C22.5897 91.5171 22.8939 91.2166 23.0885 90.8859C23.2791 90.5543 23.3654 90.2112 23.3474 89.8564C23.3271 89.5032 23.2058 89.1566 22.9836 88.8165C22.8391 88.5953 22.6776 88.4157 22.4993 88.2777C22.317 88.139 22.1201 88.0453 21.9085 87.9969C21.6947 87.95 21.4693 87.953 21.2324 88.006L20.9293 87.0434C21.2611 86.9488 21.5977 86.9342 21.9391 86.9996C22.2781 87.0666 22.603 87.2106 22.9137 87.4318C23.2221 87.6545 23.4975 87.9514 23.7399 88.3224Z" fill="white"/>
<path d="M8.7687 75.4013L17.2289 73.2589L17.4884 74.2834L10.1022 76.1538L10.1147 76.2034L12.0093 77.9216L10.9683 78.1852L9.02814 76.4258L8.7687 75.4013Z" fill="white"/>
<path d="M7.45073 66.3087L16.1482 65.588L16.2355 66.6412L8.64218 67.2704L8.6464 67.3214L10.2323 69.3279L9.16209 69.4166L7.538 67.3619L7.45073 66.3087Z" fill="white"/>
<path d="M13.9077 48.4971L14.8165 48.7272L13.8792 52.4286L12.9704 52.1984L13.9077 48.4971Z" fill="white"/>
<path d="M22.3363 39.3641L15.0301 34.5907L17.9109 30.1813L18.6958 30.6941L16.393 34.2187L18.8617 35.8316L21.0153 32.5353L21.8001 33.048L19.6465 36.3444L22.1295 37.9666L24.4695 34.3848L25.2544 34.8976L22.3363 39.3641Z" fill="white"/>
<path d="M28.6067 34.6191L21.9851 28.5236L22.6432 27.8088L23.4082 28.513L23.489 28.4252C23.4554 28.2939 23.4181 28.1205 23.377 27.9051C23.3357 27.6857 23.3476 27.4379 23.4126 27.1617C23.4774 26.8816 23.6541 26.5848 23.9427 26.2713C24.316 25.8658 24.7464 25.6017 25.2339 25.479C25.7214 25.3563 26.231 25.3794 26.7628 25.5484C27.2945 25.7175 27.8133 26.0348 28.3191 26.5004C28.8291 26.9699 29.1913 27.4636 29.4057 27.9815C29.6181 28.4974 29.6853 29.0033 29.6072 29.4991C29.5271 29.993 29.3024 30.4406 28.933 30.8419C28.6482 31.1513 28.369 31.3518 28.0953 31.4435C27.8196 31.5333 27.5697 31.5678 27.3456 31.5469C27.1195 31.5241 26.9375 31.4995 26.7997 31.473L26.742 31.5357L29.2878 33.8792L28.6067 34.6191ZM25.0625 30.0128C25.4262 30.3476 25.7961 30.5897 26.1722 30.739C26.5463 30.8863 26.9059 30.9298 27.2513 30.8692C27.5945 30.8068 27.9027 30.6272 28.1759 30.3304C28.4607 30.021 28.6168 29.6879 28.6443 29.3309C28.6716 28.9699 28.5943 28.6091 28.4125 28.2487C28.2306 27.8843 27.9682 27.5443 27.6254 27.2288C27.2868 26.9171 26.9336 26.6884 26.5657 26.5428C26.1976 26.3931 25.8379 26.3497 25.4866 26.4125C25.1352 26.4712 24.8152 26.6574 24.5266 26.9709C24.2495 27.2719 24.093 27.595 24.057 27.9403C24.0189 28.2837 24.0876 28.6327 24.2632 28.9873C24.4366 29.34 24.703 29.6819 25.0625 30.0128Z" fill="white"/>
<path d="M33.777 26.1993L29.7567 21.034L30.5503 20.4163L34.5706 25.5816L33.777 26.1993ZM29.4902 19.859C29.3355 19.9794 29.1611 20.0306 28.967 20.0124C28.7752 19.9926 28.6216 19.9087 28.5065 19.7607C28.3913 19.6127 28.3476 19.4433 28.3755 19.2524C28.4056 19.0598 28.498 18.9033 28.6526 18.7829C28.8073 18.6625 28.9806 18.6123 29.1725 18.6321C29.3666 18.6502 29.5212 18.7333 29.6364 18.8813C29.7515 19.0292 29.7941 19.1995 29.764 19.3921C29.7362 19.583 29.6449 19.7386 29.4902 19.859Z" fill="white"/>
<path d="M40.3714 16.0341L39.6985 16.6889C39.5769 16.5835 39.4336 16.4948 39.2685 16.4226C39.1046 16.3465 38.9179 16.3119 38.7084 16.3187C38.4989 16.3255 38.2654 16.3985 38.0081 16.5378C37.6558 16.7284 37.4062 16.9685 37.2592 17.258C37.1134 17.5437 37.1074 17.8102 37.2412 18.0575C37.3602 18.2774 37.5342 18.4078 37.763 18.4486C37.9919 18.4895 38.2992 18.4605 38.685 18.3616L39.653 18.109C40.2353 17.9554 40.7223 17.939 41.1139 18.0598C41.5042 18.178 41.8082 18.4383 42.0258 18.8406C42.2043 19.1704 42.2689 19.5166 42.2197 19.8792C42.1729 20.2404 42.0214 20.5873 41.7653 20.9197C41.5091 21.2522 41.1574 21.5394 40.7102 21.7815C40.123 22.0992 39.5681 22.2348 39.0454 22.1881C38.5227 22.1415 38.0776 21.9011 37.7102 21.4668L38.4361 20.8026C38.6837 21.0692 38.9606 21.2197 39.2668 21.2543C39.5755 21.2875 39.911 21.2061 40.2733 21.01C40.6856 20.7869 40.9655 20.5224 41.1132 20.2163C41.2621 19.9064 41.2696 19.6278 41.1357 19.3804C41.0276 19.1805 40.867 19.051 40.6541 18.9918C40.4398 18.9301 40.1695 18.944 39.8432 19.0333L38.762 19.3277C38.1672 19.4881 37.6752 19.504 37.2859 19.3755C36.8977 19.2432 36.5961 18.9784 36.3811 18.5811C36.2053 18.2563 36.141 17.9196 36.1882 17.5711C36.2379 17.2212 36.3829 16.8892 36.6231 16.575C36.8658 16.2595 37.1896 15.9923 37.5943 15.7732C38.164 15.4649 38.6788 15.3478 39.1389 15.4219C39.6014 15.4946 40.0122 15.6987 40.3714 16.0341Z" fill="white"/>
<path d="M47.7945 18.6723C47.2356 18.8642 46.6996 18.8995 46.1864 18.7783C45.6759 18.6562 45.2203 18.3966 44.8197 17.9995C44.4217 17.6015 44.113 17.0827 43.8934 16.4432C43.672 15.7983 43.5957 15.1953 43.6643 14.634C43.7357 14.0719 43.9353 13.5859 44.2631 13.176C44.5936 12.7651 45.0384 12.4638 45.5972 12.2719C46.1561 12.08 46.6908 12.0452 47.2013 12.1673C47.7145 12.2885 48.1705 12.5494 48.5694 12.9501C48.971 13.3499 49.2825 13.8723 49.5038 14.5171C49.7234 15.1566 49.797 15.7561 49.7248 16.3156C49.6552 16.8741 49.4551 17.3588 49.1246 17.7696C48.7968 18.1795 48.3534 18.4804 47.7945 18.6723ZM47.5012 17.8178C47.9257 17.6721 48.2377 17.4433 48.437 17.1316C48.6364 16.8199 48.741 16.4641 48.7509 16.0642C48.7608 15.6643 48.6947 15.2575 48.5527 14.8437C48.4106 14.4299 48.2124 14.0669 47.9581 13.7547C47.7037 13.4426 47.4017 13.2234 47.052 13.0971C46.7022 12.9709 46.3151 12.9806 45.8906 13.1264C45.466 13.2721 45.1545 13.5022 44.9561 13.8166C44.7577 14.131 44.654 14.4895 44.645 14.8921C44.636 15.2947 44.7026 15.7028 44.8446 16.1166C44.9867 16.5304 45.1844 16.8921 45.4378 17.2016C45.6913 17.511 45.9924 17.7276 46.3412 17.8511C46.69 17.9747 47.0766 17.9636 47.5012 17.8178Z" fill="white"/>
<path d="M55.2072 16.7887C54.6692 16.8785 54.1715 16.8218 53.7142 16.6187C53.2565 16.4129 52.8697 16.0799 52.5539 15.62C52.2376 15.1572 52.0224 14.5839 51.9083 13.9002C51.7952 13.2221 51.8133 12.6142 51.9626 12.0766C52.112 11.539 52.3713 11.0997 52.7407 10.7587C53.1101 10.4177 53.5665 10.2018 54.1102 10.1111C54.5305 10.041 54.8742 10.0556 55.1414 10.155C55.4109 10.2512 55.6248 10.3768 55.7832 10.5318C55.9439 10.6836 56.07 10.8094 56.1616 10.9094L56.2456 10.8953L55.7154 7.71767L56.7074 7.55214L58.1438 16.1604L57.1855 16.3203L57.0199 15.3283L56.9023 15.348C56.849 15.4778 56.7701 15.6436 56.6656 15.8454C56.5605 16.0444 56.395 16.2348 56.169 16.4165C55.9425 16.5954 55.6219 16.7195 55.2072 16.7887ZM55.193 15.8751C55.5909 15.8087 55.9098 15.649 56.1499 15.3958C56.3894 15.1398 56.5498 14.8149 56.631 14.4212C56.7117 14.0247 56.7114 13.5826 56.63 13.095C56.5496 12.613 56.4091 12.203 56.2087 11.8649C56.0078 11.524 55.7532 11.2756 55.4449 11.1197C55.1362 10.9609 54.7801 10.9152 54.3766 10.9826C53.9562 11.0527 53.624 11.219 53.3798 11.4816C53.1379 11.7408 52.9775 12.0657 52.8987 12.4561C52.8221 12.8433 52.8218 13.2639 52.8975 13.7179C52.9742 14.1774 53.1139 14.5832 53.3167 14.9354C53.5218 15.2842 53.7815 15.5462 54.0959 15.7212C54.4126 15.893 54.7783 15.9443 55.193 15.8751Z" fill="white"/>
<path d="M63.1487 16.1388C62.518 16.1388 61.974 15.9996 61.5166 15.7212C61.062 15.4399 60.7112 15.0479 60.464 14.5451C60.2197 14.0394 60.0976 13.4513 60.0976 12.7809C60.0976 12.1104 60.2197 11.5195 60.464 11.0081C60.7112 10.4939 61.0549 10.0934 61.4953 9.80642C61.9385 9.51665 62.4555 9.37176 63.0464 9.37176C63.3873 9.37176 63.724 9.42858 64.0564 9.54221C64.3888 9.65585 64.6913 9.84051 64.964 10.0962C65.2368 10.349 65.4541 10.6843 65.616 11.1019C65.778 11.5195 65.8589 12.0337 65.8589 12.6445V13.0706L60.8135 13.0706V12.2013L64.8362 12.2013C64.8362 11.832 64.7623 11.5024 64.6146 11.2127C64.4697 10.9229 64.2623 10.6942 63.9924 10.5266C63.7254 10.359 63.4101 10.2752 63.0464 10.2752C62.6459 10.2752 62.2993 10.3746 62.0066 10.5735C61.7169 10.7695 61.4939 11.0252 61.3376 11.3405C61.1814 11.6559 61.1032 11.9939 61.1032 12.3547V12.9343C61.1032 13.4286 61.1885 13.8476 61.3589 14.1914C61.5322 14.5323 61.7723 14.7922 62.0791 14.9712C62.3859 15.1473 62.7424 15.2354 63.1487 15.2354C63.4129 15.2354 63.6515 15.1985 63.8646 15.1246C64.0805 15.0479 64.2666 14.9343 64.4228 14.7837C64.5791 14.6303 64.6998 14.4399 64.7851 14.2127L65.7566 14.4854C65.6544 14.8149 65.4825 15.1047 65.241 15.3547C64.9995 15.6019 64.7013 15.7951 64.3461 15.9343C63.991 16.0706 63.5919 16.1388 63.1487 16.1388Z" fill="white"/>
<path d="M82.1545 10.6727L79.3208 18.9271L78.3212 18.5839L80.7952 11.3775L80.7469 11.3609L78.2722 12.0071L78.6209 10.9915L81.155 10.3295L82.1545 10.6727Z" fill="white"/>
<path d="M90.4886 14.5415L86.3349 22.2169L85.4054 21.7139L89.0318 15.0129L88.9869 14.9886L86.4396 15.2187L86.9507 14.2743L89.5592 14.0385L90.4886 14.5415Z" fill="white"/>
<path d="M101.866 29.6895L101.177 30.3244L98.5908 27.5153L99.2805 26.8803L101.866 29.6895Z" fill="white"/>
<path d="M104.903 41.7418L112.895 38.2361L115.011 43.0595L114.152 43.4361L112.461 39.5805L109.76 40.765L111.342 44.3709L110.483 44.7475L108.902 41.1416L106.186 42.333L107.904 46.251L107.046 46.6276L104.903 41.7418Z" fill="white"/>
<path d="M105.445 49.5854L114.17 47.376L114.408 48.3178L113.4 48.5731L113.43 48.6888C113.558 48.7325 113.724 48.796 113.926 48.8795C114.133 48.965 114.334 49.1104 114.529 49.3159C114.728 49.5234 114.88 49.8336 114.985 50.2467C115.12 50.781 115.106 51.2858 114.942 51.761C114.778 52.2362 114.48 52.6502 114.047 53.0029C113.615 53.3556 113.066 53.6164 112.399 53.7852C111.727 53.9553 111.116 53.9885 110.565 53.8848C110.017 53.7804 109.557 53.5599 109.184 53.2234C108.815 52.8862 108.563 52.4532 108.429 51.9245C108.326 51.5169 108.311 51.1735 108.383 50.8942C108.459 50.6142 108.567 50.3861 108.707 50.21C108.85 50.0332 108.97 49.8943 109.067 49.7934L109.046 49.7108L105.692 50.5603L105.445 49.5854ZM111.24 49.1378C110.761 49.2591 110.356 49.4364 110.025 49.6696C109.697 49.9021 109.464 50.1795 109.326 50.5017C109.19 50.8232 109.172 51.1794 109.271 51.5705C109.374 51.9781 109.568 52.291 109.852 52.5093C110.139 52.7296 110.483 52.8622 110.885 52.9071C111.289 52.9541 111.717 52.9204 112.169 52.8061C112.615 52.6931 113 52.5224 113.323 52.2941C113.649 52.0678 113.883 51.7904 114.022 51.462C114.165 51.1357 114.184 50.7659 114.08 50.3528C113.979 49.9563 113.794 49.6485 113.525 49.4295C113.258 49.2098 112.929 49.0765 112.536 49.0294C112.146 48.9817 111.714 49.0178 111.24 49.1378Z" fill="white"/>
<path d="M109.667 58.5201L116.19 57.9796L116.273 58.9818L109.75 59.5223L109.667 58.5201ZM117.319 58.3991C117.303 58.2037 117.355 58.0298 117.477 57.8772C117.598 57.7274 117.753 57.6448 117.939 57.6293C118.126 57.6138 118.292 57.6699 118.437 57.7976C118.581 57.9282 118.662 58.0911 118.678 58.2865C118.694 58.4818 118.642 58.6544 118.52 58.8041C118.399 58.9567 118.245 59.0408 118.058 59.0562C117.871 59.0717 117.705 59.0142 117.56 58.8837C117.416 58.756 117.335 58.5944 117.319 58.3991Z" fill="white"/>
<path d="M114.571 69.5997L114.391 68.6782C114.545 68.634 114.698 68.5626 114.849 68.4639C115.002 68.3683 115.133 68.2309 115.242 68.0518C115.351 67.8727 115.418 67.6373 115.442 67.3457C115.475 66.9465 115.41 66.6062 115.248 66.3248C115.089 66.0465 114.869 65.8957 114.589 65.8725C114.34 65.8519 114.135 65.9262 113.976 66.0954C113.817 66.2646 113.673 66.5378 113.545 66.9148L113.227 67.8634C113.037 68.4349 112.784 68.8516 112.469 69.1133C112.156 69.3754 111.772 69.4875 111.316 69.4497C110.943 69.4188 110.617 69.2835 110.341 69.0439C110.064 68.8072 109.856 68.4907 109.718 68.0944C109.58 67.6981 109.532 67.2465 109.574 66.7398C109.629 66.0744 109.819 65.5357 110.144 65.1236C110.469 64.7116 110.914 64.4705 111.478 64.4004L111.637 65.3714C111.279 65.4329 111.001 65.5824 110.805 65.8198C110.608 66.0601 110.493 66.3854 110.459 66.796C110.42 67.2631 110.488 67.6422 110.664 67.9333C110.842 68.2274 111.071 68.3861 111.351 68.4093C111.578 68.428 111.774 68.3645 111.94 68.2186C112.109 68.073 112.245 67.8391 112.349 67.517L112.694 66.4509C112.885 65.8653 113.141 65.4446 113.461 65.189C113.784 64.9364 114.171 64.8287 114.621 64.866C114.989 64.8965 115.306 65.0269 115.572 65.257C115.838 65.49 116.036 65.7929 116.168 66.1659C116.299 66.5416 116.346 66.9588 116.308 67.4175C116.255 68.063 116.071 68.5581 115.757 68.9027C115.444 69.2501 115.048 69.4824 114.571 69.5997Z" fill="white"/>
<path d="M108.301 74.3713C108.446 73.7985 108.71 73.3304 109.092 72.9671C109.473 72.6065 109.94 72.3671 110.492 72.2489C111.042 72.1334 111.646 72.1587 112.301 72.3247C112.962 72.4921 113.509 72.758 113.941 73.1224C114.372 73.4896 114.67 73.9225 114.834 74.4212C114.997 74.9226 115.006 75.4597 114.861 76.0325C114.716 76.6054 114.453 77.0721 114.071 77.4326C113.689 77.796 113.221 78.035 112.668 78.1498C112.113 78.2673 111.506 78.2424 110.845 78.075C110.189 77.909 109.647 77.6428 109.218 77.2763C108.789 76.9126 108.493 76.48 108.329 75.9786C108.166 75.4799 108.156 74.9442 108.301 74.3713ZM109.177 74.5931C109.067 75.0282 109.088 75.4145 109.24 75.7519C109.392 76.0893 109.632 76.3715 109.962 76.5985C110.291 76.8255 110.668 76.9927 111.092 77.1001C111.516 77.2075 111.928 77.2401 112.329 77.1979C112.729 77.1557 113.078 77.0228 113.375 76.799C113.672 76.5753 113.875 76.2459 113.985 75.8108C114.096 75.3756 114.073 74.989 113.919 74.6509C113.764 74.3128 113.521 74.0299 113.188 73.8022C112.856 73.5745 112.478 73.407 112.054 73.2996C111.63 73.1922 111.219 73.1599 110.821 73.2028C110.424 73.2457 110.078 73.3794 109.784 73.6038C109.489 73.8282 109.287 74.158 109.177 74.5931Z" fill="white"/>
<path d="M105.823 81.6071C106.042 81.1075 106.362 80.7219 106.782 80.4502C107.205 80.1796 107.695 80.0379 108.253 80.0251C108.813 80.0134 109.411 80.1468 110.046 80.4252C110.675 80.7014 111.174 81.049 111.543 81.4681C111.911 81.8871 112.137 82.3445 112.22 82.8403C112.304 83.336 112.235 83.8362 112.014 84.341C111.842 84.7312 111.642 85.011 111.413 85.1802C111.185 85.3533 110.963 85.4637 110.746 85.5115C110.531 85.563 110.357 85.5997 110.223 85.6217L110.189 85.6998L113.139 86.9939L112.735 87.9149L104.743 84.4092L105.133 83.5194L106.054 83.9234L106.102 83.8141C106.023 83.6985 105.927 83.5418 105.815 83.3439C105.706 83.1471 105.637 82.9044 105.609 82.6158C105.583 82.3283 105.654 81.9921 105.823 81.6071ZM106.596 82.0948C106.434 82.4643 106.393 82.8187 106.474 83.1581C106.557 83.4986 106.741 83.8106 107.027 84.0939C107.314 84.3783 107.685 84.6199 108.137 84.8184C108.585 85.0147 109.005 85.1214 109.398 85.1385C109.793 85.1568 110.14 85.0796 110.439 84.9068C110.741 84.7351 110.974 84.462 111.138 84.0873C111.31 83.6971 111.352 83.3279 111.266 82.9799C111.181 82.6356 110.997 82.3237 110.713 82.0441C110.431 81.7683 110.079 81.5379 109.657 81.3531C109.231 81.1659 108.815 81.0609 108.409 81.0381C108.005 81.019 107.643 81.0931 107.325 81.2605C107.008 81.4317 106.765 81.7098 106.596 82.0948Z" fill="white"/>
<path d="M102.023 88.6112C102.368 88.0832 102.782 87.7039 103.266 87.4733C103.75 87.2466 104.27 87.1673 104.826 87.2354C105.383 87.3075 105.942 87.5268 106.503 87.8935C107.065 88.2603 107.493 88.6857 107.787 89.1699C108.082 89.6581 108.23 90.165 108.229 90.6905C108.229 91.22 108.068 91.7321 107.744 92.2268C107.558 92.5122 107.326 92.763 107.049 92.9791C106.772 93.1952 106.452 93.3475 106.089 93.436C105.728 93.526 105.329 93.5246 104.891 93.4317C104.452 93.3389 103.978 93.1254 103.466 92.7914L103.11 92.5583L105.869 88.3344L106.597 88.8099L104.397 92.1776C104.706 92.3796 105.022 92.498 105.346 92.5328C105.667 92.57 105.972 92.5214 106.26 92.3872C106.547 92.2553 106.789 92.0371 106.988 91.7327C107.207 91.3974 107.314 91.0528 107.307 90.6991C107.302 90.3493 107.209 90.0228 107.031 89.7195C106.852 89.4162 106.612 89.1659 106.31 88.9685L105.825 88.6516C105.411 88.3812 105.014 88.2234 104.633 88.178C104.252 88.1367 103.904 88.1955 103.586 88.3544C103.271 88.5149 103.002 88.7652 102.78 89.1053C102.635 89.3265 102.536 89.5465 102.481 89.7653C102.427 89.988 102.42 90.2059 102.461 90.4191C102.504 90.6338 102.597 90.839 102.741 91.0346L101.981 91.6989C101.761 91.433 101.613 91.1306 101.535 90.7917C101.461 90.4544 101.462 90.099 101.54 89.7256C101.62 89.3537 101.781 88.9822 102.023 88.6112Z" fill="white"/>
<path d="M96.2045 107.512L90.8441 100.625L91.678 99.9755L96.3579 105.988L96.3983 105.957L97.2107 103.532L97.8703 104.379L97.0384 106.863L96.2045 107.512Z" fill="white"/>
<path d="M88.4074 112.372L84.2536 104.697L85.1831 104.194L88.8095 110.895L88.8545 110.871L90.055 108.612L90.5661 109.557L89.3368 111.869L88.4074 112.372Z" fill="white"/>
<path d="M69.503 113.613L69.3487 112.689L73.1148 112.06L73.2691 112.985L69.503 113.613Z" fill="white"/>
</svg>
